<svg width="215" height="114" viewBox="0 0 215 114" fill="none" xmlns="http://www.w3.org/2000/svg">
<path d="M91.9376 0.486652C95.6201 0.994575 100.562 2.69823 106.636 5.5553C111.376 7.78805 117.207 11.153 119.704 13.1107C120.053 13.3858 120.371 13.608 120.413 13.608C120.466 13.608 121.471 13.1636 122.646 12.6133C136.963 5.98915 147.301 2.93103 155.322 2.92045C163.396 2.92045 170.687 6.05264 177.099 12.2853C179.734 14.8355 180.962 16.5286 183.946 21.703C187.025 27.0468 188.358 28.761 190.665 30.2954C192.295 31.3853 193.596 32.052 197.861 33.9461C200.591 35.163 203.162 36.4328 204.379 37.1523C211.374 41.3533 215.12 47.2473 214.665 53.353C214.548 55.0037 214.135 56.5063 213.363 58.0724C212.665 59.4904 211.892 60.5274 210.559 61.8607C207.321 65.0987 203.903 66.6436 195.236 68.7811C189.882 70.1144 184.665 71.0985 173.533 72.9186C169.787 73.5323 163.83 74.5482 160.306 75.1937C151.481 76.7915 145.936 77.7015 138.36 78.802L135.323 79.2465L132.91 81.6379C129.513 85.0135 128.032 86.2939 123.323 89.9446C114.191 97.0238 109.006 100.727 103.63 104.029C96.0539 108.685 88.4351 111.997 81.9908 113.436C75.6841 114.843 71.4302 113.605 69.6102 109.849C69.007 108.611 68.8589 107.934 68.7954 106.251C68.7319 104.621 68.8695 103.436 69.3668 101.436C70.425 97.0661 73.8323 90.061 77.6629 84.3363L78.3718 83.2675L74.6577 83.1935C68.0652 83.0665 63.8114 82.8443 61.5363 82.4845C60.785 82.3681 58.8591 82.0189 57.2507 81.7014C53.8857 81.0348 51.9493 80.7385 50.2985 80.6327C49.0605 80.5586 47.4944 80.6962 46.6055 80.9607C45.0288 81.4263 43.6109 82.7279 41.0818 85.987C38.1189 89.8176 36.5211 91.3202 34.1085 92.516C31.1138 94.0186 27.7065 94.2514 25.5584 93.1085C24.7119 92.6641 23.495 91.3731 23.0188 90.4314C22.2146 88.8124 21.8231 86.3362 21.9395 83.6061C21.9818 82.7914 22.1723 80.1459 22.3733 77.7333C22.5744 75.3207 22.786 72.6964 22.8389 71.9133C22.9447 70.4531 22.8601 69.0774 22.6273 68.1991C22.3098 67.014 21.294 65.4902 19.5374 63.5538C18.4581 62.358 17.5057 61.4586 13.9503 58.2629C6.35259 51.4483 3.3897 47.8822 1.74953 43.6072C0.691362 40.8454 0.701943 39.3428 1.80244 38.2952C2.34211 37.7767 2.97702 37.5545 4.58544 37.3217C10.3525 36.4963 16.1513 37.4592 23.8336 40.5068C27.0187 41.766 28.0769 42.3268 33.3677 45.5119C36.4894 47.3955 38.9761 48.6547 40.6691 49.2367C41.7908 49.6176 41.886 49.6388 43.2088 49.6282C44.7219 49.6282 45.3039 49.5012 47.2298 48.7923C48.7959 48.2208 52.9757 46.1151 56.2772 44.2315C61.7374 41.1205 61.8538 41.0676 70.9329 37.3428C80.2448 33.5228 83.3241 32.2001 87.8742 30.052C91.7366 28.2425 94.2868 26.9516 94.2127 26.8352C94.181 26.7823 93.5672 25.9992 92.8371 25.0998C87.7473 18.719 84.7526 13.3223 84.0437 9.26949C83.8214 7.95735 83.8849 5.80926 84.1918 4.86749C84.9219 2.57125 86.2552 1.18505 88.2658 0.624215C88.9536 0.444325 91.017 0.359671 91.9376 0.486652ZM89.7049 6.64522C89.2499 8.34888 90.7419 12.0842 93.6095 16.4122C95.0592 18.592 98.8687 23.5548 99.4824 24.0733C99.6305 24.1897 100.318 23.8617 104.234 21.83C106.752 20.5179 110.085 18.8036 111.641 17.9994C113.207 17.2058 114.477 16.5391 114.477 16.518C114.477 16.4545 112.032 14.9413 110.773 14.2217C102.879 9.7245 94.1175 6.24311 90.5937 6.21137L89.8319 6.20079L89.7049 6.64522ZM152.296 8.8568C146.074 9.47054 137.46 12.2324 127.069 16.9412C123.535 18.5497 122.265 19.174 122.043 19.428C121.757 19.7454 121.154 20.0417 120.593 20.1263C120.064 20.211 115.662 22.4014 107.546 26.6235C93.2286 34.0731 87.8742 36.6127 77.1232 41.0358C63.8855 46.4854 64.5098 46.1997 59.3988 49.1097C52.0128 53.3212 48.161 54.9508 44.5315 55.4058C42.2564 55.7021 39.5052 55.1307 36.4364 53.7551C34.7328 52.9826 33.0397 52.0514 29.188 49.7446C25.6008 47.5965 24.1299 46.8241 21.9395 45.9563C17.5798 44.2209 14.3841 43.3427 11.0826 42.9723C9.64351 42.8136 7.81287 42.7607 7.81287 42.8771C7.81287 43.0464 8.90278 44.7395 9.62234 45.713C11.2625 47.8822 13.273 49.9139 17.8126 53.9773C21.0824 56.8979 22.5638 58.3052 23.823 59.6914C26.7224 62.866 28.024 65.2257 28.5107 68.1886C28.7541 69.6488 28.6589 72.3895 28.1933 77.5217C27.7171 82.7384 27.6113 85.3521 27.8441 86.6537C28.0557 87.8812 28.2039 88.1034 28.807 88.1034C29.0504 88.1034 29.6218 88.0081 30.0557 87.9023C32.2567 87.3415 33.7804 86.0294 36.6904 82.2411C39.2935 78.8444 41.0607 77.2042 43.2088 76.146C45.251 75.1408 47.0605 74.8233 50.235 74.908C52.69 74.9715 53.8222 75.1302 58.6581 76.0825C60.2877 76.4106 62.0971 76.7386 62.6897 76.8233C64.7426 77.1407 74.5836 77.5322 79.9274 77.5111H82.2553L83.4722 75.7439C86.9007 70.7811 90.2128 66.8024 93.3344 63.8924C94.7206 62.612 96.4031 61.2258 96.5724 61.2258C96.6465 61.2258 96.6994 61.12 96.6994 60.9824C96.6994 60.5803 97.1756 59.702 97.62 59.3105C99.1332 57.9455 103.207 55.7445 107.07 54.2101C114.233 51.3636 123.979 48.9404 132.254 47.9563C136.402 47.4695 140.307 47.3955 142.412 47.7658C145.873 48.3901 148.074 49.8187 149.185 52.1784C149.915 53.7339 150.105 55.4693 149.756 57.4587C149.111 61.1623 146.423 66.0193 141.915 71.6382C141.545 72.0932 141.259 72.4847 141.28 72.5059C141.386 72.6117 151.597 70.9187 158.655 69.6277C164.581 68.5378 166.37 68.2309 172.729 67.1939C186.623 64.94 193.099 63.5961 199.162 61.7443C203.363 60.4533 206.115 58.7285 207.659 56.3899C210.538 52.062 208.442 46.6971 202.305 42.6866C200.919 41.7766 198.665 40.6337 195.374 39.1629C190.21 36.8561 187.829 35.5333 185.861 33.8508C185.459 33.5122 185.078 33.1948 185.004 33.1419C184.909 33.0678 184.189 33.4276 182.718 34.253C179.258 36.1788 179.099 36.2529 178.348 36.2529C177.491 36.2529 176.782 35.9143 176.168 35.2265C175.904 34.9408 174.972 33.7133 174.105 32.4964C171.322 28.6341 169.459 26.1791 168.285 24.8246C166.93 23.2691 166.698 22.8247 166.708 21.8617C166.719 21.0046 167.026 20.3168 167.65 19.7666C167.904 19.5443 169.205 18.7084 170.549 17.9042C171.904 17.1 172.983 16.4016 172.973 16.3592C172.909 16.2217 171.354 14.8566 170.401 14.1053C166.655 11.1742 162.708 9.44938 158.528 8.90971C157.121 8.72982 153.851 8.69808 152.296 8.8568ZM175.438 21.7242C174.761 22.1051 174.158 22.4649 174.084 22.5284C173.988 22.5919 174.126 22.8458 174.613 23.4596C175.226 24.2638 176.983 26.6341 178.475 28.6764L179.142 29.597L180.168 29.0467C180.729 28.7399 181.205 28.4859 181.226 28.4753C181.247 28.4542 181.089 28.179 180.877 27.851C180.676 27.5336 179.925 26.2743 179.226 25.068C177.766 22.5496 176.814 21.0152 176.718 21.0152C176.687 21.0152 176.105 21.3327 175.438 21.7242ZM134.159 53.554C121.683 54.8979 108.487 58.8978 101.757 63.3739C100.996 63.8818 100.922 63.9665 100.773 64.4744C100.572 65.141 100.223 65.5643 99.0274 66.559C95.5566 69.4478 92.2762 73.2255 88.2658 78.9502C85.8955 82.3363 81.2501 89.3838 80.139 91.2779C78.7634 93.6376 76.6259 97.9656 75.9169 99.8597C74.8481 102.685 74.3402 105.203 74.573 106.537C74.7846 107.785 75.3031 108.124 77.0068 108.188C78.4036 108.24 79.5993 108.082 81.7263 107.553C89.652 105.584 98.4242 101.055 109.08 93.4366C113.99 89.934 123.376 82.6961 125.535 80.7385C128.572 77.9978 133.164 73.1831 136.127 69.6277C141.957 62.6437 145.047 56.6968 143.957 54.5699C143.693 54.0725 142.571 53.5964 141.122 53.3953C140.18 53.2577 135.979 53.353 134.159 53.554Z" fill="black"/>
<path d="M161.893 22.7402C162.486 22.9625 163.026 23.3328 163.301 23.6926C163.438 23.8831 163.904 24.719 164.338 25.5656C164.772 26.4121 165.978 28.666 167.026 30.5919C169.121 34.4648 169.904 36.1261 169.999 36.8774C170.031 37.2055 169.988 37.6076 169.872 38.0097C169.639 38.8139 168.846 39.6499 168.126 39.8615C167.862 39.9356 167.459 40.126 167.227 40.2848C166.645 40.6657 166.317 40.7504 163.841 41.0784C162.105 41.3218 161.311 41.3747 159.386 41.3747L157.058 41.3853L156.433 41.0678C155.555 40.6234 155.216 40.1366 154.687 38.507C153.978 36.3907 152.899 34.1685 151.428 31.8194C151.047 31.2162 150.645 30.4755 150.529 30.1792C150.169 29.2163 150.455 27.9888 151.238 27.2375C151.703 26.793 153.809 25.7031 157.618 23.9254C160.507 22.5921 161.068 22.4334 161.893 22.7402ZM158.486 29.9147L157.375 30.4543L158.232 32.158C158.708 33.0998 159.227 34.232 159.396 34.6659C159.555 35.0997 159.724 35.5018 159.777 35.5547C159.883 35.6711 162.941 35.4172 162.941 35.2796C162.941 35.0891 159.819 29.3856 159.714 29.375C159.65 29.375 159.1 29.6184 158.486 29.9147Z" fill="black"/>
<path d="M140.963 33.766C141.566 33.9882 142.127 34.475 142.444 35.0781C143.545 37.0992 142.095 39.2579 139.132 40.0198C138.317 40.2314 136.825 40.168 136.053 39.9034C134.942 39.5225 134.159 38.4325 134.159 37.2791C134.159 36.295 134.339 35.8506 135.005 35.1945C135.682 34.5067 136.159 34.3268 137.27 34.3374C137.841 34.3374 138.063 34.2951 138.233 34.1469C138.793 33.639 140.116 33.4591 140.963 33.766Z" fill="black"/>
<path d="M126.498 36.8243C127.45 37.2687 128.127 38.3481 128.127 39.438C128.127 40.5067 127.185 41.8506 126.032 42.4326C124 43.459 122.022 43.0463 121.207 41.4168C120.455 39.9036 121.249 37.9989 122.847 37.4698C123.122 37.3745 123.471 37.2052 123.619 37.0888C124.328 36.528 125.609 36.4116 126.498 36.8243Z" fill="black"/>
<path d="M113.038 40.3796C114.456 40.9299 115.217 42.5383 114.752 43.9563C114.508 44.6653 113.874 45.3636 113.186 45.6811C112.688 45.9033 112.477 45.9351 111.249 45.9351C109.673 45.9351 109.218 45.7975 108.53 45.0885C107.905 44.4642 107.757 44.0515 107.757 43.0145C107.757 42.1891 107.789 42.0621 108.075 41.586C108.424 41.0251 109.175 40.4537 109.8 40.2738C110.487 40.0834 112.445 40.1469 113.038 40.3796Z" fill="black"/>
<path d="M99.0909 41.8612C100.509 42.4221 101.25 44.0093 100.773 45.459C100.541 46.168 99.3555 47.4484 98.5724 47.8399C97.1015 48.57 95.2286 47.8187 94.636 46.2738C94.3715 45.5754 94.4561 44.4749 94.8265 43.84C95.1651 43.2686 96.3079 42.1787 96.8582 41.9247C97.4719 41.6284 98.4348 41.6073 99.0909 41.8612Z" fill="black"/>
<path d="M86.5728 46.2422C89.0595 47.1311 89.0171 50.7394 86.5093 51.6706C85.9908 51.8611 83.7157 51.8399 83.1337 51.6389C80.7211 50.8241 80.5941 47.3744 82.9432 46.3163C83.3453 46.1364 83.631 46.0941 84.795 46.1046C85.6733 46.1046 86.3188 46.1575 86.5728 46.2422Z" fill="black"/>
<path d="M74.2978 47.5755C76.52 47.9776 77.4406 50.6654 75.9274 52.3161C75.2079 53.0886 74.8375 53.2262 73.2926 53.2685C71.6947 53.3214 71.1445 53.1838 70.4249 52.5489C69.5996 51.8188 69.2821 50.6654 69.6101 49.5331C69.8006 48.8347 70.7212 47.893 71.3985 47.6919C71.991 47.5226 73.6312 47.4485 74.2978 47.5755Z" fill="black"/>
</svg>
