<svg width="1219" height="585" viewBox="0 0 1219 585" fill="none" xmlns="http://www.w3.org/2000/svg">
<g clip-path="url(#clip0_249_1478)">
<rect width="1219" height="585" fill="#A8D5FF"/>
<mask id="path-3-inside-1_249_1478" fill="white">
<path d="M1200.5 161C1179.33 161 1161.83 169.106 1159.04 179.627C1152.96 177.855 1145.94 176.843 1138.46 176.843C1123.43 176.843 1110.25 180.933 1102.87 187.071C1100.9 186.925 1098.89 186.849 1096.85 186.849C1073.74 186.849 1055 196.509 1055 208.425C1055 219.491 1071.16 228.608 1091.98 229.853V230H1238.42V229.979C1238.99 229.992 1239.57 230 1240.15 230C1263.26 230 1282 220.34 1282 208.425C1282 196.745 1264 187.234 1241.52 186.861C1242.06 185.476 1242.35 184.043 1242.35 182.575C1242.35 170.66 1223.61 161 1200.5 161Z"/>
</mask>
<path d="M1200.5 161C1179.33 161 1161.83 169.106 1159.04 179.627C1152.96 177.855 1145.94 176.843 1138.46 176.843C1123.43 176.843 1110.25 180.933 1102.87 187.071C1100.9 186.925 1098.89 186.849 1096.85 186.849C1073.74 186.849 1055 196.509 1055 208.425C1055 219.491 1071.16 228.608 1091.98 229.853V230H1238.42V229.979C1238.99 229.992 1239.57 230 1240.15 230C1263.26 230 1282 220.34 1282 208.425C1282 196.745 1264 187.234 1241.52 186.861C1242.06 185.476 1242.35 184.043 1242.35 182.575C1242.35 170.66 1223.61 161 1200.5 161Z" fill="white"/>
<path d="M1200.5 161L1200.5 153L1200.5 153L1200.5 161ZM1159.04 179.627L1166.77 181.677L1164.67 189.603L1156.8 187.307L1159.04 179.627ZM1138.46 176.843L1138.46 168.843H1138.46V176.843ZM1102.87 187.071L1107.98 193.221L1105.5 195.289L1102.28 195.049L1102.87 187.071ZM1096.85 186.849L1096.85 178.849L1096.85 178.849L1096.85 186.849ZM1055 208.425L1047 208.425V208.425H1055ZM1091.98 229.853L1092.45 221.867L1099.98 222.317V229.853H1091.98ZM1091.98 230V238H1083.98V230H1091.98ZM1238.42 230H1246.42V238H1238.42V230ZM1238.42 229.979H1230.42V221.81L1238.59 221.981L1238.42 229.979ZM1240.15 230L1240.15 238L1240.15 238L1240.15 230ZM1282 208.425L1290 208.425L1290 208.425L1282 208.425ZM1241.52 186.861L1241.39 194.86L1229.88 194.67L1234.07 183.948L1241.52 186.861ZM1242.35 182.575L1250.35 182.575V182.575H1242.35ZM1200.5 161V169C1190.86 169 1182.35 170.857 1176.18 173.654C1169.68 176.603 1167.26 179.848 1166.77 181.677L1159.04 179.627L1151.31 177.577C1153.61 168.886 1161.34 162.817 1169.57 159.082C1178.14 155.196 1188.97 153 1200.5 153V161ZM1159.04 179.627L1156.8 187.307C1151.5 185.763 1145.24 184.843 1138.46 184.843V176.843V168.843C1146.64 168.843 1154.42 169.947 1161.28 171.947L1159.04 179.627ZM1138.46 176.843L1138.46 184.843C1124.54 184.843 1113.44 188.686 1107.98 193.221L1102.87 187.071L1097.75 180.922C1107.06 173.18 1122.32 168.843 1138.46 168.843L1138.46 176.843ZM1102.87 187.071L1102.28 195.049C1100.51 194.918 1098.69 194.849 1096.85 194.849L1096.85 186.849L1096.85 178.849C1099.09 178.849 1101.3 178.933 1103.46 179.093L1102.87 187.071ZM1096.85 186.849V194.849C1086.3 194.849 1077.15 197.07 1070.92 200.279C1064.29 203.7 1063 207.001 1063 208.425H1055H1047C1047 197.933 1055.08 190.446 1063.59 186.058C1072.51 181.457 1084.29 178.849 1096.85 178.849V186.849ZM1055 208.425L1063 208.425C1063 209.738 1064.05 212.657 1069.67 215.886C1075 218.952 1082.98 221.3 1092.45 221.867L1091.98 229.853L1091.5 237.838C1080.16 237.16 1069.65 234.328 1061.69 229.757C1054.03 225.35 1047 218.178 1047 208.425L1055 208.425ZM1091.98 229.853H1099.98V230H1091.98H1083.98V229.853H1091.98ZM1091.98 230V222H1238.42V230V238H1091.98V230ZM1238.42 230H1230.42V229.979H1238.42H1246.42V230H1238.42ZM1238.42 229.979L1238.59 221.981C1239.13 221.993 1239.65 222 1240.15 222L1240.15 230L1240.15 238C1239.5 238 1238.86 237.99 1238.25 237.978L1238.42 229.979ZM1240.15 230V222C1250.7 222 1259.85 219.778 1266.08 216.57C1272.71 213.15 1274 209.848 1274 208.425L1282 208.425L1290 208.425C1290 218.917 1281.92 226.403 1273.41 230.791C1264.49 235.392 1252.71 238 1240.15 238V230ZM1282 208.425H1274C1274 207.032 1272.78 203.839 1266.44 200.467C1260.46 197.294 1251.64 195.03 1241.39 194.86L1241.52 186.861L1241.65 178.862C1253.88 179.065 1265.29 181.742 1273.94 186.338C1282.22 190.735 1290 198.137 1290 208.425H1282ZM1241.52 186.861L1234.07 183.948C1234.27 183.435 1234.35 182.987 1234.35 182.575H1242.35H1250.35C1250.35 185.098 1249.85 187.517 1248.97 189.774L1241.52 186.861ZM1242.35 182.575L1234.35 182.575C1234.35 181.151 1233.06 177.85 1226.42 174.43C1220.2 171.222 1211.05 169 1200.5 169L1200.5 161L1200.5 153C1213.06 153 1224.83 155.608 1233.75 160.209C1242.27 164.597 1250.35 172.083 1250.35 182.575L1242.35 182.575Z" fill="black" mask="url(#path-3-inside-1_249_1478)"/>
<mask id="path-5-inside-2_249_1478" fill="white">
<path d="M1044.5 43C1065.67 43 1083.17 51.1064 1085.96 61.627C1092.04 59.8549 1099.06 58.8428 1106.54 58.8428C1121.57 58.8428 1134.75 62.933 1142.13 69.0713C1144.1 68.9253 1146.11 68.8486 1148.15 68.8486C1171.26 68.8486 1190 78.509 1190 90.4248C1190 101.491 1173.84 110.608 1153.02 111.853V112H1006.58V111.979C1006.01 111.992 1005.43 112 1004.85 112C981.737 112 963 102.34 963 90.4248C963 78.7449 981.001 69.2335 1003.48 68.8613C1002.94 67.4761 1002.65 66.0427 1002.65 64.5752C1002.65 52.6595 1021.39 43.0001 1044.5 43Z"/>
</mask>
<path d="M1044.5 43C1065.67 43 1083.17 51.1064 1085.96 61.627C1092.04 59.8549 1099.06 58.8428 1106.54 58.8428C1121.57 58.8428 1134.75 62.933 1142.13 69.0713C1144.1 68.9253 1146.11 68.8486 1148.15 68.8486C1171.26 68.8486 1190 78.509 1190 90.4248C1190 101.491 1173.84 110.608 1153.02 111.853V112H1006.58V111.979C1006.01 111.992 1005.43 112 1004.85 112C981.737 112 963 102.34 963 90.4248C963 78.7449 981.001 69.2335 1003.48 68.8613C1002.94 67.4761 1002.65 66.0427 1002.65 64.5752C1002.65 52.6595 1021.39 43.0001 1044.5 43Z" fill="white"/>
<path d="M1044.5 43L1044.5 35L1044.5 35L1044.5 43ZM1085.96 61.627L1078.23 63.6772L1080.33 71.6027L1088.2 69.307L1085.96 61.627ZM1106.54 58.8428L1106.54 50.8428H1106.54V58.8428ZM1142.13 69.0713L1137.02 75.221L1139.5 77.2888L1142.72 77.0493L1142.13 69.0713ZM1148.15 68.8486L1148.15 60.8486L1148.15 60.8486L1148.15 68.8486ZM1190 90.4248L1198 90.425V90.4248H1190ZM1153.02 111.853L1152.55 103.867L1145.02 104.317V111.853H1153.02ZM1153.02 112V120H1161.02V112H1153.02ZM1006.58 112H998.58V120H1006.58V112ZM1006.58 111.979H1014.58V103.81L1006.41 103.981L1006.58 111.979ZM1004.85 112L1004.85 120L1004.85 120L1004.85 112ZM963 90.4248L955 90.4248L955 90.425L963 90.4248ZM1003.48 68.8613L1003.61 76.8602L1015.12 76.6697L1010.93 65.9485L1003.48 68.8613ZM1002.65 64.5752L994.654 64.575V64.5752H1002.65ZM1044.5 43V51C1054.14 51 1062.65 52.8571 1068.82 55.6542C1075.32 58.6026 1077.74 61.8477 1078.23 63.6772L1085.96 61.627L1093.69 59.5767C1091.39 50.8857 1083.66 44.8174 1075.43 41.0824C1066.86 37.1961 1056.03 35 1044.5 35V43ZM1085.96 61.627L1088.2 69.307C1093.5 67.7625 1099.76 66.8428 1106.54 66.8428V58.8428V50.8428C1098.36 50.8428 1090.58 51.9473 1083.72 53.9469L1085.96 61.627ZM1106.54 58.8428L1106.54 66.8428C1120.46 66.8428 1131.56 70.686 1137.02 75.221L1142.13 69.0713L1147.25 62.9215C1137.94 55.1799 1122.68 50.8428 1106.54 50.8428L1106.54 58.8428ZM1142.13 69.0713L1142.72 77.0493C1144.49 76.9178 1146.31 76.8486 1148.15 76.8486L1148.15 68.8486L1148.15 60.8486C1145.91 60.8486 1143.7 60.9328 1141.54 61.0933L1142.13 69.0713ZM1148.15 68.8486V76.8486C1158.7 76.8486 1167.85 79.0703 1174.08 82.2788C1180.71 85.6995 1182 89.0008 1182 90.4248H1190H1198C1198 79.9329 1189.92 72.4462 1181.41 68.0577C1172.49 63.4571 1160.71 60.8486 1148.15 60.8486V68.8486ZM1190 90.4248L1182 90.4246C1182 91.7379 1180.95 94.6572 1175.33 97.886C1170 100.952 1162.02 103.3 1152.55 103.867L1153.02 111.853L1153.5 119.838C1164.84 119.16 1175.35 116.328 1183.31 111.757C1190.97 107.35 1198 100.178 1198 90.425L1190 90.4248ZM1153.02 111.853H1145.02V112H1153.02H1161.02V111.853H1153.02ZM1153.02 112V104H1006.58V112V120H1153.02V112ZM1006.58 112H1014.58V111.979H1006.58H998.58V112H1006.58ZM1006.58 111.979L1006.41 103.981C1005.87 103.993 1005.35 104 1004.85 104L1004.85 112L1004.85 120C1005.5 120 1006.14 119.99 1006.75 119.978L1006.58 111.979ZM1004.85 112V104C994.3 104 985.146 101.778 978.923 98.5701C972.289 95.1497 971 91.8485 971 90.4246L963 90.4248L955 90.425C955 100.917 963.08 108.403 971.592 112.791C980.515 117.392 992.285 120 1004.85 120V112ZM963 90.4248H971C971 89.0323 972.219 85.839 978.564 82.4673C984.536 79.2944 993.359 77.03 1003.61 76.8602L1003.48 68.8613L1003.35 60.8624C991.123 61.0648 979.706 63.7422 971.057 68.3381C962.782 72.7351 955 80.1375 955 90.4248H963ZM1003.48 68.8613L1010.93 65.9485C1010.73 65.4352 1010.65 64.9874 1010.65 64.5752H1002.65H994.654C994.654 67.0981 995.147 69.5169 996.03 71.7742L1003.48 68.8613ZM1002.65 64.5752L1010.65 64.5754C1010.65 63.1514 1011.94 59.8502 1018.58 56.4298C1024.8 53.2216 1033.95 51 1044.5 51L1044.5 43L1044.5 35C1031.94 35 1020.17 37.6083 1011.25 42.2087C1002.73 46.5969 994.655 54.0834 994.654 64.575L1002.65 64.5752Z" fill="black" mask="url(#path-5-inside-2_249_1478)"/>
<mask id="path-7-inside-3_249_1478" fill="white">
<path d="M171.498 170C150.326 170 132.829 178.106 130.04 188.627C123.964 186.855 116.944 185.843 109.465 185.843C94.4286 185.843 81.2458 189.933 73.8682 196.071C71.9025 195.925 69.8927 195.849 67.8486 195.849C44.7364 195.849 26 205.509 26 217.425C26.0003 228.491 42.1594 237.608 62.9756 238.853V239H209.42V238.979C209.994 238.992 210.571 239 211.151 239C234.263 239 253 229.34 253 217.425C253 205.745 234.999 196.234 212.52 195.861C213.061 194.476 213.346 193.043 213.346 191.575C213.345 179.66 194.61 170 171.498 170Z"/>
</mask>
<path d="M171.498 170C150.326 170 132.829 178.106 130.04 188.627C123.964 186.855 116.944 185.843 109.465 185.843C94.4286 185.843 81.2458 189.933 73.8682 196.071C71.9025 195.925 69.8927 195.849 67.8486 195.849C44.7364 195.849 26 205.509 26 217.425C26.0003 228.491 42.1594 237.608 62.9756 238.853V239H209.42V238.979C209.994 238.992 210.571 239 211.151 239C234.263 239 253 229.34 253 217.425C253 205.745 234.999 196.234 212.52 195.861C213.061 194.476 213.346 193.043 213.346 191.575C213.345 179.66 194.61 170 171.498 170Z" fill="white"/>
<path d="M171.498 170L171.498 162L171.498 162L171.498 170ZM130.04 188.627L137.773 190.677L135.672 198.603L127.8 196.307L130.04 188.627ZM109.465 185.843L109.465 177.843H109.465V185.843ZM73.8682 196.071L78.9849 202.221L76.4996 204.289L73.2756 204.049L73.8682 196.071ZM67.8486 195.849L67.8486 187.849L67.8487 187.849L67.8486 195.849ZM26 217.425L18 217.425V217.425H26ZM62.9756 238.853L63.453 230.867L70.9756 231.317V238.853H62.9756ZM62.9756 239V247H54.9756V239H62.9756ZM209.42 239H217.42V247H209.42V239ZM209.42 238.979H201.42V230.81L209.588 230.981L209.42 238.979ZM211.151 239L211.151 247L211.151 247L211.151 239ZM253 217.425L261 217.425L261 217.425L253 217.425ZM212.52 195.861L212.387 203.86L200.877 203.67L205.069 192.948L212.52 195.861ZM213.346 191.575L221.346 191.575V191.575H213.346ZM171.498 170V178C161.858 178 153.348 179.857 147.179 182.654C140.677 185.603 138.258 188.848 137.773 190.677L130.04 188.627L122.307 186.577C124.611 177.886 132.335 171.817 140.572 168.082C149.142 164.196 159.967 162 171.498 162V170ZM130.04 188.627L127.8 196.307C122.505 194.763 116.242 193.843 109.465 193.843V185.843V177.843C117.645 177.843 125.424 178.947 132.28 180.947L130.04 188.627ZM109.465 185.843L109.465 193.843C95.5421 193.843 84.4355 197.686 78.9849 202.221L73.8682 196.071L68.7515 189.922C78.0562 182.18 93.3152 177.843 109.465 177.843L109.465 185.843ZM73.8682 196.071L73.2756 204.049C71.5051 203.918 69.693 203.849 67.8486 203.849L67.8486 195.849L67.8487 187.849C70.0925 187.849 72.2999 187.933 74.4607 188.093L73.8682 196.071ZM67.8486 195.849V203.849C57.3 203.849 48.1464 206.07 41.9233 209.279C35.2887 212.7 34 216.001 34 217.425H26H18C18 206.933 26.0795 199.446 34.5912 195.058C43.5144 190.457 55.2851 187.849 67.8486 187.849V195.849ZM26 217.425L34 217.425C34 218.738 35.0523 221.657 40.6689 224.886C46.0018 227.952 53.9762 230.3 63.453 230.867L62.9756 238.853L62.4981 246.838C51.1587 246.16 40.6456 243.328 32.6948 238.757C25.0277 234.35 18.0003 227.178 18 217.425L26 217.425ZM62.9756 238.853H70.9756V239H62.9756H54.9756V238.853H62.9756ZM62.9756 239V231H209.42V239V247H62.9756V239ZM209.42 239H201.42V238.979H209.42H217.42V239H209.42ZM209.42 238.979L209.588 230.981C210.13 230.993 210.647 231 211.151 231L211.151 239L211.151 247C210.496 247 209.858 246.99 209.252 246.978L209.42 238.979ZM211.151 239V231C221.7 231 230.854 228.778 237.077 225.57C243.711 222.15 245 218.848 245 217.425L253 217.425L261 217.425C261 227.917 252.92 235.403 244.408 239.791C235.485 244.392 223.715 247 211.151 247V239ZM253 217.425H245C245 216.032 243.781 212.839 237.436 209.467C231.464 206.294 222.641 204.03 212.387 203.86L212.52 195.861L212.652 187.862C224.877 188.065 236.294 190.742 244.943 195.338C253.218 199.735 261 207.137 261 217.425H253ZM212.52 195.861L205.069 192.948C205.269 192.435 205.346 191.987 205.346 191.575H213.346H221.346C221.346 194.098 220.853 196.517 219.97 198.774L212.52 195.861ZM213.346 191.575L205.346 191.575C205.346 190.151 204.057 186.85 197.423 183.43C191.2 180.222 182.047 178 171.498 178L171.498 170L171.498 162C184.061 162 195.832 164.608 204.755 169.209C213.266 173.597 221.345 181.083 221.346 191.575L213.346 191.575Z" fill="black" mask="url(#path-7-inside-3_249_1478)"/>
<mask id="path-9-inside-4_249_1478" fill="white">
<path d="M27.502 19C48.6736 19 66.1706 27.1064 68.96 37.627C75.0357 35.8549 82.0564 34.8428 89.5352 34.8428C104.571 34.8428 117.754 38.933 125.132 45.0713C127.098 44.9253 129.107 44.8486 131.151 44.8486C154.264 44.8486 173 54.509 173 66.4248C173 77.4907 156.841 86.608 136.024 87.8525V88H-10.4199V87.9795C-10.9942 87.9915 -11.5714 88 -12.1514 88C-35.2633 88 -53.9997 78.3405 -54 66.4248C-54 54.7449 -35.9986 45.2335 -13.5195 44.8613C-14.0611 43.4761 -14.3457 42.0427 -14.3457 40.5752C-14.3454 28.6595 4.39006 19.0001 27.502 19Z"/>
</mask>
<path d="M27.502 19C48.6736 19 66.1706 27.1064 68.96 37.627C75.0357 35.8549 82.0564 34.8428 89.5352 34.8428C104.571 34.8428 117.754 38.933 125.132 45.0713C127.098 44.9253 129.107 44.8486 131.151 44.8486C154.264 44.8486 173 54.509 173 66.4248C173 77.4907 156.841 86.608 136.024 87.8525V88H-10.4199V87.9795C-10.9942 87.9915 -11.5714 88 -12.1514 88C-35.2633 88 -53.9997 78.3405 -54 66.4248C-54 54.7449 -35.9986 45.2335 -13.5195 44.8613C-14.0611 43.4761 -14.3457 42.0427 -14.3457 40.5752C-14.3454 28.6595 4.39006 19.0001 27.502 19Z" fill="white"/>
<path d="M27.502 19L27.502 11L27.5019 11L27.502 19ZM68.96 37.627L61.2271 39.6772L63.3284 47.6027L71.1999 45.307L68.96 37.627ZM89.5352 34.8428L89.5352 26.8428H89.5352V34.8428ZM125.132 45.0713L120.015 51.221L122.5 53.2888L125.724 53.0493L125.132 45.0713ZM131.151 44.8486L131.151 36.8486L131.151 36.8486L131.151 44.8486ZM173 66.4248L181 66.425V66.4248H173ZM136.024 87.8525L135.547 79.8668L128.024 80.3166V87.8525H136.024ZM136.024 88V96H144.024V88H136.024ZM-10.4199 88H-18.4199V96H-10.4199V88ZM-10.4199 87.9795H-2.41992V79.8098L-10.5878 79.9813L-10.4199 87.9795ZM-12.1514 88L-12.1514 96L-12.1513 96L-12.1514 88ZM-54 66.4248L-62 66.4248L-62 66.425L-54 66.4248ZM-13.5195 44.8613L-13.3871 52.8602L-1.8773 52.6697L-6.06868 41.9485L-13.5195 44.8613ZM-14.3457 40.5752L-22.3457 40.575V40.5752H-14.3457ZM27.502 19V27C37.1421 27 45.6521 28.8571 51.8205 31.6542C58.3225 34.6026 60.7421 37.8477 61.2271 39.6772L68.96 37.627L76.6928 35.5767C74.3885 26.8857 66.6649 20.8174 58.4282 17.0824C49.8578 13.1961 39.0335 11 27.502 11V19ZM68.96 37.627L71.1999 45.307C76.4953 43.7625 82.7577 42.8428 89.5352 42.8428V34.8428V26.8428C81.3552 26.8428 73.5761 27.9473 66.7201 29.9469L68.96 37.627ZM89.5352 34.8428L89.5351 42.8428C103.458 42.8428 114.565 46.686 120.015 51.221L125.132 45.0713L130.249 38.9215C120.944 31.1799 105.685 26.8428 89.5352 26.8428L89.5352 34.8428ZM125.132 45.0713L125.724 53.0493C127.495 52.9178 129.307 52.8486 131.151 52.8486L131.151 44.8486L131.151 36.8486C128.908 36.8486 126.7 36.9328 124.539 37.0933L125.132 45.0713ZM131.151 44.8486V52.8486C141.7 52.8486 150.854 55.0703 157.077 58.2788C163.711 61.6995 165 65.0008 165 66.4248H173H181C181 55.9329 172.92 48.4462 164.409 44.0577C155.486 39.4571 143.715 36.8486 131.151 36.8486V44.8486ZM173 66.4248L165 66.4246C165 67.7379 163.948 70.6572 158.331 73.886C152.998 76.9517 145.024 79.3002 135.547 79.8668L136.024 87.8525L136.502 95.8383C147.841 95.1603 158.354 92.3279 166.305 87.7573C173.972 83.3498 181 76.1775 181 66.425L173 66.4248ZM136.024 87.8525H128.024V88H136.024H144.024V87.8525H136.024ZM136.024 88V80H-10.4199V88V96H136.024V88ZM-10.4199 88H-2.41992V87.9795H-10.4199H-18.4199V88H-10.4199ZM-10.4199 87.9795L-10.5878 79.9813C-11.1301 79.9926 -11.6471 80 -12.1514 80L-12.1514 88L-12.1513 96C-11.4957 96 -10.8582 95.9905 -10.2521 95.9777L-10.4199 87.9795ZM-12.1514 88V80C-22.7 80 -31.8535 77.7785 -38.0766 74.5701C-44.7112 71.1497 -46 67.8485 -46 66.4246L-54 66.4248L-62 66.425C-61.9997 76.9168 -53.9201 84.4032 -45.4084 88.7914C-36.4853 93.3918 -24.7147 96 -12.1514 96V88ZM-54 66.4248H-46C-46 65.0323 -44.781 61.839 -38.4356 58.4673C-32.4643 55.2944 -23.6414 53.03 -13.3871 52.8602L-13.5195 44.8613L-13.652 36.8624C-25.8767 37.0648 -37.294 39.7422 -45.9433 44.3381C-54.2183 48.7351 -62 56.1375 -62 66.4248H-54ZM-13.5195 44.8613L-6.06868 41.9485C-6.26934 41.4352 -6.3457 40.9874 -6.3457 40.5752H-14.3457H-22.3457C-22.3457 43.0981 -21.8529 45.5169 -20.9704 47.7742L-13.5195 44.8613ZM-14.3457 40.5752L-6.3457 40.5754C-6.34566 39.1514 -5.05693 35.8502 1.57729 32.4298C7.80011 29.2216 16.9534 27 27.502 27L27.502 19L27.5019 11C14.9387 11 3.16825 13.6083 -5.75469 18.2087C-14.2662 22.5969 -22.3454 30.0834 -22.3457 40.575L-14.3457 40.5752Z" fill="black" mask="url(#path-9-inside-4_249_1478)"/>
</g>
<rect x="5" y="5" width="1209" height="575" stroke="black" stroke-width="10"/>
<defs>
<clipPath id="clip0_249_1478">
<rect width="1219" height="585" fill="white"/>
</clipPath>
</defs>
</svg>
