<svg width="876" height="177" viewBox="0 0 876 177" fill="none" xmlns="http://www.w3.org/2000/svg">
<path d="M223.779 153.796L223.022 151.168L241.714 147.285L242.471 149.912L234.634 151.541L240.927 173.372L237.909 173.999L231.616 152.168L223.779 153.796Z" fill="black"/>
<path d="M253.221 171.004L246.968 146.33L250 145.776L252.785 156.764L266.136 154.326L263.352 143.338L266.384 142.784L272.637 167.458L269.605 168.012L266.808 156.976L253.456 159.415L256.253 170.451L253.221 171.004Z" fill="black"/>
<path d="M277.551 166.77L272.078 141.911L287.251 139.503L287.839 142.174L275.711 144.098L277.56 152.498L288.902 150.698L289.49 153.369L278.148 155.168L280.008 163.617L292.332 161.661L292.92 164.332L277.551 166.77Z" fill="black"/>
<path d="M309.863 162.092L305.555 137.005L314.387 135.912C316.147 135.694 317.65 135.816 318.897 136.279C320.142 136.734 321.131 137.433 321.864 138.376C322.596 139.312 323.067 140.392 323.278 141.617C323.463 142.695 323.422 143.609 323.156 144.359C322.899 145.108 322.492 145.725 321.938 146.211C321.391 146.696 320.773 147.081 320.083 147.366L320.125 147.611C320.906 147.565 321.73 147.738 322.595 148.131C323.46 148.525 324.235 149.146 324.918 149.996C325.601 150.845 326.057 151.931 326.284 153.254C326.5 154.512 326.406 155.679 326.003 156.754C325.6 157.83 324.828 158.739 323.687 159.48C322.546 160.222 320.981 160.716 318.991 160.962L309.863 162.092ZM312.459 159.018L318.528 158.267C320.526 158.02 321.879 157.461 322.586 156.589C323.3 155.709 323.562 154.717 323.373 153.614C323.227 152.765 322.874 152.008 322.315 151.343C321.754 150.671 321.034 150.168 320.154 149.835C319.272 149.493 318.28 149.391 317.179 149.527L310.962 150.297L312.459 159.018ZM310.507 147.651L316.181 146.948C317.102 146.834 317.902 146.552 318.58 146.101C319.267 145.649 319.772 145.07 320.096 144.362C320.428 143.654 320.518 142.859 320.366 141.977C320.177 140.874 319.63 139.987 318.725 139.315C317.819 138.635 316.527 138.399 314.85 138.606L309.077 139.321L310.507 147.651Z" fill="black"/>
<path d="M332.066 159.506L328.514 134.3L343.798 132.748L344.179 135.456L331.962 136.697L333.162 145.213L344.588 144.053L344.969 146.761L333.544 147.921L334.751 156.487L347.166 155.226L347.547 157.934L332.066 159.506Z" fill="black"/>
<path d="M364.501 137.465C364.215 136.225 363.505 135.301 362.371 134.693C361.237 134.085 359.902 133.843 358.366 133.965C357.243 134.054 356.28 134.313 355.477 134.743C354.683 135.171 354.085 135.721 353.684 136.393C353.292 137.064 353.14 137.803 353.229 138.61C353.303 139.285 353.529 139.853 353.904 140.314C354.287 140.765 354.753 141.131 355.3 141.412C355.847 141.684 356.412 141.901 356.997 142.062C357.58 142.215 358.114 142.334 358.599 142.421L361.252 142.908C361.932 143.028 362.693 143.208 363.536 143.449C364.388 143.689 365.214 144.043 366.016 144.511C366.825 144.97 367.518 145.588 368.095 146.364C368.672 147.141 369.026 148.122 369.157 149.308C369.308 150.675 369.084 151.939 368.488 153.1C367.899 154.26 366.955 155.22 365.655 155.98C364.364 156.739 362.744 157.196 360.795 157.35C358.977 157.495 357.372 157.328 355.977 156.848C354.591 156.369 353.461 155.636 352.585 154.65C351.718 153.664 351.159 152.483 350.907 151.107L354.079 150.855C354.267 151.804 354.677 152.569 355.307 153.151C355.945 153.723 356.715 154.127 357.616 154.363C358.524 154.59 359.482 154.663 360.49 154.583C361.662 154.49 362.695 154.217 363.586 153.764C364.477 153.302 365.157 152.708 365.627 151.981C366.096 151.246 366.279 150.418 366.178 149.495C366.085 148.655 365.774 147.99 365.245 147.5C364.717 147.011 364.05 146.632 363.245 146.363C362.441 146.095 361.579 145.873 360.66 145.696L357.439 145.055C355.394 144.644 353.735 143.958 352.463 142.995C351.19 142.033 350.46 140.699 350.272 138.995C350.116 137.578 350.363 136.312 351.015 135.197C351.675 134.073 352.625 133.166 353.865 132.478C355.113 131.781 356.547 131.368 358.166 131.239C359.801 131.109 361.287 131.286 362.624 131.769C363.959 132.245 365.054 132.955 365.908 133.901C366.771 134.846 367.293 135.955 367.475 137.229L364.501 137.465Z" fill="black"/>
<path d="M371.857 133.339L371.643 130.613L390.703 129.533L390.917 132.259L382.926 132.712L384.707 155.362L381.63 155.536L379.849 132.886L371.857 133.339Z" fill="black"/>
<path d="M422.71 134.983C422.523 133.727 421.888 132.763 420.807 132.09C419.726 131.418 418.414 131.098 416.874 131.132C415.747 131.157 414.767 131.36 413.933 131.743C413.107 132.126 412.468 132.641 412.015 133.289C411.57 133.937 411.36 134.667 411.385 135.479C411.406 136.158 411.585 136.738 411.923 137.22C412.269 137.693 412.703 138.085 413.227 138.397C413.75 138.701 414.296 138.95 414.866 139.145C415.435 139.331 415.958 139.481 416.434 139.595L419.039 140.234C419.707 140.394 420.452 140.618 421.273 140.907C422.102 141.195 422.898 141.596 423.66 142.11C424.429 142.615 425.071 143.273 425.584 144.082C426.098 144.891 426.373 145.892 426.409 147.085C426.451 148.46 426.128 149.71 425.441 150.835C424.762 151.961 423.745 152.866 422.39 153.55C421.043 154.234 419.392 154.598 417.437 154.64C415.614 154.68 414.027 154.42 412.676 153.862C411.332 153.302 410.264 152.505 409.47 151.47C408.684 150.435 408.22 149.222 408.079 147.833L411.26 147.764C411.372 148.723 411.719 149.511 412.301 150.128C412.892 150.736 413.627 151.185 414.506 151.472C415.393 151.751 416.342 151.879 417.352 151.857C418.529 151.832 419.579 151.618 420.504 151.217C421.428 150.807 422.153 150.253 422.679 149.553C423.205 148.846 423.453 148.028 423.425 147.1C423.4 146.255 423.143 145.573 422.655 145.053C422.166 144.534 421.532 144.117 420.752 143.802C419.971 143.488 419.13 143.216 418.228 142.987L415.069 142.161C413.064 141.633 411.465 140.851 410.273 139.817C409.081 138.782 408.459 137.407 408.407 135.693C408.364 134.268 408.712 133.018 409.45 131.941C410.196 130.855 411.215 130.004 412.506 129.388C413.805 128.763 415.267 128.432 416.89 128.397C418.53 128.361 419.997 128.623 421.291 129.183C422.584 129.735 423.619 130.508 424.395 131.502C425.18 132.496 425.612 133.635 425.692 134.918L422.71 134.983Z" fill="black"/>
<path d="M431.777 154V128.545H447.139V131.28H434.859V139.881H446.343V142.615H434.859V151.266H447.338V154H431.777Z" fill="black"/>
<path d="M452.557 154.094L453.328 128.651L461.927 128.839C463.915 128.882 465.537 129.257 466.792 129.964C468.047 130.663 468.964 131.607 469.541 132.797C470.119 133.986 470.385 135.33 470.339 136.829C470.294 138.329 469.947 139.651 469.299 140.797C468.651 141.943 467.683 142.834 466.395 143.469C465.108 144.095 463.479 144.387 461.507 144.344L454.548 144.192L454.633 141.409L461.492 141.559C462.851 141.589 463.95 141.414 464.79 141.034C465.639 140.655 466.261 140.105 466.656 139.385C467.059 138.656 467.276 137.782 467.307 136.763C467.338 135.745 467.175 134.85 466.817 134.08C466.459 133.309 465.868 132.708 465.043 132.276C464.219 131.835 463.12 131.6 461.745 131.57L456.327 131.451L455.639 154.161L452.557 154.094ZM464.882 142.926L470.799 154.492L467.22 154.414L461.403 142.85L464.882 142.926Z" fill="black"/>
<path d="M477.562 129.319L483.778 151.044L484.076 151.057L492.958 130.01L496.187 130.155L485.266 155.141L482.088 154.998L474.334 129.174L477.562 129.319Z" fill="black"/>
<path d="M503.484 130.678L501.275 156.037L498.199 155.843L500.408 130.485L503.484 130.678Z" fill="black"/>
<path d="M532.426 140.869L529.354 140.619C529.272 139.723 529.042 138.923 528.663 138.219C528.292 137.516 527.81 136.911 527.218 136.406C526.634 135.893 525.967 135.49 525.216 135.196C524.466 134.902 523.67 134.721 522.828 134.652C521.291 134.527 519.856 134.801 518.522 135.473C517.195 136.146 516.079 137.206 515.174 138.653C514.277 140.1 513.704 141.919 513.457 144.109C513.209 146.299 513.363 148.177 513.92 149.743C514.484 151.31 515.342 152.531 516.494 153.405C517.653 154.281 519.001 154.781 520.537 154.907C521.379 154.975 522.202 154.926 523.004 154.759C523.806 154.591 524.551 154.307 525.238 153.906C525.935 153.498 526.544 152.978 527.065 152.348C527.595 151.709 528.001 150.961 528.281 150.103L531.354 150.354C530.976 151.628 530.424 152.75 529.698 153.721C528.971 154.692 528.113 155.499 527.123 156.141C526.135 156.775 525.054 157.232 523.881 157.51C522.716 157.789 521.493 157.876 520.213 157.772C518.049 157.596 516.185 156.912 514.619 155.721C513.053 154.529 511.897 152.923 511.151 150.901C510.404 148.879 510.182 146.534 510.484 143.867C510.785 141.199 511.529 138.933 512.715 137.069C513.901 135.204 515.396 133.814 517.2 132.897C519.004 131.981 520.988 131.611 523.152 131.787C524.432 131.891 525.612 132.174 526.694 132.637C527.783 133.099 528.742 133.726 529.569 134.516C530.397 135.298 531.059 136.225 531.555 137.295C532.052 138.358 532.342 139.549 532.426 140.869Z" fill="black"/>
<path d="M534.758 158.707L538.422 133.518L553.7 135.119L553.306 137.825L541.094 136.545L539.856 145.056L551.277 146.253L550.884 148.959L539.462 147.762L538.217 156.323L550.628 157.623L550.234 160.329L534.758 158.707Z" fill="black"/>
<path d="M567.27 162.408L572.079 137.412L587.295 139.522L586.779 142.207L574.615 140.521L572.99 148.967L584.366 150.544L583.849 153.229L572.474 151.652L570.839 160.147L583.2 161.861L582.683 164.546L567.27 162.408Z" fill="black"/>
<path d="M594.374 140.619L597.146 162.732L597.44 162.78L609.588 143.077L612.779 143.593L597.983 166.939L594.842 166.432L591.184 140.103L594.374 140.619Z" fill="black"/>
<path d="M610.583 169.034L616.904 144.377L632.01 147.168L631.331 149.816L619.256 147.585L617.12 155.917L628.413 158.003L627.734 160.652L616.441 158.566L614.293 166.945L626.564 169.212L625.885 171.861L610.583 169.034Z" fill="black"/>
<path d="M630.896 172.814L637.947 148.356L646.368 150.105C648.315 150.51 649.819 151.168 650.88 152.081C651.944 152.985 652.613 154.065 652.887 155.32C653.162 156.575 653.091 157.924 652.676 159.365C652.26 160.806 651.592 162.021 650.67 163.011C649.748 164.001 648.575 164.686 647.15 165.065C645.728 165.436 644.051 165.421 642.12 165.02L635.306 163.604L636.077 160.929L642.794 162.324C644.125 162.601 645.25 162.632 646.172 162.419C647.101 162.207 647.85 161.788 648.417 161.163C648.994 160.532 649.424 159.727 649.706 158.748C649.989 157.769 650.049 156.874 649.887 156.064C649.725 155.254 649.291 154.565 648.587 153.996C647.884 153.42 646.86 152.992 645.513 152.712L640.207 151.61L633.914 173.441L630.896 172.814ZM645.795 164.264L648.761 176.526L645.256 175.797L642.387 163.556L645.795 164.264Z" fill="black"/>
<path d="M70.7996 142.133C61.5526 144.16 53.0199 144.154 45.2018 142.114C37.463 140.125 30.9587 136.296 25.689 130.626C20.4701 124.877 16.9041 117.64 14.9911 108.914C13.1066 100.318 13.2484 92.4039 15.4167 85.1718C17.5849 77.9397 21.6809 71.7182 27.7048 66.5073C33.7937 61.2821 41.6865 57.436 51.3832 54.9689C55.9781 53.8251 60.7707 53.1156 65.7609 52.8406C70.7511 52.5656 75.1687 52.7915 79.0135 53.5183L81.2268 79.9577C75.1188 79.181 68.9716 79.4708 62.7852 80.8271C58.5523 81.7551 55.0921 83.0938 52.4044 84.8433C47.2895 88.2852 45.5529 93.7505 47.1947 101.239C48.0085 104.951 49.4712 108.043 51.5828 110.515C53.6802 112.921 56.4385 114.296 59.8578 114.638C62.6482 114.914 65.8017 114.666 69.3182 113.895C72.7044 113.153 76.1352 111.991 79.6106 110.41C83.0718 108.764 86.2804 106.901 89.2366 104.819L99.362 129.524C95.9991 132.24 91.827 134.691 86.8458 136.875C81.8789 139.124 76.5302 140.877 70.7996 142.133Z" fill="black"/>
<path d="M166.507 122.367C165.141 116.105 163.235 106.757 160.789 94.3226C155.021 95.4046 150.591 96.1993 147.499 96.7069C145.065 97.1065 141.403 97.6401 136.514 98.3077C138.171 110.872 139.353 120.339 140.061 126.708L113.812 131.017C108.67 114.093 104.71 97.1781 101.935 80.271C100.185 69.6137 98.782 58.5955 97.7247 47.2165L127.328 42.3566C128.985 50.7998 130.671 60.2514 132.389 70.7114C138.025 69.6511 142.323 68.8779 145.283 68.3919C147.717 67.9924 151.248 67.4804 155.874 66.8559C154.157 56.396 152.734 46.9012 151.603 38.3716L181.207 33.5117C183.843 44.6315 186.036 55.5201 187.786 66.1775C190.561 83.0845 192.218 100.378 192.756 118.058L166.507 122.367Z" fill="black"/>
<path d="M254.758 112.891C245.349 113.927 236.868 113.049 229.318 110.258C221.833 107.46 215.772 102.963 211.133 96.7666C206.56 90.5629 203.785 83.0212 202.808 74.1415C201.853 65.4605 202.866 57.6026 205.848 50.5675C208.829 43.5325 213.658 37.7362 220.332 33.1788C227 28.555 235.252 25.5342 245.09 24.1163C249.78 23.466 254.555 23.2759 259.413 23.5461C264.265 23.75 268.56 24.384 272.299 25.448L271.532 50.4821C265.232 49.2975 258.967 49.048 252.738 49.7334C247.37 50.3241 243.276 51.5125 240.454 53.2985C237.817 54.9301 235.712 57.1402 234.141 59.9288C239.877 59.0293 246.357 58.1821 253.58 57.3872C260.207 56.658 266.152 56.1379 271.416 55.8268L273.748 75.188C263.859 76.7457 255.237 77.9293 247.881 78.7387C245.297 79.0231 241.347 79.3907 236.031 79.8416C238.288 82.6784 241.238 84.4999 244.882 85.3062C248.179 86.0165 252.081 86.1236 256.587 85.6278C260.099 85.2413 263.645 84.5493 267.224 83.5518C270.862 82.4808 274.206 81.1738 277.255 79.631L284.54 103.779C280.629 106.02 276.077 107.93 270.885 109.507C265.7 111.151 260.325 112.279 254.758 112.891Z" fill="black"/>
<path d="M340.713 106.004C331.264 106.576 322.835 105.249 315.427 102.024C308.089 98.8619 302.255 94.0722 297.927 87.6554C293.66 81.1679 291.257 73.4657 290.717 64.5487C290.186 55.7648 291.551 47.9681 294.812 41.1586C298.073 34.3492 303.082 28.8364 309.84 24.6205C316.664 20.4005 325.057 17.822 335.019 16.8852C339.735 16.4661 344.58 16.5068 349.553 17.0073C354.525 17.5078 358.855 18.4146 362.541 19.7276L360.636 46.191C354.722 44.4785 348.604 43.8136 342.282 44.1962C337.957 44.458 334.331 45.2452 331.405 46.5577C325.819 49.1666 323.258 54.2974 323.721 61.9501C323.95 65.7431 324.917 69.024 326.621 71.7928C328.32 74.4951 330.833 76.2799 334.158 77.1473C336.872 77.8512 340.026 78.0945 343.619 77.877C347.08 77.6675 350.649 77.0508 354.327 76.0267C358.001 74.9361 361.46 73.5913 364.702 71.9925L370.883 97.9665C367.14 100.13 362.639 101.905 357.38 103.292C352.125 104.746 346.569 105.649 340.713 106.004Z" fill="black"/>
<path d="M429.658 101.334C429.884 97.0654 429.99 94.2642 429.977 92.931C429.931 88.1312 429.33 84.5701 428.174 82.2478C427.019 79.9254 425.17 78.3764 422.63 77.6008C420.089 76.8252 416.419 76.5604 411.621 76.8065L411.659 101.507L384.96 101.764C382.46 84.4536 381.127 67.1323 380.961 49.7997C380.857 39.0002 381.15 27.8969 381.841 16.4897L411.939 16.2006L411.663 49.9049C415.255 49.0037 418.172 47.3756 420.417 45.0206C422.66 42.5989 424.393 39.0821 425.615 34.4701C426.837 29.7915 427.545 23.6511 427.739 16.0489L458.237 15.756C458.388 17.5546 458.479 20.1538 458.512 23.5537C458.71 44.1527 453.234 57.0393 442.083 62.2133C448.159 63.2216 452.85 65.6767 456.154 69.5785C459.524 73.4129 461.238 78.2967 461.295 84.2298C461.346 89.4962 460.133 95.1081 457.657 101.065L429.658 101.334Z" fill="black"/>
<path d="M477.317 101.566C475.641 84.2891 475.133 67.0238 475.791 49.7697C476.144 40.5098 476.971 29.3332 478.271 16.2399L509.249 17.4218C508.222 28.5908 507.499 39.6713 507.08 50.6633C506.752 59.257 506.62 67.9583 506.684 76.7672C520.274 77.2857 531.053 77.1632 539.022 76.3998L538.284 103.591C529.776 104.534 519.359 104.771 507.035 104.301C495.776 103.871 485.87 102.959 477.317 101.566Z" fill="black"/>
<path d="M552.167 105.009C551.472 87.9803 551.758 70.7888 553.025 53.435C553.797 42.8632 554.983 31.6531 556.584 19.8049L586.703 22.0039C586.566 33.959 586.111 45.2224 585.339 55.7943C584.072 73.1481 581.858 90.1988 578.697 106.946L552.167 105.009Z" fill="black"/>
<path d="M631.296 114.034C624.141 113.228 617.381 111.896 611.015 110.039C604.716 108.189 599.098 105.946 594.162 103.311L600.751 76.0771C605.246 78.4618 610.533 80.6672 616.611 82.6935C622.762 84.661 628.025 85.8909 632.397 86.3834C633.788 86.54 634.786 86.6188 635.389 86.6197C636.803 86.5777 637.904 86.3327 638.692 85.8847C639.488 85.3706 639.927 84.7491 640.009 84.0204C640.091 83.2917 639.798 82.6213 639.129 82.0092C638.467 81.3309 637.514 80.8547 636.271 80.5804C627.432 78.6457 620.312 76.3345 614.912 73.6466C609.579 70.9662 605.737 67.5482 603.388 63.3924C601.038 59.2367 600.214 54.0452 600.915 47.8179C601.878 39.2719 605.59 33.1154 612.052 29.3482C618.522 25.5148 627.34 24.0592 638.507 24.9814L642.394 25.3185C649.085 26.072 655.595 27.2413 661.924 28.8262C668.319 30.4186 674.015 32.2676 679.01 34.3732L672.963 61.2654C669.27 59.5077 664.763 57.8261 659.442 56.2206C654.122 54.6151 649.507 53.5922 645.599 53.1521C644.605 53.0401 643.438 52.9758 642.098 52.9591C640.817 53.0161 639.783 53.2685 638.994 53.7165C638.213 54.0981 637.789 54.5871 637.722 55.1833C637.655 55.7795 637.923 56.3799 638.525 56.9845C639.202 57.5303 640.192 57.9772 641.494 58.3252C650.774 60.5108 658.074 63.0101 663.393 65.823C668.777 68.6433 672.557 72.0208 674.73 75.9554C676.969 79.8975 677.772 84.684 677.138 90.3151C676.116 99.3911 671.748 106.01 664.033 110.173C656.319 114.336 645.406 115.623 631.296 114.034Z" fill="black"/>
<path d="M709.143 122.358C710.322 108.228 712.359 92.3817 715.252 74.8185L716.699 66.0368C707.161 64.4655 699.202 63.357 692.822 62.7113L697.305 33.6536C705.778 34.3063 717.678 35.8951 733.005 38.4201C750.568 41.3135 764.964 44.1581 776.192 46.9538L771.117 75.914C766.622 74.9032 758.738 73.3342 747.468 71.2071L746.021 79.9888C743.138 97.4863 739.989 113.116 736.574 126.877L709.143 122.358Z" fill="black"/>
<path d="M808.295 142.893C801.26 141.361 794.671 139.346 788.529 136.849C782.451 134.366 777.092 131.561 772.451 128.435L781.786 102.017C786.013 104.848 791.047 107.581 796.886 110.217C802.805 112.803 807.914 114.563 812.214 115.499C813.581 115.797 814.566 115.978 815.166 116.04C816.577 116.142 817.697 116.011 818.527 115.646C819.371 115.216 819.871 114.642 820.027 113.926C820.183 113.209 819.96 112.513 819.357 111.835C818.768 111.093 817.869 110.522 816.659 110.122C808.064 107.295 801.218 104.269 796.121 101.044C791.089 97.8335 787.616 94.0412 785.703 89.6673C783.79 85.2934 783.5 80.0449 784.833 73.9217C786.663 65.5186 790.984 59.7732 797.797 56.6854C804.624 53.5325 813.545 52.9847 824.56 55.042L828.392 55.7741C834.971 57.2067 841.327 59.0344 847.462 61.2571C853.661 63.494 859.138 65.9148 863.893 68.5194L855.132 94.6537C851.637 92.5282 847.325 90.3953 842.197 88.2551C837.068 86.1148 832.582 84.6263 828.739 83.7894C827.762 83.5766 826.608 83.3935 825.276 83.2401C823.996 83.166 822.941 83.3115 822.111 83.6766C821.295 83.9766 820.823 84.4197 820.696 85.006C820.568 85.5922 820.773 86.2168 821.311 86.8798C821.928 87.4918 822.867 88.0374 824.127 88.5165C833.136 91.6381 840.142 94.8694 845.146 98.2106C850.215 101.566 853.629 105.311 855.39 109.447C857.215 113.597 857.525 118.441 856.319 123.978C854.376 132.902 849.355 139.041 841.256 142.395C833.157 145.748 822.17 145.914 808.295 142.893Z" fill="black"/>
</svg>
