<svg width="1355" height="360" viewBox="0 0 1355 360" fill="none" xmlns="http://www.w3.org/2000/svg">
<mask id="path-1-inside-1_240_1473" fill="white">
<path d="M81.502 0C102.674 0 120.171 8.10644 122.96 18.627C129.036 16.8549 136.056 15.8428 143.535 15.8428C158.571 15.8428 171.754 19.933 179.132 26.0713C181.098 25.9253 183.107 25.8486 185.151 25.8486C208.264 25.8486 227 35.509 227 47.4248C227 58.4907 210.841 67.608 190.024 68.8525V69H43.5801V68.9795C43.0058 68.9915 42.4286 69 41.8486 69C18.7367 69 0.000349909 59.3405 0 47.4248C0 35.7449 18.0014 26.2335 40.4805 25.8613C39.9389 24.4761 39.6543 23.0427 39.6543 21.5752C39.6546 9.65955 58.3901 5.31514e-05 81.502 0Z"/>
</mask>
<path d="M81.502 0C102.674 0 120.171 8.10644 122.96 18.627C129.036 16.8549 136.056 15.8428 143.535 15.8428C158.571 15.8428 171.754 19.933 179.132 26.0713C181.098 25.9253 183.107 25.8486 185.151 25.8486C208.264 25.8486 227 35.509 227 47.4248C227 58.4907 210.841 67.608 190.024 68.8525V69H43.5801V68.9795C43.0058 68.9915 42.4286 69 41.8486 69C18.7367 69 0.000349909 59.3405 0 47.4248C0 35.7449 18.0014 26.2335 40.4805 25.8613C39.9389 24.4761 39.6543 23.0427 39.6543 21.5752C39.6546 9.65955 58.3901 5.31514e-05 81.502 0Z" fill="white"/>
<path d="M81.502 0L81.502 -8L81.5019 -8L81.502 0ZM122.96 18.627L115.227 20.6772L117.328 28.6027L125.2 26.307L122.96 18.627ZM143.535 15.8428L143.535 7.84277H143.535V15.8428ZM179.132 26.0713L174.015 32.221L176.5 34.2888L179.724 34.0493L179.132 26.0713ZM185.151 25.8486L185.151 17.8486L185.151 17.8486L185.151 25.8486ZM227 47.4248L235 47.425V47.4248H227ZM190.024 68.8525L189.547 60.8668L182.024 61.3166V68.8525H190.024ZM190.024 69V77H198.024V69H190.024ZM43.5801 69H35.5801V77H43.5801V69ZM43.5801 68.9795H51.5801V60.8098L43.4122 60.9813L43.5801 68.9795ZM41.8486 69L41.8486 77L41.8487 77L41.8486 69ZM0 47.4248L-8 47.4248L-8 47.425L0 47.4248ZM40.4805 25.8613L40.6129 33.8602L52.1227 33.6697L47.9313 22.9485L40.4805 25.8613ZM39.6543 21.5752L31.6543 21.575V21.5752H39.6543ZM81.502 0V8C91.1421 8 99.6521 9.85713 105.821 12.6542C112.323 15.6026 114.742 18.8477 115.227 20.6772L122.96 18.627L130.693 16.5767C128.389 7.88572 120.665 1.81735 112.428 -1.91764C103.858 -5.80391 93.0335 -8 81.502 -8V0ZM122.96 18.627L125.2 26.307C130.495 24.7625 136.758 23.8428 143.535 23.8428V15.8428V7.84277C135.355 7.84277 127.576 8.94733 120.72 10.9469L122.96 18.627ZM143.535 15.8428L143.535 23.8428C157.458 23.8428 168.565 27.686 174.015 32.221L179.132 26.0713L184.249 19.9215C174.944 12.1799 159.685 7.84285 143.535 7.84277L143.535 15.8428ZM179.132 26.0713L179.724 34.0493C181.495 33.9178 183.307 33.8486 185.151 33.8486L185.151 25.8486L185.151 17.8486C182.908 17.8486 180.7 17.9328 178.539 18.0933L179.132 26.0713ZM185.151 25.8486V33.8486C195.7 33.8486 204.854 36.0703 211.077 39.2788C217.711 42.6995 219 46.0008 219 47.4248H227H235C235 36.9329 226.92 29.4462 218.409 25.0577C209.486 20.4571 197.715 17.8486 185.151 17.8486V25.8486ZM227 47.4248L219 47.4246C219 48.7379 217.948 51.6572 212.331 54.886C206.998 57.9517 199.024 60.3002 189.547 60.8668L190.024 68.8525L190.502 76.8383C201.841 76.1603 212.354 73.3279 220.305 68.7573C227.972 64.3498 235 57.1775 235 47.425L227 47.4248ZM190.024 68.8525H182.024V69H190.024H198.024V68.8525H190.024ZM190.024 69V61H43.5801V69V77H190.024V69ZM43.5801 69H51.5801V68.9795H43.5801H35.5801V69H43.5801ZM43.5801 68.9795L43.4122 60.9813C42.8699 60.9926 42.3529 61 41.8486 61L41.8486 69L41.8487 77C42.5043 77 43.1418 76.9905 43.7479 76.9777L43.5801 68.9795ZM41.8486 69V61C31.3 61 22.1465 58.7785 15.9234 55.5701C9.28877 52.1497 8.00004 48.8485 8 47.4246L0 47.4248L-8 47.425C-7.99969 57.9168 0.0799089 65.4032 8.59155 69.7914C17.5147 74.3918 29.2853 77 41.8486 77V69ZM0 47.4248H8C8 46.0323 9.21896 42.839 15.5644 39.4673C21.5357 36.2944 30.3586 34.03 40.6129 33.8602L40.4805 25.8613L40.348 17.8624C28.1233 18.0648 16.706 20.7422 8.05674 25.3381C-0.218254 29.7351 -8 37.1375 -8 47.4248H0ZM40.4805 25.8613L47.9313 22.9485C47.7307 22.4352 47.6543 21.9874 47.6543 21.5752H39.6543H31.6543C31.6543 24.0981 32.1471 26.5169 33.0296 28.7742L40.4805 25.8613ZM39.6543 21.5752L47.6543 21.5754C47.6543 20.1514 48.9431 16.8502 55.5773 13.4298C61.8001 10.2216 70.9534 8.00002 81.502 8L81.502 0L81.5019 -8C68.9387 -7.99997 57.1683 -5.39173 48.2453 -0.791342C39.7338 3.59694 31.6546 11.0834 31.6543 21.575L39.6543 21.5752Z" fill="black" mask="url(#path-1-inside-1_240_1473)"/>
<mask id="path-3-inside-2_240_1473" fill="white">
<path d="M308.502 291C329.674 291 347.171 299.106 349.96 309.627C356.036 307.855 363.056 306.843 370.535 306.843C385.571 306.843 398.754 310.933 406.132 317.071C408.098 316.925 410.107 316.849 412.151 316.849C435.264 316.849 454 326.509 454 338.425C454 349.491 437.841 358.608 417.024 359.853V360H270.58V359.979C270.006 359.992 269.429 360 268.849 360C245.737 360 227 350.34 227 338.425C227 326.745 245.001 317.234 267.48 316.861C266.939 315.476 266.654 314.043 266.654 312.575C266.655 300.66 285.39 291 308.502 291Z"/>
</mask>
<path d="M308.502 291C329.674 291 347.171 299.106 349.96 309.627C356.036 307.855 363.056 306.843 370.535 306.843C385.571 306.843 398.754 310.933 406.132 317.071C408.098 316.925 410.107 316.849 412.151 316.849C435.264 316.849 454 326.509 454 338.425C454 349.491 437.841 358.608 417.024 359.853V360H270.58V359.979C270.006 359.992 269.429 360 268.849 360C245.737 360 227 350.34 227 338.425C227 326.745 245.001 317.234 267.48 316.861C266.939 315.476 266.654 314.043 266.654 312.575C266.655 300.66 285.39 291 308.502 291Z" fill="white"/>
<path d="M308.502 291L308.502 283L308.502 283L308.502 291ZM349.96 309.627L342.227 311.677L344.328 319.603L352.2 317.307L349.96 309.627ZM370.535 306.843L370.535 298.843H370.535V306.843ZM406.132 317.071L401.015 323.221L403.5 325.289L406.724 325.049L406.132 317.071ZM412.151 316.849L412.151 308.849L412.151 308.849L412.151 316.849ZM454 338.425L462 338.425V338.425H454ZM417.024 359.853L416.547 351.867L409.024 352.317V359.853H417.024ZM417.024 360V368H425.024V360H417.024ZM270.58 360H262.58V368H270.58V360ZM270.58 359.979H278.58V351.81L270.412 351.981L270.58 359.979ZM268.849 360L268.849 368L268.849 368L268.849 360ZM227 338.425L219 338.425L219 338.425L227 338.425ZM267.48 316.861L267.613 324.86L279.123 324.67L274.931 313.948L267.48 316.861ZM266.654 312.575L258.654 312.575V312.575H266.654ZM308.502 291V299C318.142 299 326.652 300.857 332.821 303.654C339.323 306.603 341.742 309.848 342.227 311.677L349.96 309.627L357.693 307.577C355.389 298.886 347.665 292.817 339.428 289.082C330.858 285.196 320.033 283 308.502 283V291ZM349.96 309.627L352.2 317.307C357.495 315.763 363.758 314.843 370.535 314.843V306.843V298.843C362.355 298.843 354.576 299.947 347.72 301.947L349.96 309.627ZM370.535 306.843L370.535 314.843C384.458 314.843 395.565 318.686 401.015 323.221L406.132 317.071L411.249 310.922C401.944 303.18 386.685 298.843 370.535 298.843L370.535 306.843ZM406.132 317.071L406.724 325.049C408.495 324.918 410.307 324.849 412.151 324.849L412.151 316.849L412.151 308.849C409.908 308.849 407.7 308.933 405.539 309.093L406.132 317.071ZM412.151 316.849V324.849C422.7 324.849 431.854 327.07 438.077 330.279C444.711 333.7 446 337.001 446 338.425H454H462C462 327.933 453.92 320.446 445.409 316.058C436.486 311.457 424.715 308.849 412.151 308.849V316.849ZM454 338.425L446 338.425C446 339.738 444.948 342.657 439.331 345.886C433.998 348.952 426.024 351.3 416.547 351.867L417.024 359.853L417.502 367.838C428.841 367.16 439.354 364.328 447.305 359.757C454.972 355.35 462 348.178 462 338.425L454 338.425ZM417.024 359.853H409.024V360H417.024H425.024V359.853H417.024ZM417.024 360V352H270.58V360V368H417.024V360ZM270.58 360H278.58V359.979H270.58H262.58V360H270.58ZM270.58 359.979L270.412 351.981C269.87 351.993 269.353 352 268.849 352L268.849 360L268.849 368C269.504 368 270.142 367.99 270.748 367.978L270.58 359.979ZM268.849 360V352C258.3 352 249.146 349.778 242.923 346.57C236.289 343.15 235 339.848 235 338.425L227 338.425L219 338.425C219 348.917 227.08 356.403 235.592 360.791C244.515 365.392 256.285 368 268.849 368V360ZM227 338.425H235C235 337.032 236.219 333.839 242.564 330.467C248.536 327.294 257.359 325.03 267.613 324.86L267.48 316.861L267.348 308.862C255.123 309.065 243.706 311.742 235.057 316.338C226.782 320.735 219 328.137 219 338.425H227ZM267.48 316.861L274.931 313.948C274.731 313.435 274.654 312.987 274.654 312.575H266.654H258.654C258.654 315.098 259.147 317.517 260.03 319.774L267.48 316.861ZM266.654 312.575L274.654 312.575C274.654 311.151 275.943 307.85 282.577 304.43C288.8 301.222 297.953 299 308.502 299L308.502 291L308.502 283C295.939 283 284.168 285.608 275.245 290.209C266.734 294.597 258.655 302.083 258.654 312.575L266.654 312.575Z" fill="black" mask="url(#path-3-inside-2_240_1473)"/>
<mask id="path-5-inside-3_240_1473" fill="white">
<path d="M1273.5 256C1252.33 256 1234.83 264.106 1232.04 274.627C1225.96 272.855 1218.94 271.843 1211.46 271.843C1196.43 271.843 1183.25 275.933 1175.87 282.071C1173.9 281.925 1171.89 281.849 1169.85 281.849C1146.74 281.849 1128 291.509 1128 303.425C1128 314.491 1144.16 323.608 1164.98 324.853V325H1311.42V324.979C1311.99 324.992 1312.57 325 1313.15 325C1336.26 325 1355 315.34 1355 303.425C1355 291.745 1337 282.234 1314.52 281.861C1315.06 280.476 1315.35 279.043 1315.35 277.575C1315.35 265.66 1296.61 256 1273.5 256Z"/>
</mask>
<path d="M1273.5 256C1252.33 256 1234.83 264.106 1232.04 274.627C1225.96 272.855 1218.94 271.843 1211.46 271.843C1196.43 271.843 1183.25 275.933 1175.87 282.071C1173.9 281.925 1171.89 281.849 1169.85 281.849C1146.74 281.849 1128 291.509 1128 303.425C1128 314.491 1144.16 323.608 1164.98 324.853V325H1311.42V324.979C1311.99 324.992 1312.57 325 1313.15 325C1336.26 325 1355 315.34 1355 303.425C1355 291.745 1337 282.234 1314.52 281.861C1315.06 280.476 1315.35 279.043 1315.35 277.575C1315.35 265.66 1296.61 256 1273.5 256Z" fill="white"/>
<path d="M1273.5 256L1273.5 248L1273.5 248L1273.5 256ZM1232.04 274.627L1239.77 276.677L1237.67 284.603L1229.8 282.307L1232.04 274.627ZM1211.46 271.843L1211.46 263.843H1211.46V271.843ZM1175.87 282.071L1180.98 288.221L1178.5 290.289L1175.28 290.049L1175.87 282.071ZM1169.85 281.849L1169.85 273.849L1169.85 273.849L1169.85 281.849ZM1128 303.425L1120 303.425V303.425H1128ZM1164.98 324.853L1165.45 316.867L1172.98 317.317V324.853H1164.98ZM1164.98 325V333H1156.98V325H1164.98ZM1311.42 325H1319.42V333H1311.42V325ZM1311.42 324.979H1303.42V316.81L1311.59 316.981L1311.42 324.979ZM1313.15 325L1313.15 333L1313.15 333L1313.15 325ZM1355 303.425L1363 303.425L1363 303.425L1355 303.425ZM1314.52 281.861L1314.39 289.86L1302.88 289.67L1307.07 278.948L1314.52 281.861ZM1315.35 277.575L1323.35 277.575V277.575H1315.35ZM1273.5 256V264C1263.86 264 1255.35 265.857 1249.18 268.654C1242.68 271.603 1240.26 274.848 1239.77 276.677L1232.04 274.627L1224.31 272.577C1226.61 263.886 1234.34 257.817 1242.57 254.082C1251.14 250.196 1261.97 248 1273.5 248V256ZM1232.04 274.627L1229.8 282.307C1224.5 280.763 1218.24 279.843 1211.46 279.843V271.843V263.843C1219.64 263.843 1227.42 264.947 1234.28 266.947L1232.04 274.627ZM1211.46 271.843L1211.46 279.843C1197.54 279.843 1186.44 283.686 1180.98 288.221L1175.87 282.071L1170.75 275.922C1180.06 268.18 1195.32 263.843 1211.46 263.843L1211.46 271.843ZM1175.87 282.071L1175.28 290.049C1173.51 289.918 1171.69 289.849 1169.85 289.849L1169.85 281.849L1169.85 273.849C1172.09 273.849 1174.3 273.933 1176.46 274.093L1175.87 282.071ZM1169.85 281.849V289.849C1159.3 289.849 1150.15 292.07 1143.92 295.279C1137.29 298.7 1136 302.001 1136 303.425H1128H1120C1120 292.933 1128.08 285.446 1136.59 281.058C1145.51 276.457 1157.29 273.849 1169.85 273.849V281.849ZM1128 303.425L1136 303.425C1136 304.738 1137.05 307.657 1142.67 310.886C1148 313.952 1155.98 316.3 1165.45 316.867L1164.98 324.853L1164.5 332.838C1153.16 332.16 1142.65 329.328 1134.69 324.757C1127.03 320.35 1120 313.178 1120 303.425L1128 303.425ZM1164.98 324.853H1172.98V325H1164.98H1156.98V324.853H1164.98ZM1164.98 325V317H1311.42V325V333H1164.98V325ZM1311.42 325H1303.42V324.979H1311.42H1319.42V325H1311.42ZM1311.42 324.979L1311.59 316.981C1312.13 316.993 1312.65 317 1313.15 317L1313.15 325L1313.15 333C1312.5 333 1311.86 332.99 1311.25 332.978L1311.42 324.979ZM1313.15 325V317C1323.7 317 1332.85 314.778 1339.08 311.57C1345.71 308.15 1347 304.848 1347 303.425L1355 303.425L1363 303.425C1363 313.917 1354.92 321.403 1346.41 325.791C1337.49 330.392 1325.71 333 1313.15 333V325ZM1355 303.425H1347C1347 302.032 1345.78 298.839 1339.44 295.467C1333.46 292.294 1324.64 290.03 1314.39 289.86L1314.52 281.861L1314.65 273.862C1326.88 274.065 1338.29 276.742 1346.94 281.338C1355.22 285.735 1363 293.137 1363 303.425H1355ZM1314.52 281.861L1307.07 278.948C1307.27 278.435 1307.35 277.987 1307.35 277.575H1315.35H1323.35C1323.35 280.098 1322.85 282.517 1321.97 284.774L1314.52 281.861ZM1315.35 277.575L1307.35 277.575C1307.35 276.151 1306.06 272.85 1299.42 269.43C1293.2 266.222 1284.05 264 1273.5 264L1273.5 256L1273.5 248C1286.06 248 1297.83 250.608 1306.75 255.209C1315.27 259.597 1323.35 267.083 1323.35 277.575L1315.35 277.575Z" fill="black" mask="url(#path-5-inside-3_240_1473)"/>
</svg>
