<svg width="227" height="69" viewBox="0 0 227 69" fill="none" xmlns="http://www.w3.org/2000/svg">
<mask id="path-1-inside-1_95_616" fill="white">
<path d="M81.502 0C102.674 0 120.171 8.10644 122.96 18.627C129.036 16.8549 136.056 15.8428 143.535 15.8428C158.571 15.8428 171.754 19.933 179.132 26.0713C181.098 25.9253 183.107 25.8486 185.151 25.8486C208.264 25.8486 227 35.509 227 47.4248C227 58.4907 210.841 67.608 190.024 68.8525V69H43.5801V68.9795C43.0058 68.9915 42.4286 69 41.8486 69C18.7367 69 0.000349909 59.3405 0 47.4248C0 35.7449 18.0014 26.2335 40.4805 25.8613C39.9389 24.4761 39.6543 23.0427 39.6543 21.5752C39.6546 9.65955 58.3901 5.31514e-05 81.502 0Z"/>
</mask>
<path d="M81.502 0C102.674 0 120.171 8.10644 122.96 18.627C129.036 16.8549 136.056 15.8428 143.535 15.8428C158.571 15.8428 171.754 19.933 179.132 26.0713C181.098 25.9253 183.107 25.8486 185.151 25.8486C208.264 25.8486 227 35.509 227 47.4248C227 58.4907 210.841 67.608 190.024 68.8525V69H43.5801V68.9795C43.0058 68.9915 42.4286 69 41.8486 69C18.7367 69 0.000349909 59.3405 0 47.4248C0 35.7449 18.0014 26.2335 40.4805 25.8613C39.9389 24.4761 39.6543 23.0427 39.6543 21.5752C39.6546 9.65955 58.3901 5.31514e-05 81.502 0Z" fill="white"/>
<path d="M81.502 0V-8H81.5019L81.502 0ZM122.96 18.627L115.227 20.6772L117.328 28.6027L125.2 26.307L122.96 18.627ZM143.535 15.8428L143.535 7.84277H143.535V15.8428ZM179.132 26.0713L174.015 32.221L176.5 34.2888L179.724 34.0493L179.132 26.0713ZM185.151 25.8486V17.8486H185.151L185.151 25.8486ZM227 47.4248L235 47.425V47.4248H227ZM190.024 68.8525L189.547 60.8668L182.024 61.3166V68.8525H190.024ZM190.024 69V77H198.024V69H190.024ZM43.5801 69H35.5801V77H43.5801V69ZM43.5801 68.9795H51.5801V60.8098L43.4122 60.9813L43.5801 68.9795ZM41.8486 69V77H41.8487L41.8486 69ZM0 47.4248H-8V47.425L0 47.4248ZM40.4805 25.8613L40.6129 33.8602L52.1227 33.6697L47.9313 22.9485L40.4805 25.8613ZM39.6543 21.5752L31.6543 21.575V21.5752H39.6543ZM81.502 0V8C91.1421 8 99.6521 9.85713 105.821 12.6542C112.323 15.6026 114.742 18.8477 115.227 20.6772L122.96 18.627L130.693 16.5767C128.389 7.88572 120.665 1.81735 112.428 -1.91764C103.858 -5.80391 93.0335 -8 81.502 -8V0ZM122.96 18.627L125.2 26.307C130.495 24.7625 136.758 23.8428 143.535 23.8428V15.8428V7.84277C135.355 7.84277 127.576 8.94733 120.72 10.9469L122.96 18.627ZM143.535 15.8428L143.535 23.8428C157.458 23.8428 168.565 27.686 174.015 32.221L179.132 26.0713L184.249 19.9215C174.944 12.1799 159.685 7.84285 143.535 7.84277L143.535 15.8428ZM179.132 26.0713L179.724 34.0493C181.495 33.9178 183.307 33.8486 185.151 33.8486L185.151 25.8486L185.151 17.8486C182.908 17.8486 180.7 17.9328 178.539 18.0933L179.132 26.0713ZM185.151 25.8486V33.8486C195.7 33.8486 204.854 36.0703 211.077 39.2788C217.711 42.6995 219 46.0008 219 47.4248H227H235C235 36.9329 226.92 29.4462 218.409 25.0577C209.486 20.4571 197.715 17.8486 185.151 17.8486V25.8486ZM227 47.4248L219 47.4246C219 48.7379 217.948 51.6572 212.331 54.886C206.998 57.9517 199.024 60.3002 189.547 60.8668L190.024 68.8525L190.502 76.8383C201.841 76.1603 212.354 73.3279 220.305 68.7573C227.972 64.3498 235 57.1775 235 47.425L227 47.4248ZM190.024 68.8525H182.024V69H190.024H198.024V68.8525H190.024ZM190.024 69V61H43.5801V69V77H190.024V69ZM43.5801 69H51.5801V68.9795H43.5801H35.5801V69H43.5801ZM43.5801 68.9795L43.4122 60.9813C42.8699 60.9926 42.3529 61 41.8486 61L41.8486 69L41.8487 77C42.5043 77 43.1418 76.9905 43.7479 76.9777L43.5801 68.9795ZM41.8486 69V61C31.3 61 22.1465 58.7785 15.9234 55.5701C9.28877 52.1497 8.00004 48.8485 8 47.4246L0 47.4248L-8 47.425C-7.99969 57.9168 0.0799089 65.4032 8.59155 69.7914C17.5147 74.3918 29.2853 77 41.8486 77V69ZM0 47.4248H8C8 46.0323 9.21896 42.839 15.5644 39.4673C21.5357 36.2944 30.3586 34.03 40.6129 33.8602L40.4805 25.8613L40.348 17.8624C28.1233 18.0648 16.706 20.7422 8.05674 25.3381C-0.218254 29.7351 -8 37.1375 -8 47.4248H0ZM40.4805 25.8613L47.9313 22.9485C47.7307 22.4352 47.6543 21.9874 47.6543 21.5752H39.6543H31.6543C31.6543 24.0981 32.1471 26.5169 33.0296 28.7742L40.4805 25.8613ZM39.6543 21.5752L47.6543 21.5754C47.6543 20.1514 48.9431 16.8502 55.5773 13.4298C61.8001 10.2216 70.9534 8.00002 81.502 8L81.502 0L81.5019 -8C68.9387 -7.99997 57.1683 -5.39173 48.2453 -0.791342C39.7338 3.59694 31.6546 11.0834 31.6543 21.575L39.6543 21.5752Z" fill="black" mask="url(#path-1-inside-1_95_616)"/>
</svg>
