<?xml version="1.0" encoding="UTF-8"?>
<svg version="1.1" xmlns="http://www.w3.org/2000/svg" width="734" height="553">
<path d="M0 0 C2.44917551 1.22458775 3.44534369 2.62281836 4.875 4.9375 C7.08344113 11.56282339 6.68042958 16.85959142 3.56835938 23.19165039 C2.12831293 25.95954549 0.6550152 28.70889938 -0.82324219 31.45654297 C-3.36610252 36.30285704 -5.70243267 41.25035209 -8.0625 46.1875 C-8.5469458 47.1880542 -9.0313916 48.1886084 -9.53051758 49.21948242 C-10.20957153 50.6345105 -10.20957153 50.6345105 -10.90234375 52.078125 C-11.30702881 52.91891602 -11.71171387 53.75970703 -12.12866211 54.62597656 C-13.05401224 56.77280699 -13.79857452 58.62322706 -14.125 60.9375 C-12.9837189 63.27904313 -11.81494497 65.36950555 -10.4375 67.5625 C-1.89673661 81.88154561 1.34143409 96.14284902 1.27905273 112.84912109 C1.28591599 114.16170395 1.29277924 115.4742868 1.29985046 116.8266449 C1.31758548 120.38263474 1.31665109 123.93837521 1.31090808 127.49439573 C1.30778715 130.48345747 1.3139406 133.47247328 1.31994683 136.46152842 C1.33392617 143.52354589 1.33248635 150.58544221 1.32104492 157.64746094 C1.30957249 164.88777714 1.3236396 172.12772252 1.3504414 179.3679899 C1.37272614 185.62667075 1.3792072 191.88523629 1.37336498 198.14395392 C1.37002423 201.86335689 1.37221505 205.58252244 1.38961601 209.30189133 C1.51526464 238.98010294 1.51526464 238.98010294 -3.125 251.9375 C-3.52364761 253.05256927 -3.92229523 254.16763855 -4.33302307 255.3164978 C-12.90919054 278.0948877 -30.50239992 294.88004467 -52.15039062 305.05078125 C-72.86564637 314.35318096 -96.48576597 314.39616895 -117.8125 307.125 C-119.59349175 306.42100916 -121.36449601 305.69126417 -123.125 304.9375 C-124.06601562 304.54046875 -125.00703125 304.1434375 -125.9765625 303.734375 C-146.88829971 294.13373576 -162.66519317 276.1359177 -171.125 254.9375 C-173.84861336 247.07024738 -176.23643921 239.52935621 -176.27217102 231.16018677 C-176.27932632 230.00542343 -176.28648163 228.8506601 -176.29385376 227.66090393 C-176.29654266 226.40269333 -176.29923157 225.14448273 -176.30200195 223.84814453 C-176.30827255 222.50230232 -176.31491987 221.15646181 -176.32191467 219.81062317 C-176.34290034 215.3971984 -176.35331729 210.98377354 -176.36328125 206.5703125 C-176.36733195 205.04483905 -176.37144897 203.51936577 -176.37563133 201.99389267 C-176.39467712 194.81938452 -176.40890504 187.64488657 -176.4172433 180.47035801 C-176.4269901 172.22232258 -176.45324487 163.97455735 -176.49374419 155.72661698 C-176.52405407 149.33142802 -176.53872647 142.93631582 -176.54202431 136.54105651 C-176.54435942 132.73153473 -176.5531153 128.92230173 -176.57848549 125.11285782 C-176.60203097 121.51924959 -176.60589535 117.92611479 -176.59572411 114.33244896 C-176.59500463 112.41138478 -176.61391163 110.49034319 -176.63378906 108.56938171 C-176.49443685 84.82907938 -165.44193243 64.11738534 -149.47265625 47.11328125 C-147.125 44.9375 -147.125 44.9375 -145.125 44.9375 C-145.125 44.2775 -145.125 43.6175 -145.125 42.9375 C-142.95105158 41.2446214 -140.79447333 39.70251244 -138.5 38.1875 C-137.82356445 37.74011475 -137.14712891 37.29272949 -136.45019531 36.83178711 C-116.78731679 24.1707782 -92.69193632 19.50846346 -69.6875 24.125 C-67.48863873 24.68641139 -65.30026331 25.29065911 -63.125 25.9375 C-61.96742188 26.2778125 -60.80984375 26.618125 -59.6171875 26.96875 C-51.87103838 29.48837653 -45.42201691 32.90983397 -38.671875 37.36328125 C-36.34047738 39.11275687 -36.34047738 39.11275687 -34.125 38.9375 C-33.66351562 38.07769531 -33.20203125 37.21789062 -32.7265625 36.33203125 C-12.6345537 -0.37160452 -12.6345537 -0.37160452 0 0 Z M-127.25 73.5 C-138.85610314 85.67110614 -142.59495996 100.30304411 -142.52905273 116.73583984 C-142.53591599 117.95380753 -142.54277924 119.17177521 -142.54985046 120.426651 C-142.56489228 123.7306073 -142.56664667 127.03420464 -142.56090808 130.33818007 C-142.5577904 133.11359314 -142.5639371 135.8889566 -142.56994683 138.66436255 C-142.5839338 145.22094619 -142.58248004 151.77739937 -142.57104492 158.33398438 C-142.55957286 165.05966762 -142.5736371 171.78495166 -142.6004414 178.51058233 C-142.62271575 184.32078969 -142.62920947 190.13087283 -142.62336498 195.94111979 C-142.62002163 199.39557064 -142.6222328 202.8497659 -142.63961601 206.30418015 C-142.72623253 228.58217826 -141.4697327 245.66185867 -125.609375 262.61328125 C-114.03743445 273.43923192 -99.27505022 278.33499346 -83.54296875 277.8203125 C-67.48167763 276.05375074 -54.4006194 268.61519308 -43.98046875 256.46875 C-34.95790412 244.16007236 -32.96421483 231.63955072 -33.01147461 216.85180664 C-33.01132858 215.65109528 -33.01118256 214.45038391 -33.0110321 213.21328735 C-33.01160725 209.93899561 -33.01660464 206.66474722 -33.02360606 203.39046407 C-33.02987934 199.96184431 -33.03044654 196.53322361 -33.03163147 193.104599 C-33.0347331 186.62016037 -33.04293068 180.1357387 -33.05298096 173.65130752 C-33.06417845 166.26555652 -33.0696617 158.87980467 -33.07467639 151.49404728 C-33.08511431 136.30852209 -33.10269105 121.12301275 -33.125 105.9375 C-33.785 105.6075 -34.445 105.2775 -35.125 104.9375 C-49.21451947 142.54125033 -62.87972693 180.20887705 -74.30786133 218.71850586 C-74.54340729 219.50384201 -74.77895325 220.28917816 -75.02163696 221.09831238 C-75.45794304 222.55424786 -75.88878302 224.01183832 -76.31283569 225.47138977 C-77.47760926 229.34425437 -78.98353286 232.52076843 -81.125 235.9375 C-81.125 236.5975 -81.125 237.2575 -81.125 237.9375 C-81.785 237.9375 -82.445 237.9375 -83.125 237.9375 C-83.125 238.5975 -83.125 239.2575 -83.125 239.9375 C-84.66018582 240.15594541 -86.20461291 240.30985741 -87.75 240.4375 C-88.60851562 240.5303125 -89.46703125 240.623125 -90.3515625 240.71875 C-94.16548915 239.64440446 -95.44800111 237.83935838 -97.65625 234.62207031 C-100.33677079 229.72263437 -101.9662231 224.44694111 -103.64920044 219.14361572 C-104.79092456 215.5614333 -105.99213486 211.99942958 -107.1953125 208.4375 C-107.43788284 207.71837433 -107.68045319 206.99924866 -107.93037415 206.2583313 C-114.25324118 187.69617864 -122.0435674 168.89049071 -133.3515625 152.76171875 C-136.2351234 148.16961626 -136.82279326 143.19181017 -135.68359375 137.87890625 C-134.10700339 133.68968043 -131.98421317 131.1187944 -128.125 128.9375 C-123.57898459 127.62154817 -119.65153693 127.26835737 -115.375 129.5 C-105.63186024 136.07774182 -101.03030063 147.98985163 -96.8125 158.4375 C-96.35810547 159.54609375 -95.90371094 160.6546875 -95.43554688 161.796875 C-94.32546294 164.50781683 -93.22214694 167.22130275 -92.125 169.9375 C-90.22202751 167.08304126 -89.0863497 164.56177755 -87.83203125 161.3828125 C-87.37441406 160.22942383 -86.91679688 159.07603516 -86.4453125 157.88769531 C-86.07841309 156.95648865 -86.07841309 156.95648865 -85.70410156 156.00646973 C-84.64951523 153.33222015 -83.58519786 150.66187685 -82.52157593 147.99121094 C-81.65633315 145.81834795 -80.79217452 143.64505625 -79.92822266 141.47167969 C-76.83983348 133.70515622 -73.74548787 125.94119371 -70.625 118.1875 C-70.3119693 117.40829193 -69.9989386 116.62908386 -69.67642212 115.82626343 C-65.01254286 104.24436926 -60.04831957 92.85951166 -54.54101562 81.65136719 C-54.07373047 80.68231445 -53.60644531 79.71326172 -53.125 78.71484375 C-52.7125 77.88202881 -52.3 77.04921387 -51.875 76.19116211 C-51.01358212 73.60270234 -51.09314941 72.43848346 -52.125 69.9375 C-54.01866716 68.25870044 -54.01866716 68.25870044 -56.375 66.875 C-57.60863281 66.10542969 -57.60863281 66.10542969 -58.8671875 65.3203125 C-59.61226562 64.86398438 -60.35734375 64.40765625 -61.125 63.9375 C-62.300625 63.1021875 -62.300625 63.1021875 -63.5 62.25 C-85.33001792 51.33499104 -109.97255236 57.74107803 -127.25 73.5 Z " fill="#6492BC" transform="translate(701.125,51.0625)"/>
<path d="M0 0 C2.94216919 -0.38095093 2.94216919 -0.38095093 6.76611328 -0.38818359 C7.46246887 -0.39344055 8.15882446 -0.39869751 8.87628174 -0.40411377 C11.19118386 -0.41736939 13.50540263 -0.40854331 15.8203125 -0.3984375 C17.43822358 -0.40045984 19.05613378 -0.40337262 20.67404175 -0.40713501 C24.07884327 -0.41156846 27.4834094 -0.40510652 30.88818359 -0.39111328 C35.2070909 -0.37421111 39.52543106 -0.38373345 43.84431648 -0.40183067 C47.19570988 -0.41280544 50.54697482 -0.4091572 53.89837265 -0.4014473 C55.48723292 -0.39947279 57.07610561 -0.40180555 58.66495132 -0.40888596 C72.34143847 -0.45636372 85.68569937 0.90150156 98.625 5.6875 C99.31883789 5.93806152 100.01267578 6.18862305 100.72753906 6.44677734 C109.7615306 9.8546249 118.77246116 14.54875237 126 21 C126 21.66 126 22.32 126 23 C126.66 23 127.32 23 128 23 C129.625 24.375 129.625 24.375 131 26 C131 26.66 131 27.32 131 28 C131.66 28 132.32 28 133 28 C144.57170008 40.71638264 150.17614865 55.45670146 154 72 C154.18836426 72.78793945 154.37672852 73.57587891 154.57080078 74.38769531 C156.40636391 83.03239388 156.39641116 91.70590314 156.375 100.5 C156.37478851 101.29924896 156.37457703 102.09849792 156.37435913 102.92196655 C156.34232373 115.04212723 155.60674048 126.35621514 152 138 C151.80744629 138.67208496 151.61489258 139.34416992 151.41650391 140.03662109 C147.99893958 151.95098694 142.87852952 162.40959246 135 172 C134.38511719 172.74894531 133.77023438 173.49789062 133.13671875 174.26953125 C129.605333 178.44431647 129.605333 178.44431647 128 180 C127.34 180 126.68 180 126 180 C125.67 180.99 125.34 181.98 125 183 C122.99609375 184.6484375 122.99609375 184.6484375 120.4375 186.375 C119.61121094 186.93960938 118.78492188 187.50421875 117.93359375 188.0859375 C116.96550781 188.71757812 115.99742187 189.34921875 115 190 C114.40840088 190.39968994 113.81680176 190.79937988 113.20727539 191.21118164 C108.21341691 194.48954976 103.19226188 196.72133813 97.5625 198.6875 C96.39944336 199.12932617 96.39944336 199.12932617 95.21289062 199.58007812 C81.72803303 204.34637013 66.98653372 204.30341823 52.84375 204.23046875 C51.27860553 204.22927214 49.71346033 204.2288248 48.14831543 204.2290802 C44.91149224 204.22753581 41.67478289 204.21939433 38.43798828 204.20581055 C34.28298751 204.18859384 30.12810817 204.18500375 25.97307587 204.18575573 C22.76132035 204.18548492 19.54959153 204.18002185 16.33784485 204.17275429 C14.80357565 204.16957111 13.26930345 204.16760103 11.73503113 204.16686058 C9.61040977 204.16470616 7.48592119 204.1559885 5.36132812 204.14526367 C4.15351685 204.14145187 2.94570557 204.13764008 1.70129395 204.13371277 C-1 204 -1 204 -2 203 C-2.10221053 200.42703284 -2.13886709 197.88075757 -2.13371277 195.30715942 C-2.13597833 194.49171122 -2.13824388 193.67626302 -2.14057809 192.83610427 C-2.14694772 190.08229111 -2.14608684 187.32852678 -2.14526367 184.57470703 C-2.14825334 182.60900814 -2.15165541 180.64330983 -2.15544128 178.6776123 C-2.16430553 173.32226585 -2.16662042 167.96693536 -2.16725707 162.61158228 C-2.16820422 158.14816361 -2.17188031 153.6847487 -2.17542917 149.22133148 C-2.18358309 138.69426464 -2.18601256 128.16720635 -2.18530273 117.64013672 C-2.18470182 106.76508203 -2.19525414 95.89007693 -2.2110464 85.01503479 C-2.2241036 75.69274954 -2.22948739 66.37048052 -2.22884732 57.04818618 C-2.22859178 51.47404292 -2.23147377 45.89994368 -2.24202538 40.32580948 C-2.2516757 35.08428463 -2.2518067 29.84284617 -2.24450874 24.60131836 C-2.24345904 22.67395782 -2.24584848 20.74659199 -2.2518692 18.81924057 C-2.25953792 16.19499331 -2.25497851 13.57104819 -2.24723816 10.94680786 C-2.25238172 10.17803885 -2.25752529 9.40926983 -2.26282471 8.61720479 C-2.23822804 4.8623648 -2.13766642 3.20649963 0 0 Z M49 43 C48.90415002 44.54353131 48.8781193 46.09145108 48.87974548 47.63795471 C48.87837082 48.64061371 48.87699615 49.64327271 48.87557983 50.67631531 C48.87917511 51.78545792 48.88277039 52.89460052 48.88647461 54.03735352 C48.88632858 55.19817444 48.88618256 56.35899536 48.8860321 57.55499268 C48.88673183 61.41298252 48.89452702 65.27092478 48.90234375 69.12890625 C48.90420772 71.79548728 48.90568088 74.46206564 48.90663147 77.12864685 C48.90974452 83.4432888 48.91795756 89.75791351 48.92798096 96.07254785 C48.9391429 103.25985633 48.94465275 110.44716561 48.94967639 117.6344806 C48.9601402 132.42299589 48.97773914 147.21149765 49 162 C51.24760742 162.01893506 53.49526082 162.03246633 55.74291992 162.04370117 C57.62040169 162.05586922 57.62040169 162.05586922 59.53581238 162.06828308 C71.22040428 161.83796648 82.17980325 156.76684219 90.6875 148.9375 C105.63400297 133.25935003 104.58572107 111.45521259 104.13183594 91.25732422 C103.53365641 76.47785905 100.07435081 63.02725527 88.9296875 52.62109375 C88.29289062 52.08613281 87.65609375 51.55117187 87 51 C86.41347656 50.48824219 85.82695313 49.97648437 85.22265625 49.44921875 C82.20276153 47.4801837 78.97196343 46.45483006 75.5625 45.375 C74.90701172 45.1584375 74.25152344 44.941875 73.57617188 44.71875 C67.61900402 42.78281982 62.51526645 41.86082519 56.25 41.875 C54.52523437 41.87113281 54.52523437 41.87113281 52.765625 41.8671875 C50.0908767 41.68499836 50.0908767 41.68499836 49 43 Z " fill="#467DAE" transform="translate(14,99)"/>
<path d="M0 0 C1.0837793 -0.00918457 2.16755859 -0.01836914 3.28417969 -0.02783203 C18.82831337 0.03102943 30.88890483 3.11949278 42.875 13.25 C43.76832031 14.00023437 43.76832031 14.00023437 44.6796875 14.765625 C53.49722132 22.83856708 58.24206297 33.76989543 60.875 45.25 C61.04326294 45.96001663 61.21152588 46.67003326 61.3848877 47.40156555 C63.60684195 58.39063156 63.14430132 69.53986495 63.10546875 80.69921875 C63.10427508 82.96653721 63.10382418 85.23385617 63.1040802 87.50117493 C63.10252368 92.22729637 63.09429233 96.95334117 63.08081055 101.67944336 C63.06371453 107.75037253 63.05999969 113.82121856 63.06075573 119.892169 C63.0604847 124.56139424 63.05501605 129.23060116 63.04775429 133.89982033 C63.04456514 136.14023513 63.04259964 138.38065201 63.04186058 140.62106895 C63.03970568 143.73529026 63.03098318 146.84942103 63.02026367 149.96362305 C63.02071686 150.89495056 63.02117004 151.82627808 63.02163696 152.78582764 C62.98948443 159.13551557 62.98948443 159.13551557 61.875 160.25 C58.91794679 160.33868299 55.98434944 160.36520296 53.02734375 160.34765625 C51.69770348 160.34553383 51.69770348 160.34553383 50.34120178 160.34336853 C47.49826746 160.33775215 44.65541069 160.32519691 41.8125 160.3125 C39.88997509 160.30748711 37.96744896 160.30292384 36.04492188 160.29882812 C31.32158451 160.28777741 26.59830542 160.27050183 21.875 160.25 C20.555 155.96 19.235 151.67 17.875 147.25 C16.87082031 147.98605469 15.86664063 148.72210938 14.83203125 149.48046875 C6.48617771 155.47841017 -1.20288037 160.26175929 -11.125 163.25 C-12.05892578 163.54777344 -12.05892578 163.54777344 -13.01171875 163.8515625 C-25.85006637 166.27210124 -38.93257877 163.98624219 -49.8515625 156.890625 C-58.59128081 150.58361179 -65.57863518 140.65329451 -68.5625 130.1875 C-68.748125 128.888125 -68.93375 127.58875 -69.125 126.25 C-69.26679688 125.3115625 -69.40859375 124.373125 -69.5546875 123.40625 C-71.29062321 108.81021912 -67.76112502 95.98537956 -59.125 84.25 C-57.64 83.755 -57.64 83.755 -56.125 83.25 C-55.795 82.26 -55.465 81.27 -55.125 80.25 C-53.06761977 78.68912627 -51.058054 77.300178 -48.875 75.9375 C-48.23949219 75.54014648 -47.60398438 75.14279297 -46.94921875 74.73339844 C-28.7830854 63.58271519 -8.93809728 60.41050736 11.875 57.25 C10.47429616 51.78211484 9.26995581 48.91246318 4.875 45.25 C-2.4524904 40.9661787 -13.71036291 42.46065911 -21.7734375 43.90234375 C-29.05036562 45.99558357 -35.60535601 49.34884569 -42.2265625 52.95703125 C-45.125 54.25 -45.125 54.25 -48.125 53.25 C-49.39599609 51.45922852 -49.39599609 51.45922852 -50.6484375 49.12890625 C-51.1125 48.27490234 -51.5765625 47.42089844 -52.0546875 46.54101562 C-52.53164062 45.64060547 -53.00859375 44.74019531 -53.5 43.8125 C-53.96921875 42.94689453 -54.4384375 42.08128906 -54.921875 41.18945312 C-55.86594275 39.43823352 -56.79921474 37.68115168 -57.72167969 35.91845703 C-58.67816146 34.09967733 -59.65913436 32.29361765 -60.66113281 30.49951172 C-61.37414551 29.18297607 -61.37414551 29.18297607 -62.1015625 27.83984375 C-62.53807129 27.05343506 -62.97458008 26.26702637 -63.42431641 25.45678711 C-64.125 23.25 -64.125 23.25 -63.36914062 21.06079102 C-56.31629193 10.79568529 -35.818181 4.26185046 -24.390625 1.6171875 C-16.24965126 0.28847935 -8.23848078 0.03858499 0 0 Z M-17.125 101.25 C-20.32940458 104.68329062 -21.36651931 107.2206665 -21.625 111.8125 C-21.46733473 115.04191965 -21.10079564 116.29213351 -19.4375 119.1875 C-15.08102243 123.07300703 -11.14085735 123.66168946 -5.453125 123.4921875 C1.18122576 122.80203692 6.26606697 119.86980498 11.19702148 115.45874023 C14.34993586 111.30852689 13.71272781 106.80372742 13.375 101.8125 C13.32085937 100.28592773 13.32085937 100.28592773 13.265625 98.72851562 C13.17184854 96.23171728 13.04083025 93.74287512 12.875 91.25 C2.20759296 90.82976881 -8.72505691 94.7039506 -17.125 101.25 Z " fill="#467DAE" transform="translate(262.125,142.75)"/>
<path d="M0 0 C0.94082428 0.00007553 1.88164856 0.00015106 2.85098267 0.00022888 C3.86872772 0.00539017 4.88647278 0.01055145 5.93505859 0.01586914 C7.49563492 0.01799156 7.49563492 0.01799156 9.08773804 0.02015686 C12.4196863 0.02576673 15.75156804 0.03832092 19.08349609 0.05102539 C21.33870346 0.05603912 23.59391187 0.06060225 25.84912109 0.06469727 C31.38560223 0.07573936 36.92204441 0.09248712 42.45849609 0.11352539 C45.74906627 6.56582802 45.74906627 6.56582802 46.33349609 10.05102539 C47.27173842 14.65143938 48.71113858 18.99491517 50.22631836 23.43457031 C53.88913934 34.24657429 57.14533383 45.19056214 60.45849609 56.11352539 C60.81411621 57.28222168 61.16973633 58.45091797 61.53613281 59.6550293 C65.60324309 73.05376471 69.52215428 86.41703627 72.45849609 100.11352539 C74.67288913 93.8918678 76.32544816 87.69115523 77.70849609 81.23852539 C81.88480297 62.35632122 86.98618864 43.69729525 92.06152344 25.0402832 C93.71479016 18.94971563 95.27335456 12.84805778 96.72119141 6.70507812 C97.45849609 4.11352539 97.45849609 4.11352539 99.45849609 0.11352539 C112.65849609 0.11352539 125.85849609 0.11352539 139.45849609 0.11352539 C139.67505859 6.45571289 139.67505859 6.45571289 139.89599609 12.92602539 C139.95972412 14.21484619 140.02345215 15.50366699 140.08911133 16.83154297 C140.25491103 27.1638445 137.23350248 35.11254291 133.4392395 44.57614136 C131.77784307 48.87451414 130.37000761 53.25141396 128.95849609 57.63696289 C128.67027481 58.52645126 128.38205353 59.41593964 128.08509827 60.3323822 C127.20628476 63.0500513 126.33211762 65.76918338 125.45849609 68.48852539 C124.2933506 72.10099659 123.12612694 75.71279434 121.95849609 79.32446289 C121.67078842 80.21528061 121.38308075 81.10609833 121.08665466 82.02391052 C118.20540289 90.92907106 115.24457273 99.80713909 112.27227783 108.68225098 C110.81209414 113.04473182 109.3592023 117.40964223 107.90542603 121.77426147 C106.75601363 125.22407486 105.60427211 128.67308395 104.44873047 132.12084961 C101.55555875 140.74815196 101.55555875 140.74815196 98.80615234 149.42211914 C94.47986856 163.38131066 88.61509552 177.93215436 80.45849609 190.11352539 C79.79849609 190.11352539 79.13849609 190.11352539 78.45849609 190.11352539 C77.99443359 191.28915039 77.99443359 191.28915039 77.52099609 192.48852539 C76.45849609 195.11352539 76.45849609 195.11352539 75.45849609 197.11352539 C74.79849609 197.11352539 74.13849609 197.11352539 73.45849609 197.11352539 C73.24322266 197.68071289 73.02794922 198.24790039 72.80615234 198.83227539 C70.99528605 201.89762587 68.74471431 203.48881091 65.89599609 205.61352539 C64.90470703 206.36633789 63.91341797 207.11915039 62.89208984 207.89477539 C55.66901491 212.80169352 49.19611066 214.71934231 40.49755859 214.57446289 C39.58517426 214.57354645 38.67278992 214.57263 37.73275757 214.57168579 C35.82178483 214.56568707 33.91081982 214.55005475 32 214.52514648 C29.07045087 214.48836159 26.14215966 214.48412962 23.21240234 214.48461914 C21.34911013 214.47479665 19.48582647 214.46314345 17.62255859 214.44946289 C16.74757721 214.44723724 15.87259583 214.4450116 14.97109985 214.44271851 C14.15950409 214.4299588 13.34790833 214.4171991 12.51171875 214.40405273 C11.79940094 214.39642914 11.08708313 214.38880554 10.35317993 214.38095093 C8.45849609 214.11352539 8.45849609 214.11352539 5.45849609 212.11352539 C5.99148545 204.26575469 7.49056907 196.81293519 9.33349609 189.17602539 C9.71828125 187.49283203 9.71828125 187.49283203 10.11083984 185.77563477 C10.495625 184.16591797 10.495625 184.16591797 10.88818359 182.52368164 C11.11747559 181.55567627 11.34676758 180.5876709 11.58300781 179.59033203 C12.50721307 176.97570228 13.23783547 175.75075171 15.45849609 174.11352539 C18.49755859 173.92602539 18.49755859 173.92602539 22.08349609 174.11352539 C29.64691078 174.25387742 35.86986292 173.68000697 41.77099609 168.61352539 C45.87812586 164.04877671 48.14917034 157.64092429 48.68115234 151.57446289 C48.42719387 148.76755343 47.6910563 146.86570281 46.52099609 144.30102539 C43.86368137 138.18319629 41.47905609 131.98699528 39.14599609 125.73852539 C38.76032471 124.70719482 38.37465332 123.67586426 37.97729492 122.61328125 C35.34365773 115.54570942 32.7681487 108.45815476 30.20849609 101.36352539 C27.84715359 94.82587692 25.40564695 88.35496427 22.67333984 81.96118164 C18.92076126 73.16494439 15.37879357 64.31675879 12.51318359 55.18774414 C11.36702051 51.84689101 10.06072149 48.59706215 8.73828125 45.32275391 C6.14973746 38.8316421 3.66323167 32.30095506 1.17529297 25.77075195 C0.52627026 24.07083692 -0.12546073 22.37195363 -0.77978516 20.67407227 C-1.73275107 18.20053723 -2.6770914 15.72386234 -3.61962891 13.24633789 C-3.9133136 12.48902374 -4.20699829 11.73170959 -4.50958252 10.95144653 C-5.84063218 7.42599481 -6.54150391 4.93042166 -6.54150391 1.11352539 C-4.14568045 -0.08438634 -2.67372853 -0.00714901 0 0 Z " fill="#467DAE" transform="translate(350.54150390625,145.886474609375)"/>
<path d="M0 0 C2.76035658 2.33870353 4.50232272 4.67311671 6.19921875 7.86328125 C6.79734375 8.85328125 7.39546875 9.84328125 8.01171875 10.86328125 C9.45951946 14.52088305 9.34185926 16.11895926 8.19921875 19.86328125 C5.75341797 21.87036133 5.75341797 21.87036133 2.50390625 23.6328125 C1.92475464 23.95489685 1.34560303 24.2769812 0.74890137 24.60882568 C-1.1328447 25.65027112 -3.02872588 26.66253856 -4.92578125 27.67578125 C-6.23090645 28.39282769 -7.53477974 29.11215742 -8.83740234 29.83374023 C-11.37837297 31.23993226 -13.92357057 32.63787484 -16.47265625 34.02929688 C-21.32469053 36.70304112 -26.03787467 39.5573155 -30.734375 42.49609375 C-34.16946762 44.57857858 -37.73310238 46.33124911 -41.3359375 48.10546875 C-54.37084844 53.91638675 -54.37084844 53.91638675 -63.25390625 64.234375 C-64.29819364 68.00121006 -64.60073537 71.74582747 -64.70703125 75.64306641 C-64.85469126 79.13999382 -65.56711106 82.49812295 -66.23828125 85.92578125 C-66.48232241 87.3067377 -66.72306747 88.6882797 -66.9609375 90.0703125 C-67.09129395 90.81361816 -67.22165039 91.55692383 -67.35595703 92.32275391 C-67.68502952 94.20218766 -68.01106415 96.08215389 -68.33544922 97.96240234 C-68.92844773 101.3500483 -69.54989864 104.73157067 -70.17578125 108.11328125 C-70.36068115 109.19746338 -70.54558105 110.28164551 -70.73608398 111.39868164 C-71.8868107 117.4742703 -72.77353635 121.0948268 -77.80078125 124.86328125 C-79.43142889 125.92099864 -81.10358998 126.91601171 -82.80078125 127.86328125 C-84.11413083 128.71614104 -85.42655994 129.57041925 -86.73828125 130.42578125 C-91.39908546 133.33988105 -95.2376711 134.86328125 -100.80078125 134.86328125 C-103.53370347 132.14548586 -104.17990114 130.06994528 -104.2331543 126.27832031 C-104.25294846 125.3776886 -104.27274261 124.47705688 -104.2931366 123.5491333 C-104.29952652 122.58545837 -104.30591644 121.62178345 -104.3125 120.62890625 C-104.3304512 119.63574402 -104.3484024 118.64258179 -104.36689758 117.61932373 C-104.42103131 114.45068594 -104.45490653 111.28219907 -104.48828125 108.11328125 C-104.52145157 105.96352066 -104.55594096 103.81377998 -104.59179688 101.6640625 C-104.67675935 96.39727074 -104.74509626 91.13045952 -104.80078125 85.86328125 C-108.25942349 87.84606574 -111.71650595 89.83154215 -115.17227173 91.81933594 C-116.37955655 92.51335175 -117.58721674 93.20671503 -118.79525757 93.89941406 C-127.10559608 98.64619171 -127.10559608 98.64619171 -135.24609375 103.67578125 C-135.83624268 104.05605469 -136.4263916 104.43632812 -137.03442383 104.828125 C-138.49299957 105.78442021 -139.93855098 106.76050194 -141.3828125 107.73828125 C-144.43671076 109.15915798 -145.601108 108.789268 -148.80078125 107.86328125 C-151.04907227 106.51220703 -151.04907227 106.51220703 -153.3046875 104.80859375 C-154.12775391 104.19371094 -154.95082031 103.57882812 -155.79882812 102.9453125 C-156.64509766 102.29949219 -157.49136719 101.65367187 -158.36328125 100.98828125 C-159.21341797 100.35019531 -160.06355469 99.71210938 -160.93945312 99.0546875 C-163.23243321 97.33180521 -165.51704605 95.59838321 -167.80078125 93.86328125 C-168.55093506 93.3410498 -169.30108887 92.81881836 -170.07397461 92.28076172 C-170.6438208 91.81299316 -171.21366699 91.34522461 -171.80078125 90.86328125 C-171.80078125 90.20328125 -171.80078125 89.54328125 -171.80078125 88.86328125 C-172.36772705 88.76200928 -172.93467285 88.6607373 -173.51879883 88.55639648 C-176.24968725 87.72693332 -178.01914522 86.46971721 -180.3125 84.7734375 C-181.15232422 84.15404297 -181.99214844 83.53464844 -182.85742188 82.89648438 C-184.15969727 81.92098633 -184.15969727 81.92098633 -185.48828125 80.92578125 C-186.36806641 80.27931641 -187.24785156 79.63285156 -188.15429688 78.96679688 C-194.66669461 74.13145453 -194.66669461 74.13145453 -195.80078125 71.86328125 C-195.84077325 69.86368113 -195.84424924 67.86280883 -195.80078125 65.86328125 C-192.38867924 63.87616527 -188.97036189 61.89999524 -185.55078125 59.92578125 C-184.58269531 59.36181641 -183.61460937 58.79785156 -182.6171875 58.21679688 C-181.68261719 57.67861328 -180.74804688 57.14042969 -179.78515625 56.5859375 C-178.92631836 56.08843994 -178.06748047 55.59094238 -177.18261719 55.07836914 C-172.09127523 52.48103325 -172.09127523 52.48103325 -168.86547852 53.43652344 C-168.20604248 53.75782227 -167.54660645 54.07912109 -166.8671875 54.41015625 C-166.13564453 54.76078125 -165.40410156 55.11140625 -164.65039062 55.47265625 C-163.89564453 55.8490625 -163.14089844 56.22546875 -162.36328125 56.61328125 C-161.61240234 56.97421875 -160.86152344 57.33515625 -160.08789062 57.70703125 C-156.20484636 59.59220313 -152.48810956 61.61376647 -148.80078125 63.86328125 C-144.70504797 61.48278359 -140.61169787 59.0982583 -136.52050781 56.70996094 C-135.12825319 55.89797468 -133.7353526 55.08709497 -132.34179688 54.27734375 C-130.33943768 53.11357943 -128.3394314 51.94586211 -126.33984375 50.77734375 C-125.71582672 50.41581207 -125.09180969 50.0542804 -124.44888306 49.68179321 C-121.96707625 48.22720821 -119.84441057 46.90691057 -117.80078125 44.86328125 C-120.44078125 43.54328125 -123.08078125 42.22328125 -125.80078125 40.86328125 C-125.80078125 40.20328125 -125.80078125 39.54328125 -125.80078125 38.86328125 C-126.38037598 38.73800049 -126.9599707 38.61271973 -127.55712891 38.48364258 C-129.8147075 37.8594307 -131.63351392 37.0330422 -133.69921875 35.9375 C-134.42625 35.55271484 -135.15328125 35.16792969 -135.90234375 34.77148438 C-136.65257812 34.36865234 -137.4028125 33.96582031 -138.17578125 33.55078125 C-138.91828125 33.15955078 -139.66078125 32.76832031 -140.42578125 32.36523438 C-152.18062114 26.10360146 -152.18062114 26.10360146 -153.80078125 22.86328125 C-154.42578125 20.11328125 -154.42578125 20.11328125 -153.80078125 16.86328125 C-151.09192814 14.3844251 -147.96310924 12.70249872 -144.80078125 10.86328125 C-143.97320313 10.27546875 -143.145625 9.68765625 -142.29296875 9.08203125 C-136.24225189 4.90912307 -136.24225189 4.90912307 -132.58984375 4.79296875 C-130.21419713 5.28182022 -128.07169727 6.01076909 -125.80078125 6.86328125 C-124.83914063 7.16234375 -123.8775 7.46140625 -122.88671875 7.76953125 C-117.4112561 9.48841066 -112.2156254 11.52108793 -107.01171875 13.92578125 C-103.84153648 15.27002815 -100.58909881 16.20089686 -97.28125 17.14453125 C-94.18727863 18.04105209 -91.1473774 19.07037345 -88.1015625 20.1171875 C-87.34230469 20.36339844 -86.58304688 20.60960937 -85.80078125 20.86328125 C-84.70378906 21.3015625 -83.60679687 21.73984375 -82.4765625 22.19140625 C-77.72266105 23.06034467 -75.49521599 21.60509746 -71.67578125 19.05078125 C-70.20186399 18.12546123 -68.72647943 17.2024762 -67.25 16.28125 C-65.99388916 15.48533447 -65.99388916 15.48533447 -64.71240234 14.67333984 C-59.36047846 11.34622567 -53.90521195 8.19298023 -48.46270752 5.01699829 C-46.50740205 3.87445411 -44.55484508 2.72734781 -42.60302734 1.57885742 C-41.38120903 0.86112428 -40.15936758 0.14343052 -38.9375 -0.57421875 C-37.85170654 -1.21230469 -36.76591309 -1.85039062 -35.6472168 -2.5078125 C-23.32978694 -9.55660674 -11.28874739 -8.34986982 0 0 Z " fill="#6290BB" transform="translate(687.80078125,388.13671875)"/>
<path d="M0 0 C2.68971418 1.05958438 3.55916689 2.37853211 5.0625 4.8125 C7.27107996 11.43823989 6.86725106 16.73417419 3.75610352 23.06689453 C2.31593708 25.83399909 0.83852469 28.58046456 -0.64013672 31.32714844 C-3.17733962 36.1876538 -5.47428222 41.16658582 -7.8125 46.125 C-8.74505266 48.10136774 -9.67979847 50.0767028 -10.6171875 52.05078125 C-11.01663574 52.89680908 -11.41608398 53.74283691 -11.82763672 54.61450195 C-12.9375 56.8125 -12.9375 56.8125 -14.9375 59.8125 C-15.5975 59.8125 -16.2575 59.8125 -16.9375 59.8125 C-17.040625 60.699375 -17.14375 61.58625 -17.25 62.5 C-17.97396089 65.98817517 -19.08777754 67.79813747 -20.9375 70.8125 C-22.37883802 74.10345205 -23.65281605 77.45779527 -24.9375 80.8125 C-25.79162357 83.04168318 -26.64579152 85.27084935 -27.5 87.5 C-27.89316406 88.53511719 -28.28632812 89.57023437 -28.69140625 90.63671875 C-29.54067223 92.80114898 -30.43597126 94.9479445 -31.37060547 97.0769043 C-32.87560304 100.5766147 -34.08673122 104.12988308 -35.25390625 107.7578125 C-37.65530011 115.10443169 -40.33258579 122.32729791 -43.06936646 129.55432129 C-48.26594466 143.31396434 -53.23613525 157.14725718 -58 171.0625 C-58.43440903 172.33123962 -58.43440903 172.33123962 -58.87759399 173.62561035 C-63.9351396 188.45186409 -68.60328567 203.38916408 -73.03149414 218.41503906 C-73.26537338 219.19714752 -73.49925262 219.97925598 -73.74021912 220.7850647 C-74.17154648 222.22784939 -74.59615711 223.67266978 -75.01210022 225.1199646 C-76.42639543 229.82329554 -78.3943976 233.65173373 -80.9375 237.8125 C-81.5975 237.8125 -82.2575 237.8125 -82.9375 237.8125 C-82.9375 238.4725 -82.9375 239.1325 -82.9375 239.8125 C-86.22991716 241.45870858 -89.40354436 241.5630857 -92.9375 240.8125 C-99.29469802 235.25741824 -101.34108456 228.01902046 -103.88922119 220.23901367 C-105.1475512 216.40984917 -106.46708985 212.60190449 -107.78515625 208.79296875 C-108.04903137 208.02814178 -108.31290649 207.26331482 -108.58477783 206.47531128 C-115.06992145 187.81564177 -122.76758739 168.89169115 -134.1640625 152.63671875 C-136.79952178 148.43972083 -137.12375258 144.70163031 -136.9375 139.8125 C-135.345584 134.10033082 -132.95786228 130.97346884 -127.9375 127.8125 C-123.1541529 126.322605 -119.90595813 126.41855093 -115.25 128.3125 C-105.31773661 135.01046977 -100.35692968 146.58128397 -96.125 157.3125 C-95.71830078 158.32570312 -95.31160156 159.33890625 -94.89257812 160.3828125 C-93.90067863 162.85672654 -92.91584981 165.3332036 -91.9375 167.8125 C-89.29147353 162.66744853 -86.94373482 157.55191802 -84.90625 152.140625 C-84.34368957 150.67082811 -83.7809376 149.20110452 -83.21801758 147.73144531 C-82.9279483 146.97013306 -82.63787903 146.2088208 -82.33901978 145.42443848 C-75.95436365 128.69694634 -69.19985224 112.18070558 -61.9375 95.8125 C-61.46715332 94.7507959 -60.99680664 93.6890918 -60.51220703 92.59521484 C-53.24315771 76.26808196 -45.60159396 60.16127211 -36.14453125 44.97265625 C-34.90302168 42.75079608 -34.08477068 40.58894931 -33.25 38.1875 C-29.45161109 28.15342263 -12.10615497 -1.17156338 0 0 Z " fill="#000000" transform="translate(700.9375,51.1875)"/>
<path d="M0 0 C3.60505181 2.80392919 4.11363434 4.67855551 4.6875 9.1875 C4.12244532 13.78865957 2.78572967 14.83297129 -0.75 17.75 C-4.09008789 18.99902344 -4.09008789 18.99902344 -7.91015625 19.859375 C-8.95140404 20.09778107 -8.95140404 20.09778107 -10.01368713 20.34100342 C-17.57302691 22.02621961 -25.20167944 23.36602037 -32.84350586 24.61523438 C-35.21197004 25.00401675 -37.57758537 25.4077033 -39.94335938 25.8125 C-58.31167702 28.89610766 -58.31167702 28.89610766 -64.75 26.75 C-67.75 22.41666667 -67.75 22.41666667 -67.75 19.75 C-68.29527344 19.88277344 -68.84054687 20.01554688 -69.40234375 20.15234375 C-73.52114672 21.11691812 -77.32970622 21.79687562 -81.5625 21.9375 C-84.77355165 22.21768427 -84.77355165 22.21768427 -87.09765625 24.296875 C-88.06273885 26.07292054 -88.911143 27.91096734 -89.75 29.75 C-103.67833101 39.03555401 -133.0441762 33.93781152 -149.3840332 33.93530273 C-152.89930827 33.9351997 -156.41438772 33.94904584 -159.92961597 33.96607494 C-163.33459062 33.97988921 -166.73952899 33.97928228 -170.14453125 33.98046875 C-171.39353714 33.98765427 -172.64254303 33.99483978 -173.92939758 34.00224304 C-180.20403267 33.98578408 -185.78381566 33.78051752 -191.75 31.75 C-193.90163744 29.22284093 -194.52942619 26.90314902 -195.75 23.75 C-198.72 23.75 -201.69 23.75 -204.75 23.75 C-204.75 23.09 -204.75 22.43 -204.75 21.75 C-201.12 21.75 -197.49 21.75 -193.75 21.75 C-193.42 20.43 -193.09 19.11 -192.75 17.75 C-191.15485219 15.87743518 -189.9539483 14.85197415 -187.75 13.75 C-184.80572907 13.6743847 -181.88512878 13.65905475 -178.94140625 13.6875 C-177.07698621 13.69607956 -175.2125656 13.70453788 -173.34814453 13.71289062 C-172.36348206 13.71909424 -171.37881958 13.72529785 -170.36431885 13.73168945 C-153.3066 13.83403372 -136.2802484 13.70505175 -119.23266602 13.10546875 C-112.64172686 12.87697089 -106.055686 12.69181575 -99.4609375 12.65625 C-98.2445459 12.64916016 -97.0281543 12.64207031 -95.77490234 12.63476562 C-92.75 12.75 -92.75 12.75 -89.75 13.75 C-86.75 18.08333333 -86.75 18.08333333 -86.75 20.75 C-86.13253906 20.605625 -85.51507813 20.46125 -84.87890625 20.3125 C-79.02859545 19.0302401 -73.73550963 18.55691904 -67.75 18.75 C-67.853125 18.028125 -67.95625 17.30625 -68.0625 16.5625 C-67.60498969 12.44490724 -65.94953425 11.31958744 -62.75 8.75 C-59.80432817 7.71104061 -56.83567367 7.27412262 -53.75 6.8359375 C-52.87786865 6.69475494 -52.0057373 6.55357239 -51.10717773 6.40811157 C-48.32408791 5.96120178 -45.53770277 5.5420693 -42.75 5.125 C-39.10299343 4.55681856 -35.45776907 3.97764423 -31.8125 3.3984375 C-30.93392334 3.26153503 -30.05534668 3.12463257 -29.15014648 2.98358154 C-23.15716141 2.03323626 -17.31448559 0.82478628 -11.44140625 -0.71240234 C-7.24953759 -1.54971138 -3.92412551 -1.78369341 0 0 Z " fill="#6491BB" transform="translate(495.75,493.25)"/>
<path d="M0 0 C1.1446875 0.495 1.1446875 0.495 2.3125 1 C4.99069135 2.17436686 4.99069135 2.17436686 8 2 C8.5775 1.649375 9.155 1.29875 9.75 0.9375 C13.0758419 -0.44826746 15.53265223 0.25699691 19 1 C21.4375 2.0625 21.4375 2.0625 23 3 C23 3.66 23 4.32 23 5 C23.70125 5.0928125 24.4025 5.185625 25.125 5.28125 C28.57310529 6.14327632 30.97506525 7.63165795 34 9.5 C42.49612293 14.56772022 51.53840876 18.2687176 60.66650391 22.03515625 C62.59912556 22.83424819 64.52509136 23.64941602 66.44921875 24.46875 C76.18897663 28.61445868 86.11636086 32.55318846 96.25 35.625 C99.97980838 36.99259641 101.80942656 37.71413984 104 41 C105.05658777 44.87415516 105.41746983 47.03322776 103.8125 50.75 C100.6037037 54.73333333 100.6037037 54.73333333 98 56 C90.81167124 55.62560788 84.43245398 53.33072718 77.6875 50.9375 C76.53975098 50.534104 75.39200195 50.13070801 74.20947266 49.71508789 C59.32536122 44.41860184 44.95347009 38.30092505 30.93945312 31.00878906 C28.94860725 29.97326852 26.95094696 28.95167246 24.953125 27.9296875 C6.43559595 18.36437134 6.43559595 18.36437134 4 12 C4.375 8.75 4.375 8.75 5 6 C4.175 5.38125 3.35 4.7625 2.5 4.125 C1.675 3.42375 0.85 2.7225 0 2 C0 1.34 0 0.68 0 0 Z " fill="#6491BC" transform="translate(54,444)"/>
<path d="M0 0 C15.54524502 3.20179921 31.00109367 6.34221788 46.82232666 7.80334473 C48.78613281 7.98848633 48.78613281 7.98848633 50.78961182 8.17736816 C53.38542158 8.41529347 55.98280983 8.63673237 58.581604 8.83947754 C69.91791487 9.85512753 69.91791487 9.85512753 74.45123291 14.10412598 C74.96685791 15.15600098 75.48248291 16.20787598 76.01373291 17.29162598 C77.16505151 20.36059851 77.16505151 20.36059851 80.13873291 20.97912598 C80.90185791 21.02037598 81.66498291 21.06162598 82.45123291 21.10412598 C82.45123291 21.43412598 82.45123291 21.76412598 82.45123291 22.10412598 C81.52310791 22.16600098 80.59498291 22.22787598 79.63873291 22.29162598 C76.27949868 22.76176835 76.27949868 22.76176835 74.88873291 25.54162598 C74.41435791 26.38725098 73.93998291 27.23287598 73.45123291 28.10412598 C54.00939606 38.80605452 6.63299828 22.73082929 -13.54876709 18.47912598 C-14.49171631 18.2852832 -15.43466553 18.09144043 -16.40618896 17.89172363 C-26.8165319 15.61999137 -26.8165319 15.61999137 -29.86126709 11.19787598 C-31.11124067 7.39113826 -30.71670086 3.89991074 -29.54876709 0.10412598 C-22.37349116 -7.42991375 -9.12301263 -1.88512788 0 0 Z " fill="#6391BC" transform="translate(206.54876708984375,493.8958740234375)"/>
<path d="M0 0 C3.63078454 1.31840275 4.86393769 2.96656436 6.6875 6.3125 C12.66635111 16.66394371 18.90361395 25.46504189 27.65844727 33.59887695 C30.74918185 36.51249208 32.92306182 38.83910249 34 43 C33.70647502 45.9939548 33.34525472 48.30949055 32 51 C32.61875 51.309375 33.2375 51.61875 33.875 51.9375 C35.25 52.625 36.625 53.3125 38 54 C38 54.66 38 55.32 38 56 C35.0280615 54.87548273 32.66559313 53.77706209 30 52 C29.01 52.66 28.02 53.32 27 54 C22.39077706 54.50100249 19.69425641 53.8250196 16 51 C16 50.34 16 49.68 16 49 C15.34 49 14.68 49 14 49 C14 48.34 14 47.68 14 47 C12.515 46.505 12.515 46.505 11 46 C11 45.34 11 44.68 11 44 C10.34 44 9.68 44 9 44 C9 43.34 9 42.68 9 42 C7.515 41.505 7.515 41.505 6 41 C4.32918883 39.13925647 2.81389783 37.30275181 1.3125 35.3125 C0.87623291 34.73814209 0.43996582 34.16378418 -0.00952148 33.57202148 C-12.33412588 16.98301877 -12.33412588 16.98301877 -13 8 C-10.3059304 0.99541905 -7.3857278 -0.51829669 0 0 Z " fill="#6491BC" transform="translate(14,387)"/>
<path d="M0 0 C0.66 0 1.32 0 2 0 C2.33 8.25 2.66 16.5 3 25 C2.01 24.67 1.02 24.34 0 24 C0 16.08 0 8.16 0 0 Z " fill="#5D90BE" transform="translate(487,149)"/>
<path d="M0 0 C3.46941546 0.45822468 6.67395049 0.89131683 10 2 C9.67 2.66 9.34 3.32 9 4 C4.545 3.01 4.545 3.01 0 2 C0 1.34 0 0.68 0 0 Z " fill="#6190BE" transform="translate(165,494)"/>
<path d="M0 0 C1.32 0 2.64 0 4 0 C3.34 1.98 2.68 3.96 2 6 C1.34 6 0.68 6 0 6 C0 4.02 0 2.04 0 0 Z " fill="#98A8C5" transform="translate(61,139)"/>
<path d="M0 0 C2.475 0.495 2.475 0.495 5 1 C5 1.66 5 2.32 5 3 C3.35 2.67 1.7 2.34 0 2 C0 1.34 0 0.68 0 0 Z " fill="#87AFD8" transform="translate(159,492)"/>
<path d="M0 0 C2 1 2 1 2 1 Z " fill="#528CAC" transform="translate(52,443)"/>
</svg>
