<svg width="1440" height="241" viewBox="0 0 1440 241" fill="none" xmlns="http://www.w3.org/2000/svg">
<rect x="-24" y="4" width="1484" height="233" fill="#9CC27E" stroke="black" stroke-width="8"/>
<path d="M827.893 4L924.023 237H516.706L601.241 4H827.893Z" fill="#D9D9D9" stroke="black" stroke-width="8"/>
<line x1="714" y1="121" x2="714" y2="162" stroke="black" stroke-width="8"/>
<line x1="714" y1="65" x2="714" y2="98" stroke="black" stroke-width="8"/>
<line x1="714" y1="183" x2="714" y2="224" stroke="black" stroke-width="8"/>
<path d="M1172.26 138C1186.04 138 1198.37 142.177 1207.16 148.738C1215.95 155.299 1221 164.052 1221 173.376C1221 173.955 1220.98 174.338 1220.97 174.579C1220.57 174.724 1219.68 174.981 1217.91 175.203C1211.64 175.991 1198.82 176 1172.26 176C1145.73 176 1131.98 175.993 1124.79 175.196C1123.03 175.002 1121.82 174.774 1120.99 174.536C1120.58 174.42 1120.31 174.313 1120.13 174.228C1120.09 174.212 1120.06 174.194 1120.04 174.181C1120.02 174.031 1120 173.778 1120 173.376C1120 164.275 1125.69 155.513 1135.46 148.835C1145.18 142.19 1158.45 138 1172.26 138Z" fill="#868686" stroke="black" stroke-width="8"/>
<path d="M1240.81 123C1268.67 123 1291 144.726 1291 171.216C1291 172.387 1290.99 173.075 1290.93 173.615C1290.9 173.827 1290.87 173.952 1290.85 174.017C1290.67 174.141 1289.93 174.573 1287.59 174.953C1281.22 175.984 1268.15 176 1240.81 176C1213.5 176 1199.46 175.988 1192.15 174.942C1188.4 174.406 1187.47 173.71 1187.3 173.524C1187.29 173.516 1187 173.318 1187 171.216C1187 145.043 1212.6 123 1240.81 123Z" fill="#585858" stroke="black" stroke-width="8"/>
<line y1="-4" x2="228.02" y2="-4" transform="matrix(0.99991 0.0133839 -0.012765 0.999919 1088 179.948)" stroke="#070707" stroke-width="8"/>
<path d="M187.613 62C200.202 62.0001 211.442 65.7969 219.442 71.7412C227.443 77.6857 232 85.5819 232 93.9521C232 94.3132 231.991 94.5872 231.983 94.791C231.573 94.9162 230.804 95.1059 229.455 95.2744C223.728 95.9902 211.998 96 187.613 96C163.26 96 150.672 95.9934 144.1 95.2686C142.497 95.0918 141.405 94.8859 140.665 94.6758C140.365 94.5906 140.156 94.5102 140.015 94.4502C140.007 94.3298 140 94.1671 140 93.9521C140 85.8059 145.125 77.8989 154.035 71.8369C162.896 65.8086 175.006 62 187.613 62Z" fill="#585858" stroke="black" stroke-width="8"/>
<line x1="109.052" y1="96.0003" x2="263.052" y2="98.0134" stroke="#070707" stroke-width="8"/>
</svg>
