<svg width="259" height="30" viewBox="0 0 259 30" fill="none" xmlns="http://www.w3.org/2000/svg">
<path d="M20.0403 29.7604C20.2006 29.7223 20.8452 29.8149 21.1242 29.7989C20.8079 30.2013 19.4623 29.8986 20.0403 29.7604ZM48.663 0.537489C48.4314 0.63698 48.1999 0.736471 47.9684 0.835962C48.6263 0.900608 49.5107 0.827584 50.1213 0.922025C50.2211 0.937884 49.962 1.22595 50.1983 1.23881C50.4347 1.25159 50.3891 0.857927 50.7328 0.81582C51.1184 0.769784 52.8839 1.04404 53.4953 1.03739C55.7821 1.01081 58.0884 0.785996 60.3798 0.949492C58.0142 1.24074 60.3979 1.53715 61.0605 1.41094C61.2073 1.38171 61.1839 0.649858 63.5572 0.834131C65.0655 0.95107 63.6724 1.99735 66.1893 1.47319C64.2539 0.741243 66.1571 0.792542 67.6742 0.76821C67.9358 0.7639 70.0481 0.873871 70.9811 0.841455C71.3003 0.830181 71.7867 0.446836 72.2102 0.436777C72.5016 0.43014 72.722 0.639717 73.1547 0.629045C75.172 0.581806 77.1558 0.565511 79.1766 0.63637C77.9958 1.62148 80.1035 1.05621 80.1982 1.10331C80.6797 1.37077 78.5023 1.4469 79.3634 1.61419C80.5668 1.58367 81.7702 1.55315 82.9736 1.52263C81.9859 1.40168 84.2811 0.69308 84.7036 1.01541C84.5176 0.144936 90.1883 1.77304 91.0515 1.48235C91.2313 1.42095 90.0544 0.990727 92.7845 1.18754C93.0801 1.20941 92.9683 1.47204 93.1234 1.44756C93.2162 1.43284 93.7783 0.59809 94.3772 1.05936C94.5959 1.22772 93.1968 1.77596 96.2692 1.55559C95.0456 0.705987 100.529 1.09548 101.538 1.30839C101.337 1.19425 101.135 1.08011 100.934 0.965972C101.931 1.27388 102.111 0.985021 102.336 1.00076C103.241 1.06399 104.486 1.3551 105.329 1.32853C106.316 1.29797 106.32 0.769596 107.47 0.975127C107.197 0.858546 106.924 0.741964 106.651 0.625382C107.446 0.65346 108.241 0.681538 109.035 0.709615C107.195 1.40904 109.432 0.742983 109.58 0.727925C109.815 0.702471 109.477 0.98881 109.87 0.953154C109.911 0.947286 109.852 0.677641 110.458 0.647356C111.724 0.585003 111.524 0.924027 112.056 0.920194C112.104 0.918447 111.934 0.675527 112.852 0.618058C115.77 0.43511 112.837 0.804214 112.725 0.837793C112.578 0.88208 113.579 1.89725 111.1 1.53728C111.933 1.65188 112.016 2.1011 112.11 2.11226C112.193 2.12142 113.635 2.05815 113.714 2.04267C114.423 1.89012 113.8 1.58314 113.938 1.52813C114.051 1.48378 115.788 1.88384 116.195 0.960479C117.027 1.81217 115.717 1.73414 114.323 1.86505C114.12 2.03983 115.651 2.20977 115.731 2.2093C117.706 2.20775 116.612 1.50718 117.044 1.05936C117.271 0.825047 118.075 1.303 117.333 0.674823C119.125 0.608515 118.038 0.972528 118.154 1.0264C118.328 1.10555 118.955 0.925509 119.034 0.949492C119.149 0.984995 118.749 1.20249 119.203 1.27909C119.278 1.29023 120.01 0.91597 119.067 0.737082C120.327 0.790287 120.224 0.471151 120.651 1.11429C121.52 -0.102451 121.281 1.8335 121.623 1.90168C122.533 2.08139 122.269 1.12609 122.317 1.0795C122.648 0.780974 125.165 1.10914 125.789 0.971465C125.543 1.65953 123.793 0.978978 123.402 1.11246C122.097 1.55656 125.24 1.45647 124.293 2.321C124.69 2.08357 125.087 1.84613 125.485 1.6087C126.213 2.16456 125.18 2.40694 127.14 2.20381C127.46 1.72403 125.754 2.27959 126.096 1.90168C126.298 1.67988 127.434 1.63224 127.457 1.51531C127.479 1.37455 126.452 1.54137 126.614 1.32487C126.967 0.857676 130.713 1.30245 127.862 1.55742C128.657 1.54944 129.067 2.47871 129.757 2.18916C130.203 2.00122 127.693 0.717806 131.458 0.953154C131.538 1.39196 129.953 1.08273 129.912 1.11612C129.854 1.16473 130.141 2.15494 130.191 2.20381C130.366 2.36473 134.211 1.8345 135.023 2.33199C134.701 1.75969 137.928 2.22987 138.279 2.05549C138.373 2.00735 138.023 1.65679 138.123 1.61968C138.747 1.39884 140.435 2.02463 141.218 2.04084C142.094 2.05921 141.983 1.75644 142.032 1.75702C142.417 1.77391 142.109 1.97916 142.345 1.97858C142.701 1.9776 145.148 2.01958 145.27 1.97675C145.306 1.96341 144.907 1.61754 145.44 1.55193C145.533 1.54056 145.474 1.95063 147.054 1.7735C148.956 1.56046 145.733 1.26356 146.523 0.834131C147.745 1.44557 147.706 0.839657 148.037 0.887234C148.152 0.904563 149.006 1.41972 149.933 1.38713C149.267 1.47075 148.602 1.55437 147.936 1.63799C148.59 1.72832 149.861 1.61652 150.4 1.71856C150.663 1.76824 150.447 2.19144 151.018 2.18001C151.139 2.17528 151.62 1.14423 150.124 1.60686C150.004 1.23871 150.716 1.47845 151.046 1.37431C151.096 1.35809 151.293 0.743038 151.715 1.12528C151.817 1.21932 150.714 3.01346 153.558 1.7149C153.649 1.67305 153.331 1.44836 153.421 1.40178C153.482 1.37024 154.208 1.46112 154.288 1.42925C154.37 1.39504 154.019 1.14974 154.117 1.10147C154.618 0.852756 155.275 1.82565 154.243 1.75152C154.588 1.87177 154.933 1.99201 155.278 2.11226C154.909 1.37901 155.82 1.90595 156.298 1.88336C159.358 1.73905 157.309 1.26215 157.835 1.01541C158.681 0.619243 158.035 1.87404 159.291 1.497C159.408 1.46175 157.889 0.929106 160.854 1.22965C160.417 1.25041 159.979 1.27116 159.541 1.29191C159.794 2.00112 161.122 1.24326 161.224 1.23332C162.388 1.13594 161.601 1.39161 163.33 1.0264C163.485 0.993609 163.821 1.16864 164.151 1.08133C165.52 0.721643 162.345 0.863068 162.258 0.575942C162.217 0.435254 165.632 0.470685 165.749 0.537489C166.247 0.833618 164.201 0.667918 164.591 1.03555C164.733 1.16609 169.6 0.897986 170.576 1.04105C171.703 1.20752 172.21 2.16908 172.217 1.08866C172.535 2.14918 172.816 1.4256 172.96 1.43291C174.703 1.53108 174.706 1.54178 176.2 1.44023C176.53 1.41816 176.809 1.73994 176.925 1.6856C176.993 1.65279 176.866 1.30843 177.199 1.20219C177.661 1.05684 180.439 1.41102 180.645 1.60137C180.852 1.79173 179.472 1.68392 179.719 1.99689C180.718 2.02853 181.675 1.95109 182.68 1.98408C183.098 1.99872 182.883 2.21777 183.064 2.22212C183.141 2.22482 184.582 2.03192 184.521 1.95112C184.378 1.76323 179.926 1.88953 181.099 1.50615C181.325 1.43208 182.124 1.93686 181.997 1.32304C185.974 1.46221 189.951 1.60137 193.928 1.74054C191.643 2.19965 189.071 1.78905 186.678 1.83209C186.35 1.83741 185.241 1.7782 185.376 2.08845C187.411 2.16877 189.941 2.00712 191.896 2.2093C191.958 2.21599 191.729 2.49474 191.963 2.53891C192.401 2.62135 193.827 2.17179 194.066 2.28804C194.107 2.31513 193.296 2.68259 193.543 2.91612C194.176 3.51541 194.337 2.18809 194.881 2.20381C195.303 2.21654 198.133 2.85832 198.837 2.45284C199.587 2.02066 196.752 2.20194 196.961 1.84857C198.879 1.49346 200.822 1.87267 202.634 1.82843C202.666 1.8273 202.389 1.55039 202.793 1.51165C203.497 1.44422 203.682 1.83701 204.024 1.89985C204.394 1.96674 205.7 1.91045 205.875 2.05366C205.897 2.07244 205.633 2.46203 205.592 2.47299C205.023 2.63356 204.821 2.1279 204.769 2.12141C204.575 2.10224 204.384 2.29592 204.206 2.28438C203.914 2.26515 203.753 2.08596 203.367 2.07014C203.101 2.05856 203.358 2.40266 203.102 2.38692C203.007 2.37976 201.992 1.59403 201.897 2.39608C201.868 2.64896 210.173 2.97371 211.003 2.77146C210.291 2.67502 209.579 2.57858 208.867 2.48214C210.313 2.7169 212.05 2.07605 212.173 3.02416C217.534 3.10167 222.896 3.17919 228.258 3.25671C229.216 3.33748 228.691 3.94674 230.266 3.76942C229.859 3.57532 229.452 3.38122 229.045 3.18713C229.852 3.32329 233.43 3.58931 234.009 3.46362C234.083 3.44715 234.188 2.89574 235.082 2.84837C235.875 2.80654 236.002 3.21968 236.426 3.29882C236.782 3.36412 237.182 3.25587 237.288 3.27868C237.369 3.29694 237.401 3.54958 237.596 3.59363C238.212 3.72984 237.713 3.01851 238.324 3.83534C238.175 3.86647 238.026 3.8976 237.878 3.92873C238.621 4.04696 239.636 4.41779 238.542 4.60075C238.353 4.63234 238.515 4.38792 238.375 4.38834C232.876 4.43376 237.267 4.90889 239.194 4.52934C239.688 4.8915 242.462 4.67038 242.554 4.74175C242.682 4.84512 242.207 5.13456 242.829 5.38447C242.96 5.43738 246.668 5.23459 245.333 5.71591C245.058 5.8152 243.28 5.71088 242.851 5.72506C243.86 6.49266 246.223 5.39291 246.489 5.4211C247.561 5.54072 244.429 6.08633 246.845 6.17552C248.702 6.24396 246.958 5.73143 247.673 5.51265C248.074 5.3899 250.176 5.95453 250.119 5.22334C250.841 5.14526 250.418 5.53242 250.507 5.56026C250.594 5.58474 252.013 5.36586 252.473 5.51998C252.529 5.53914 252.353 5.9192 252.411 5.95029C252.523 6.00353 253.892 5.92756 253.947 5.89536C253.982 5.87299 253.655 5.54025 253.789 5.45955C253.946 5.3665 255.262 5.4448 255.335 5.34968C255.437 5.20587 253.812 5.30061 254.083 4.92852C254.832 5.02221 256.053 4.77395 256.547 4.47441C256.426 4.56005 255.7 4.57235 255.447 4.54216C255.566 3.9972 257.126 4.00463 256.592 4.43595C256.931 4.20431 256.7 4.08142 256.891 3.86281C256.941 3.80744 257.422 3.79603 257.515 3.70167C257.527 3.68287 257.03 3.47726 257.13 3.36658C257.31 3.16656 258.77 3.21156 258.89 3.26403C259.226 3.41273 258.035 3.59266 257.936 3.82253C257.922 3.85783 258.935 4.30827 258.95 4.34806C259.009 4.77489 257.882 4.46729 258.011 4.85162C258.29 4.9328 258.569 5.01398 258.847 5.09516C257.772 5.48435 255.784 5.28422 255.271 5.7269C256.865 5.59516 258.532 5.61074 258.529 6.60767C258.528 7.02752 257.84 7.27365 257.867 7.3804C257.968 7.76237 258.923 7.34741 258.958 7.36758C258.987 7.39086 259 7.41353 259 7.43559C259 7.43559 259 7.4356 259 7.43561C259 7.65926 257.64 7.8203 257.572 7.92241C257.457 8.10381 258.063 8.85044 258.062 9.01559C258.041 9.04877 257.072 9.22546 257.399 9.51366C257.729 9.80476 258.577 9.81118 258.607 9.84143C258.769 10.0156 257.286 10.1744 257.242 10.2772C257.218 10.3292 258.015 10.6487 258.038 10.7405C258.058 10.8327 257.452 11.0338 257.214 11.3246C257.036 11.5408 257.554 11.7064 257.463 11.7403C257.398 11.7628 255.996 11.7591 255.928 11.7971C255.825 11.8533 256.153 12.1115 256.105 12.1761C256.038 12.269 255.585 12.1758 255.644 12.2713C255.688 12.3426 257.443 13.2329 257.431 13.4707C257.411 13.8763 255.553 12.943 257.282 14.5438C257.294 14.5543 257.715 14.4405 257.727 14.4504C257.986 14.7449 256.637 15.1979 258.287 15.1187C255.218 15.6303 257.905 15.7285 257.451 16.4115C257.276 16.674 256.086 16.7823 256.081 16.8217C256.196 17.1547 256.575 16.8964 256.704 17.0597C256.775 17.151 255.711 17.5031 255.95 17.7317C256.074 17.8496 257.204 17.8076 257.25 17.8306C257.698 18.0474 257.149 18.2809 257.247 18.4349C257.313 18.5381 257.994 18.5463 258.012 18.5649C258.041 18.6036 257.115 19.0207 256.922 19.1673C256.776 19.2802 257.326 19.4569 257.224 19.5061C256.608 19.8002 255.296 19.0501 256.56 20.1012C256.637 20.1657 257.115 20.1396 257.129 20.1525C257.424 20.4505 256.544 20.4762 256.387 20.7201C256.117 21.1405 257.381 20.9061 256.33 21.2017C257.119 21.4766 257.558 21.4651 258.482 21.3885C255.925 21.6023 255.023 22.6904 257.861 22.663C256.958 22.646 257.058 23.2601 256.789 23.2709C256.622 23.2769 255.312 22.6663 255.913 24.0363C255.988 24.2074 256.783 23.99 256.534 24.3403C254.626 24.2509 256.494 24.5631 256.496 24.6094C256.471 25.4164 251.807 24.7555 251.006 24.8475C250.076 24.9542 249.25 25.5901 249.048 25.5909C248.383 25.5912 248.935 25.2683 248.786 25.1496C248.635 25.032 246.745 25.6505 246.65 25.6166C246.284 25.4801 246.656 25.0975 246.618 25.0782C246.164 24.8438 243.624 25.1433 242.913 25.0544C242.935 25.3026 244.363 25.3223 243.472 25.7209C242.434 26.1857 242.375 25.0916 242.347 25.0434C237.592 25.0538 232.837 25.0642 228.082 25.0746C228.142 25.6567 231.25 25.2177 231.321 25.2943C231.736 25.748 226.485 25.7397 225.841 25.5342C226.33 25.6599 226.819 25.7856 227.309 25.9114C226.473 26.5806 224.624 25.7111 223.415 26.0066C223.025 26.1024 223.774 26.3607 223.759 26.3783C223.32 26.6382 222.616 26.438 223.142 26.089C222.071 26.4234 222.228 26.0544 221.405 26.0267C221.363 26.0256 221.716 26.2956 221.066 26.4076C220.761 26.4599 219.135 26.4607 218.918 26.6969C218.828 26.7964 219.653 27.8437 219.755 26.9423C221.523 27.3817 220.319 26.5316 221.006 26.5523C221.112 26.557 220.869 27.0601 222.599 26.8233C222.27 27.7306 220.278 27.0521 219.936 27.162C219.232 27.3879 222.134 27.8565 222.666 27.1492C222.417 27.8572 222.872 27.2446 223.519 27.2737C224.227 27.3053 223.918 27.5161 224.301 27.5173C225.349 27.5225 224.915 27.0228 225.778 27.4733C224.936 26.0785 227.257 27.2893 227.933 27.6546C226.833 27.7254 225.733 27.7962 224.632 27.867C224.695 27.9403 224.758 28.0135 224.821 28.0868C224.531 28.0764 224.241 28.066 223.952 28.0556C223.998 27.9854 224.044 27.9152 224.091 27.845C222.596 28.3014 222.232 27.7885 222.11 27.7828C220.541 27.7233 218.729 27.7277 217.143 27.726C216.905 27.7258 217.069 28.1823 215.334 27.8249C214.781 27.7111 215.303 27.3559 214.676 27.4092C213.892 28.3743 213.907 27.6046 213.673 27.6033C213.004 27.6035 212.595 27.8425 212.533 27.845C211.706 27.8823 210.495 27.8424 209.587 27.878C209.57 27.8816 210.043 28.1781 209.453 28.0904C209.245 28.0591 207.387 26.7934 205.762 27.206C206.185 27.2914 206.607 27.3769 207.03 27.4623C206.533 27.3429 203.052 27.6619 203.903 28.0007C204.425 28.2078 205.699 27.392 205.838 28.1765C204.68 27.9417 198.281 28.2928 197.783 28.1106C197.714 28.0845 198.138 27.83 198.043 27.7974C197.969 27.7726 196.504 27.8329 196.309 27.7352C196.193 27.6771 196.841 27.5211 196.788 27.4294C196.742 27.364 194.912 27.255 194.807 27.574C195.257 27.446 196.52 27.5578 195.858 27.8267C195.772 27.8601 195.331 27.6543 195.227 27.6967C194.267 28.0876 197.137 27.9938 197.582 27.997C195.778 28.4035 192.989 27.9243 190.9 28.1893C190.055 27.9237 192.151 27.7831 191.196 27.5631C189.214 27.107 190.669 27.9303 190.607 27.9641C190.115 28.232 188.438 26.7962 188.438 27.889C187.719 27.7245 187.952 27.5867 186.938 27.7297C187.071 27.8054 187.205 27.8811 187.338 27.9567C186.212 28.5898 183.83 26.9927 184.008 26.8709C184.489 26.5448 185.729 27.0534 185.835 27.0412C185.992 27.0231 186.426 25.9141 188.142 26.9057C188.845 26.1619 185.422 26.4037 186.979 25.8967C185.927 25.9799 181.599 25.4622 180.976 25.7887C180.902 25.8313 181.248 26.5724 180.179 26.1952C179.671 26.0156 180.895 26.007 180.663 25.8381C179.948 25.32 170.228 25.6514 168.381 25.6788C168.261 25.6796 168.305 25.4497 168.187 25.4518C167.826 25.4582 166.507 25.8012 165.86 25.6953C167.201 26.121 164.596 26.1541 163.933 26.1073C162.927 26.036 162.989 25.6312 162.555 25.5452C160.88 25.2134 158.285 26.1743 156.983 25.276C157.055 26.1676 154.733 24.8388 153.676 24.831C152.849 24.8246 151.649 25.4146 152.766 25.774C151.337 25.733 149.834 25.8993 148.494 25.9535C148.273 25.9626 148.578 25.6989 148.2 25.7228C148.166 25.7268 148.118 25.9852 147.794 26.0121C145.116 26.2373 146.419 25.6882 145.918 25.5268C145.637 25.4365 145.43 25.3915 145.278 25.3767C146.84 25.3262 148.64 25.2247 149.122 25.2174C148.711 24.6468 145.662 25.327 144.769 25.1734C144.738 25.1679 144.845 24.8534 144.814 24.8512C144.813 24.8512 144.813 24.8512 144.812 24.8512C144.477 24.8271 142.346 24.9431 142.785 25.3181C142.902 25.4183 143.884 25.4181 145.047 25.384C144.732 25.4544 144.967 25.8066 144.912 25.8217C144.238 25.9958 142.587 25.652 142.001 25.6056C141.867 25.5954 141.877 25.8211 141.855 25.8217C141.322 25.7704 141.541 25.1259 140.994 25.7905C140.03 24.9873 142.802 25.6713 142.607 25.1496C142.457 24.748 136.299 24.9637 136.317 25.5964C136.296 25.5288 136.211 25.4448 136.038 25.3492C135.652 25.1369 133.938 25.2033 133.643 25.3199C133.593 25.3429 133.613 25.957 133.551 25.9626C133.396 25.9768 131.301 25.4953 130.519 25.8583C130.941 25.9443 131.364 26.0304 131.786 26.1165C129.234 26.1218 129.629 26.3046 130.479 26.4882C130.522 26.4898 130.563 26.5131 130.604 26.5156C131.262 26.6514 132.107 26.7822 132.12 26.8306C132.168 27.0155 127.839 27.1183 128.672 26.5486C128.788 26.4707 130.791 26.7244 129.799 26.3179C129.626 26.2467 128.339 26.3627 128.272 26.3179C127.82 26.02 130.629 25.6242 130.285 25.2009C129.604 25.6039 128.729 25.3917 127.947 25.4957C127.591 25.5427 127.504 25.8506 127.46 25.8564C126.804 25.9368 127.172 25.614 126.953 25.6221C126.835 25.6276 125.543 26.3147 125.787 25.3675C121.528 26.0643 124.609 26.0636 127.222 26.0103C126.396 26.3552 124.777 26.1884 124.051 26.2684C123.79 26.2975 123.945 26.6136 123.505 26.6768C122.599 26.8068 118.273 26.4438 117.146 26.3582C117.838 26.2465 117.636 25.9022 117.101 25.926C116.567 25.95 117.016 26.4095 116.912 26.4589C116.8 26.51 114.294 26.2931 113.877 26.3527C115.763 26.1862 115.338 25.8429 113.736 25.807C113.968 25.7081 114.199 25.6092 114.431 25.5104C113.492 25.6493 111.518 25.1256 110.976 25.2815C110.891 25.3065 111.196 25.5952 111.149 25.6092C110.673 25.7319 109.053 25.4375 108.978 25.536C108.914 25.618 109.605 25.86 109.348 25.9791C109.295 26.0042 108.629 25.614 107.973 25.71C107.73 25.7452 107.876 26.0182 107.815 26.0341C107.304 26.1654 107.606 25.7057 106.672 25.7795C105.988 25.8342 105.478 26.2836 104.533 26.1348C107.637 26.7077 105.028 26.4684 103.73 26.642C103.522 26.6697 103.7 27.1653 102.457 26.924C105.102 26.0279 101.703 26.4503 101.008 26.4406C100.97 26.4375 100.956 26.1107 100.615 26.1055C100.587 26.1058 100.628 26.3266 100.311 26.3435C97.3053 26.5032 99.2273 26.2537 98.6562 26.0359C98.4131 25.9431 96.9514 26.2554 96.5577 26.263C96.4671 26.2637 96.5088 26.0342 96.1585 26.0432C95.5389 26.0597 94.9837 26.304 94.5748 26.3234C94.527 26.3245 94.5251 25.9624 93.7498 26.0798C93.5318 26.1127 93.287 26.2412 93.5966 26.3454C94.6234 26.6878 96.571 26.0951 97.7315 26.4369C98.7897 26.7482 95.4528 26.7775 95.2792 26.7793C95.2155 26.7805 95.8672 26.6007 95.2051 26.5651C94.6397 26.5355 93.6064 27.1609 92.7637 27.0247C92.6995 27.0146 92.0263 26.4843 92.0573 26.4534C92.0855 26.4308 93.1194 26.3157 92.9692 26.1622C92.9513 26.1448 92.2943 26.1483 92.2085 26.0341C92.1034 25.895 91.8202 24.5301 91.6799 24.4959C91.3198 24.4114 91.5542 24.7227 91.3212 24.701C90.8218 24.6553 89.0894 24.2517 89.033 24.7248C89.3192 24.7529 89.6054 24.781 89.8916 24.809C88.2993 24.8577 88.978 25.0591 88.7524 25.1478C88.5095 25.2438 88.5779 24.828 88.0411 24.7889C87.9243 24.7803 85.6784 24.8671 85.7192 25.0416C86.9613 24.7639 86.5007 25.2778 86.5581 25.287C86.7757 25.3204 87.0536 25.0322 87.3455 25.0379C89.3989 25.083 87.3281 25.538 87.8128 25.655C87.9797 25.6944 88.3121 25.4483 88.3829 25.4609C88.613 25.5017 88.6167 25.8239 88.7702 25.7978C89.1283 25.7374 88.7102 25.2814 88.7386 25.2577C89.0586 24.9723 90.3126 25.3274 89.532 25.8235C90.0006 26.0023 90.0555 25.3993 90.4271 25.6404C91.1659 26.1177 90.0591 25.9951 89.7592 26.0743C88.6835 26.3602 88.3643 26.1288 86.8416 26.208C86.2932 26.236 85.6437 26.5289 85.3892 26.5449C85.229 26.5551 83.7156 25.536 83.6711 27.1309C83.0828 26.9766 82.1598 25.9256 81.5538 25.9736C81.0097 26.0175 81.1827 26.5817 81.1319 26.6035C81.0541 26.6378 80.3961 26.5934 80.1735 26.6731C79.9128 26.7673 80.0429 26.9827 79.6291 27.0705C78.5994 27.2883 78.6264 26.7124 78.5206 26.675C77.2919 26.2423 77.8299 27.0615 77.5573 27.1272C77.3038 27.1876 73.7472 26.8723 72.9986 27.0796C73.3033 26.9643 73.6079 26.8489 73.9125 26.7336C73.3674 26.3743 72.7895 26.9603 72.7793 26.3161C72.6686 27.3561 71.5434 26.6609 71.2054 26.6878C71.0722 26.6988 71.0827 26.8761 70.9159 26.8837C70.2646 26.9148 68.7962 26.7737 68.4429 26.8636C66.9151 27.2505 70.8217 27.8941 71.1293 27.9329C70.5137 27.9215 67.0306 28.1544 68.6316 28.6544C68.8791 28.7315 69.3176 28.2661 69.4566 28.2479C70.3974 28.1281 69.6575 28.5451 69.7313 28.5848C69.8567 28.6488 70.4759 28.2456 70.6393 28.2937C70.6938 28.3091 70.3427 28.6867 71.24 28.6947C70.7987 29.0608 68.2768 28.7625 67.9459 28.8485C67.8281 28.8792 68.5669 29.6616 66.4086 28.9016C66.4336 28.9742 66.4586 29.0469 66.4837 29.1195C65.2819 29.1494 64.0802 29.1793 62.8784 29.2092C63.009 29.0419 63.6838 28.7058 62.834 28.7771C62.3447 28.8184 62.7067 29.1911 62.6621 29.2019C62.223 29.3045 54.452 29.1805 52.946 29.222C52.4337 29.2355 51.0057 29.5351 50.8968 29.5407C50.2458 29.5706 47.9402 29.3757 47.4803 29.418C47.1931 29.4451 47.4662 29.7567 47.2096 29.7421C46.9711 29.7281 47.2182 29.4269 47.1474 29.4143C46.5606 29.3052 42.1037 29.7002 41.0454 29.4161C41.6922 29.5014 44.9201 28.8997 44.8552 28.6874C44.8411 28.6582 44.0567 28.4291 43.8948 28.5409C43.6275 28.2801 42.7095 29.074 42.2103 28.9181C42.1538 28.9004 42.3762 28.4551 41.4851 28.3742C41.1781 28.3466 40.3743 28.6937 39.5654 28.3047C38.3942 28.4916 32.2369 27.9141 31.8144 28.3925C31.8019 28.4178 32.669 28.5826 32.0832 28.7789C31.3044 29.0399 32.0038 28.1608 31.0962 28.0849C30.9594 28.0734 28.4341 28.1624 28.3515 28.2168C27.5867 28.7102 29.7932 28.9102 29.7623 28.9675C29.6854 29.112 27.852 29.1993 27.7774 29.1653C27.7065 29.1298 29.2018 28.4761 27.405 28.724C27.6108 28.8021 27.8166 28.8802 28.0225 28.9584C27.1774 29.1105 27.0969 28.6582 26.8922 28.6306C26.2558 28.5431 25.5673 29.2301 24.5476 28.3816C24.278 28.1564 24.7256 27.9063 24.6919 27.8725C24.368 27.5694 23.9548 28.3802 23.4677 27.7755C23.4311 27.7304 24.5645 27.368 22.5835 27.3671C22.7198 27.4251 22.8562 27.4831 22.9925 27.5411C22.7132 27.6705 20.7074 27.7475 20.4375 27.7169C19.6492 27.6274 20.3367 27.2112 19.5444 27.2609C20.0525 27.8314 17.6432 27.9058 17.7817 27.4147C17.4452 28.0315 15.3985 27.5557 14.4363 27.5411C13.8293 27.5323 12.591 27.8014 12.3981 27.77C12.1631 27.7314 12.2345 27.3106 11.8102 27.217C11.6892 27.1903 10.4262 27.4987 9.31747 27.0632C9.1026 26.9792 8.65135 26.2655 9.05071 26.0872C9.73428 25.7819 11.0274 26.3569 11.0109 25.9352C10.9915 25.484 9.24979 25.7523 8.78098 25.6935C6.61662 25.4212 7.86643 24.9416 7.81076 24.7962C7.66642 24.4434 6.48381 24.4544 6.43446 24.4227C6.22995 24.2818 7.06797 24.0026 7.08062 23.7873C7.09589 23.5069 5.95597 23.001 6.21512 22.9065C6.58608 22.7723 7.63368 23.194 7.7001 23.1738C8.5647 22.9019 7.37958 22.2542 7.05296 21.936C6.95394 21.8381 7.34846 21.6772 7.26637 21.6485C6.01321 21.2129 7.0022 22.5588 6.16869 22.4689C5.42502 22.3887 6.38185 21.9631 6.35344 21.9397C6.31673 21.9139 5.42757 21.8907 5.28837 21.7401C5.21977 21.6647 7.53084 20.8368 7.43433 20.4656C6.69694 20.5474 5.95956 20.6292 5.22217 20.711C5.16437 20.227 6.22497 20.5833 6.33467 20.5334C6.55551 20.4332 5.93971 20.1883 5.96615 20.0353C5.98032 19.938 6.70307 19.5907 6.05013 19.4475C5.82572 19.3981 5.35479 19.7374 4.53748 19.3907C7.38181 18.948 5.41074 18.6759 5.3269 18.5045C5.24478 18.3331 6.60268 17.9296 4.95442 18.0009C4.88296 17.059 4.98996 17.7032 5.45831 17.5376C6.03206 17.3342 4.70602 17.024 6.80299 17.2593C6.68369 16.8183 4.99821 16.8495 4.90898 16.8144C4.83192 16.7825 5.20657 16.5656 5.07298 16.4921C3.4929 15.64 4.57818 16.0291 4.12054 15.485C4.07984 15.4363 2.58641 15.2346 3.72336 15.1554C5.79472 15.0113 6.66041 15.6362 7.00849 14.3002C5.47638 13.7199 3.62001 14.5822 3.15427 14.5969C2.4414 14.6179 3.17987 14.3454 3.09203 14.2691C3.06152 14.2444 2.4472 14.2669 2.43895 14.2453C2.00091 13.2263 5.17372 14.2284 6.17264 14.0512C5.90489 13.8986 5.63714 13.746 5.36939 13.5934C5.73265 13.5873 6.0959 13.5812 6.45916 13.5751C4.7286 13.2684 6.39815 13.459 6.82967 12.6339C6.92654 12.4485 5.78963 12.7664 7.08655 12.2512C6.13 12.1322 6.43511 11.9637 5.56897 12.1963C5.59132 11.8656 7.54008 11.4925 8.30871 11.3228C5.59332 10.9512 7.14181 12.1642 4.79437 11.5224C4.35906 11.9319 5.47953 11.8522 5.38816 11.9198C5.06035 12.1628 4.29188 11.7769 3.36472 12.6284C3.21375 12.7682 3.85255 13.1985 2.90727 13.1777C2.80272 13.1748 2.2004 12.807 2.20875 12.7804C2.2886 12.4924 2.88464 12.6003 2.90924 12.4801C2.93234 12.3663 2.26736 12.4347 2.26506 12.4032C2.24463 12.0424 2.8199 12.2653 2.73634 12.1523C2.55591 11.9066 0.163981 11.1302 3.28568 11.3576C0.692775 11.7655 2.95371 11.756 3.96345 11.5993C4.22095 11.56 4.28617 11.3445 4.65308 11.2697C5.12505 11.1728 5.67746 11.2763 5.92168 11.2367C6.18435 11.1931 4.69192 10.6837 6.85041 10.8357C5.75189 10.329 3.81148 10.8693 2.73239 10.5135C0.555286 9.79447 4.25036 9.6401 4.6353 9.57042C4.73785 9.55155 4.39403 9.26048 4.4624 9.24265C4.57418 9.2153 6.6713 9.34985 6.87808 9.10898C7.0843 8.86833 6.10995 9.12007 6.04519 8.8691C6.00128 8.70014 8.53114 8.40045 7.16164 8.28498C6.21772 8.20581 4.47783 8.8849 4.18476 8.15496C5.57292 8.09454 6.96107 8.03411 8.34922 7.97368C7.58944 7.69596 6.82967 7.41824 6.06989 7.14052C7.62794 7.05245 8.97488 7.36599 10.4547 6.9684C6.89879 6.07847 11.6092 6.25819 11.661 6.14988C11.6784 6.08511 10.2787 5.36278 10.0535 5.23066C11.2938 4.95278 15.0623 4.817 12.8575 3.92507C13.2577 4.12646 14.2268 3.62933 14.214 3.5918C14.091 3.19777 11.9773 3.45328 12.322 3.0974C12.7215 2.68441 13.2813 3.24469 13.8959 3.19994C17.0497 2.96668 16.1844 0.909646 19.3468 1.23515C19.2838 1.1619 19.2209 1.08866 19.158 1.01541C22.5953 1.13199 26.0326 1.24858 29.4699 1.36516C30.8147 0.736979 34.3939 0.35446 36.1518 0.423959C36.5058 0.437494 38.2437 0.767177 38.3748 0.824975C38.6177 0.935747 37.2823 0.978014 37.8858 1.18571C38.0132 1.22834 40.9555 1.36686 40.7451 1.01541C40.4153 0.974664 39.3835 1.15133 39.2146 1.06851C38.0284 0.477431 47.0991 0.949643 47.5485 0.711446C47.3476 0.597305 47.1467 0.483166 46.9458 0.369025C47.5182 0.425179 48.0906 0.481335 48.663 0.537489ZM22.3612 28.7643C22.0177 29.1169 21.1567 28.8521 20.648 28.951C19.9451 29.0897 18.7503 30.4476 19.2647 29.0865C20.2969 28.9791 21.329 28.8717 22.3612 28.7643ZM37.4461 29.2898C36.754 29.1004 37.2908 28.3402 37.8581 28.6562C37.921 28.6921 38.3825 29.5447 37.4461 29.2898ZM30.1902 28.9291C30.2193 28.919 30.8174 28.9391 30.8383 28.951C31.3747 29.2562 29.5714 29.1939 30.1902 28.9291ZM65.2418 28.539C64.4791 28.5719 65.0314 29.2629 65.5056 28.9785C65.5354 28.9605 65.2919 28.5374 65.2418 28.539ZM64.6993 28.5207C64.1071 27.9019 62.9142 29.1561 63.8625 29.0298C63.9545 29.017 64.7267 28.5509 64.6993 28.5207ZM34.979 28.9877C35.0569 28.7505 35.7709 28.865 36.0757 28.9217C36.0674 29.1383 35.278 28.9612 34.979 28.9877ZM53.0803 28.9217C53.1106 28.7353 50.6292 28.7456 50.4601 28.9913C50.8518 28.8871 53.0518 29.0893 53.0803 28.9217ZM59.4441 28.6599C59.3812 28.6277 58.524 28.6767 58.549 28.8412C58.9674 29.057 59.7273 28.8058 59.4441 28.6599ZM72.0926 28.6709C72.1392 28.6296 71.4972 27.5826 73.0184 28.2717C73.2417 28.3726 72.4441 28.6461 72.5234 28.6837C72.6896 28.757 72.821 28.7911 72.9265 28.7972C72.218 28.884 71.4821 28.9248 71.4109 28.8613C71.0766 28.5614 72.072 28.6881 72.0926 28.6709ZM78.733 27.8908C78.879 27.7201 79.8112 27.8114 80.0234 27.8817C80.0598 27.8949 79.901 28.3437 80.3208 28.3101C80.6577 28.2824 80.1544 27.8228 80.8108 27.8963C81.4743 27.9701 80.5879 28.2978 80.6458 28.3211C80.7235 28.3518 81.7497 28.1454 81.7178 28.4127C81.694 28.6107 80.5946 28.4768 80.3227 28.5189C79.9746 28.573 80.3967 28.9029 79.8149 28.832C79.4493 28.7878 79.652 28.2076 79.5748 28.1783C79.5101 28.1547 78.2322 28.4886 78.735 27.8927C78.7344 27.892 78.7337 27.8914 78.733 27.8908ZM73.1182 28.7716C73.0648 28.7912 73.0022 28.8016 72.9265 28.7972C72.9908 28.7894 73.0548 28.7802 73.1182 28.7716ZM24.3609 28.5097C24.7207 28.6887 23.6528 28.9181 23.2484 28.6837C23.2414 28.4947 24.3036 28.4819 24.3609 28.5097ZM73.7752 28.2992C74.8276 28.4445 74.0536 28.6444 73.1182 28.7716C73.4152 28.6624 73.4218 28.2506 73.7752 28.2992ZM43.8948 28.5409C43.9392 28.5841 43.9674 28.6516 43.9709 28.7624C43.8542 28.6412 43.8438 28.5761 43.8948 28.5409ZM46.35 28.7386C47.1917 28.401 45.4816 28.4146 45.4924 28.6562C45.4975 28.7474 46.3163 28.7521 46.35 28.7386ZM66.2199 28.572C66.1429 28.539 67.339 27.5195 65.6024 28.2845C66.5293 28.4047 65.5514 28.5157 65.5658 28.605C65.6036 28.8616 67.1606 28.6149 67.5053 28.7258C67.7752 28.2667 66.4741 28.6809 66.2219 28.572C66.2212 28.572 66.2206 28.572 66.2199 28.572ZM90.7008 28.138C90.4898 28.4071 89.8206 28.3205 89.3689 28.3047C89.5799 28.0356 90.2492 28.1222 90.7008 28.138ZM208.88 28.1765C205.785 28.4252 205.384 27.3296 208.216 27.7626C208.271 27.7717 209.067 28.0654 208.88 28.1765ZM182.322 27.8927C182.03 27.4152 182.995 27.3384 183.629 27.5356C183.772 27.5799 184.303 28.0636 183.697 28.1582C183.716 27.5794 182.78 27.3583 182.322 27.8927ZM74.37 27.9934C74.6765 27.6749 75.6197 27.9016 76.1168 27.9494C75.8135 28.2116 74.8095 28.093 74.37 27.9934ZM198.711 27.6052C198.385 27.569 198.165 27.9844 198.221 28.019C198.473 28.1775 199.083 27.8417 198.711 27.6052ZM71.3249 27.9439C71.2818 27.7536 72.5312 27.5705 72.6182 28.041C72.3512 28.0069 71.3559 28.0633 71.3249 27.9439ZM89.8491 27.9952C89.6552 27.8984 90.6597 27.7252 90.9636 27.8212C90.9392 28.0238 89.9763 28.0581 89.8491 27.9952ZM193.46 27.7462C193.168 27.7101 192.438 27.6991 192.357 27.867C192.257 28.0769 193.327 28.0054 193.46 27.7462ZM247.806 27.3836C247.843 27.459 246.713 28.0028 246.21 27.8652C245.256 27.6019 247.766 27.3303 247.806 27.3836ZM201.798 27.3909C202.72 27.786 201.697 27.4034 201.737 27.8194C202.357 27.8344 203.899 27.8549 202.839 27.4459C202.632 27.3667 202.087 27.4179 201.798 27.3909ZM200.949 27.2518C200.85 27.3865 200.186 27.8114 200.76 27.781C201.025 27.7662 201.453 27.2942 200.949 27.2518ZM240.804 27.5685C239.978 27.2002 243.763 27.3978 243.872 27.4623C243.929 27.4964 243.967 27.5285 243.988 27.5557C244.127 27.439 244.842 27.418 244.925 27.7132C244.711 27.6888 244.126 27.7148 244.058 27.6821C244.028 27.6681 244.006 27.6551 243.991 27.6418C243.739 27.8981 240.962 27.6384 240.804 27.5685ZM234.533 27.1895C235.478 26.6462 235.645 27.5699 235.564 27.5997C234.535 27.9778 235.206 27.2965 235.174 27.2646C235.103 27.2115 234.372 27.5276 234.536 27.1895C234.535 27.1895 234.534 27.1895 234.533 27.1895ZM239.519 27.4166C239.557 27.4045 240.351 27.4331 240.383 27.4477C241.033 27.7581 238.789 27.6786 239.519 27.4166ZM83.7383 27.2444C84.3061 27.3363 83.7491 27.6761 83.3717 27.5539C83.3407 27.5418 83.2374 27.1633 83.7383 27.2444ZM200.495 27.3433C200.364 27.2791 196.996 27.0369 197.198 27.5502C197.484 27.4897 201.312 27.7539 200.495 27.3433ZM175.328 27.2188C175.922 27.2228 175.274 27.7069 174.957 27.5264C174.84 27.4594 175.178 27.2181 175.328 27.2188ZM69.6404 27.5045C69.0238 27.7704 69.1513 26.8782 69.6858 27.184C69.7068 27.196 69.6646 27.4941 69.6404 27.5045ZM180.072 27.4971C178.024 27.7905 178.509 26.2557 181.172 26.7738C181.088 26.8422 181.005 26.9106 180.922 26.9789C183.995 27.2092 181.132 27.0871 180.379 27.173C180.093 27.2057 180.333 27.4619 180.074 27.499C180.073 27.4984 180.073 27.4977 180.072 27.4971ZM172.205 27.1895C170.232 26.1001 173.998 26.8095 175.078 26.6676C174.031 27.1175 172.668 27.0494 174.521 27.5099C171.811 27.599 172.939 27.1651 172.831 27.1291C172.703 27.0886 172.289 27.2363 172.205 27.1895ZM177.407 27.1822C177.521 27.1504 178.381 27.3722 178.69 27.336C178.257 27.7081 176.65 27.3983 177.407 27.1822ZM227.959 27.4422C228.03 27.1506 228.207 26.9359 228.885 27.0448C228.675 27.1913 228.242 27.3174 227.959 27.4422ZM21.7091 27.2298C21.2422 27.2089 20.3125 27.099 20.5976 27.4056C20.6288 27.4317 21.7077 27.4019 21.7091 27.2298ZM190.714 27.1071C190.615 27.0713 188.047 27.0472 188.934 27.369C189.201 27.466 191.538 27.4248 190.714 27.1071ZM204.013 27.1437C203.798 27.1407 202.925 27.1956 202.906 27.2646C202.847 27.503 203.919 27.3719 204.013 27.1437ZM19.3537 26.9313C19.2922 26.9011 17.8661 26.9546 18.0228 27.0961C18.3204 27.3636 19.5644 27.0355 19.3537 26.9313ZM85.8042 26.5614C85.9234 26.5506 86.0811 26.8674 86.1223 26.8709C86.2193 26.8754 88.4015 26.7536 87.5678 27.1602C87.4287 27.2283 84.2889 27.0722 83.8805 27.032C83.7226 26.5972 85.0638 27.0108 85.3902 26.9661C85.4477 26.9576 85.4845 26.5939 85.8032 26.5633C85.8035 26.5626 85.8039 26.562 85.8042 26.5614ZM231.491 27.1346C231.587 26.8581 234.153 26.6751 234.123 27.0101C233.246 27.0516 232.368 27.0931 231.491 27.1346ZM230.188 27.0888C229.641 26.8932 230.922 26.8286 231.3 26.9148C231.304 27.1008 230.268 27.1174 230.188 27.0888ZM199.147 26.111C198.889 26.1786 199.682 26.5819 199.504 26.6603C199.391 26.7091 198.815 26.558 198.631 26.6841C198.579 26.7242 199.166 27.1033 199.336 27.087C199.578 27.0651 199.344 26.7667 199.607 26.7647C200.482 26.7583 201.257 26.9711 202.077 26.9661C202.151 26.9651 201.577 26.7544 202.208 26.7574C202.306 26.7574 202.892 27.0712 203.648 27.0247C205.317 26.0528 206.542 27.0071 208.659 26.6566C208.579 26.5651 206.996 26.3196 206.902 26.3106C205.133 26.1507 201.962 26.1332 200.108 26.1311C199.632 26.1303 199.863 26.336 199.658 26.3435C199.496 26.3491 199.689 25.9682 199.147 26.111ZM21.9571 27.0192C21.7345 26.6388 20.9539 26.8796 20.4553 26.8599C20.6308 27.2031 21.4698 26.9349 21.9571 27.0192ZM218.67 26.794C218.42 26.8087 217.645 26.6941 217.581 26.8086C217.498 26.9582 218.617 27.0526 218.67 26.794ZM98.1089 26.6695C98.133 26.6591 98.7343 26.6795 98.757 26.6914C99.2942 26.9968 97.4908 26.9342 98.1089 26.6695ZM112.491 26.7427C112.947 26.6957 113.407 26.5769 113.56 26.8855C113.27 26.8383 112.438 26.9577 112.491 26.7427ZM132.333 26.7336C132.239 26.3293 133.612 26.5911 133.871 26.6273C133.775 26.807 132.403 27.0248 132.333 26.7336ZM227.86 26.1732C228.699 26.1971 228.522 25.5848 229.055 25.8619C229.142 25.9088 229.423 27.1838 228.5 26.7061C228.334 26.6202 228.984 26.3172 227.86 26.1732ZM181.606 26.7867C181.819 26.5192 182.486 26.5986 182.936 26.62C182.835 26.8187 181.926 26.7676 181.606 26.7867ZM16.7779 26.6255C16.3845 26.248 14.5664 26.528 15.0163 26.7775C15.0803 26.81 16.5229 26.6112 16.7779 26.6255ZM76.5031 26.7738C77.2511 26.4765 75.7018 26.3845 75.2127 26.675C75.4342 26.6559 76.4527 26.7934 76.5031 26.7738ZM127.567 26.5138C127.603 26.5016 128.396 26.5303 128.432 26.5449C129.082 26.8554 126.838 26.7759 127.567 26.5138ZM107.762 26.252C108.047 26.0073 109.926 26.2047 110.347 26.4497C109.942 26.8075 107.407 26.5575 107.762 26.252ZM224.408 26.3472C225.007 26.3345 225.574 26.4099 226.124 26.5156C226.009 26.7216 224.471 26.501 224.408 26.3472ZM130.479 26.4882C130.522 26.4898 130.563 26.5131 130.604 26.5156C130.561 26.5069 130.52 26.4969 130.479 26.4882ZM211.012 26.2025C210.51 26.1212 210.614 26.4986 210.645 26.5102C211.022 26.6324 211.579 26.2944 211.012 26.2025ZM21.384 26.4589C21.2102 26.1183 20.3666 26.3825 19.8813 26.3014C20.0221 26.5704 20.9931 26.4946 21.384 26.4589ZM170.092 26.4918C169.462 26.1225 172.026 25.6935 172.566 25.9315C172.606 26.1597 170.184 26.5424 170.092 26.4918ZM74.1803 26.263C74.13 25.9961 73.0535 26.3181 73.2822 26.4442C73.427 26.5245 74.2104 26.4288 74.1803 26.263ZM173.856 26.0872C174.096 26.0057 174.658 26.2691 174.46 26.4296C174.206 26.6353 173.793 26.1105 173.856 26.0872ZM195.468 25.8729C195.363 25.8321 193.947 26.1061 194.532 26.3783C194.938 26.5675 195.002 26.1817 195.098 26.1806C195.204 26.1818 197.478 26.6539 195.468 25.8729ZM155.733 26.2593C156.267 26.1567 156.913 26.2758 157.472 26.2684C157.245 26.4335 155.96 26.4785 155.733 26.2593ZM78.3319 26.1915C78.2021 26.0836 74.6665 26.0186 76.675 26.3508C76.7921 26.3696 78.7261 26.5184 78.3319 26.1915ZM227.86 26.1732C227.754 26.1702 227.632 26.1575 227.491 26.1311C227.631 26.1415 227.754 26.1596 227.86 26.1732ZM218.332 26.1329C218.525 25.9387 217.552 25.8867 217.265 25.9901C217.176 26.2275 218.305 26.1601 218.332 26.1329ZM157.515 25.9974C157.837 25.8863 158.422 26.0049 158.821 25.9919C158.754 26.1726 157.654 26.1809 157.515 25.9974ZM134.885 25.7942C135.524 25.9015 136.312 25.8522 136.324 25.6312C136.337 25.6657 136.368 25.7024 136.42 25.7393C136.472 25.7757 137.158 25.673 137.455 25.7484C139.238 26.1964 130.569 26.0115 135.594 25.3877C135.357 25.5232 135.121 25.6587 134.885 25.7942ZM105.22 25.7319C104.856 25.463 103.839 25.8 104.103 25.9059C104.287 25.9784 105.583 26.0027 105.22 25.7319ZM119.196 25.5726C119.087 25.5246 118.094 25.713 118.069 25.8546C118.64 26.0039 119.691 25.7956 119.196 25.5726ZM102.427 25.417C102.2 25.3764 101.909 25.8101 101.935 25.829C102.167 25.9873 102.81 25.6584 102.427 25.417ZM226.122 25.005C225.783 24.8808 224.702 25.1947 224.466 25.4811C224.423 25.4257 224.304 25.3535 224.088 25.2668C224.089 25.2668 224.089 25.2668 224.09 25.2668C223.798 25.1511 215.058 25.0248 220.92 25.5763C221.104 25.594 220.853 25.3369 221.6 25.3822C221.65 25.3855 221.674 25.5954 221.826 25.6056C222.177 25.6278 224.045 25.7598 224.421 25.5909C224.424 25.6298 224.448 25.6668 224.5 25.7008C224.96 26.0035 226.385 25.1007 226.122 25.005ZM121.165 25.5342C120.965 25.4564 120.333 25.5302 120.267 25.7154C120.581 25.8062 121.629 25.7156 121.165 25.5342ZM78.2222 25.4316C77.815 25.2793 76.783 25.5641 77.0949 25.7154C77.2862 25.8086 78.6918 25.6065 78.2222 25.4316ZM114.828 25.633C117.163 25.852 115.385 25.6153 115.743 25.3437C115.438 25.4402 115.133 25.5366 114.828 25.633ZM236.929 25.7063C236.557 25.6438 236.994 25.1079 237.404 25.3987C237.533 25.491 237.137 25.7402 236.929 25.7063ZM253.742 25.5397C253.424 25.0644 254.976 25.3437 254.371 25.6697C254.343 25.6807 253.765 25.5577 253.742 25.5397ZM241.994 25.3456C241.741 25.6691 241.576 25.7075 240.864 25.6276C241.918 25.5364 240.941 25.2502 241.994 25.3456ZM136.317 25.5964C136.321 25.6095 136.325 25.6192 136.324 25.6312C136.319 25.6193 136.318 25.608 136.317 25.5964ZM100.232 25.5012C99.9399 25.2271 99.1206 25.2473 99.3646 25.5232C99.3882 25.5487 100.112 25.7037 100.232 25.5012ZM224.466 25.4811C224.505 25.5302 224.485 25.5619 224.421 25.5909C224.418 25.5543 224.435 25.5197 224.466 25.4811ZM104.631 25.2778C104.601 25.4823 105.848 25.5618 105.898 25.5378C106.614 25.1832 105.146 25.2655 104.631 25.2778ZM69.9783 25.1441C69.9139 25.1655 70.3287 25.6934 70.5829 25.4866C70.7798 25.3261 70.2191 25.0629 69.9783 25.1441ZM244.411 25.2137C244.806 25.2141 245.362 25.2138 245.465 25.4646C245.2 25.4261 244.403 25.3977 244.411 25.2137ZM253.134 25.1954C252.668 25.4902 251.602 25.4894 250.921 25.4408C250.909 25.0527 252.696 25.2867 253.134 25.1954ZM227.193 25.1496C227.161 25.1338 226.171 25.0181 226.306 25.2778C226.504 25.6587 227.473 25.2909 227.193 25.1496ZM71.9009 25.4243C72.3437 25.2454 71.3248 24.6957 70.8576 25.1203C70.6177 25.3378 71.8263 25.4543 71.9009 25.4243ZM97.6741 25.1423C97.0898 25.2926 98.5379 25.5604 98.7402 25.2888C98.4711 25.267 97.8817 25.0891 97.6741 25.1423ZM117.554 24.8676C115.713 24.0843 116.716 25.5133 117.042 25.3877C117.088 25.3697 117.599 24.8861 117.554 24.8676ZM12.2094 25.0599C11.9487 25.1687 12.9205 25.563 13.0462 25.3034C13.1239 25.141 12.3761 24.9905 12.2094 25.0599ZM145.278 25.3767C145.201 25.3792 145.124 25.3818 145.047 25.384C145.104 25.3712 145.18 25.3671 145.278 25.3767ZM92.3705 24.0931C93.6666 25.199 93.5305 24.3466 93.6431 24.3513C93.8865 24.3632 94.452 24.6622 94.9107 24.6131C94.3854 24.7376 93.8601 24.8621 93.3348 24.9867C93.7497 25.0665 97.3545 25.4736 97.4301 25.2943C97.5383 25.0389 96.404 25.119 96.371 25.0965C96.3234 25.0645 96.1462 24.3545 96.041 24.3275C95.8679 24.2843 92.8536 24.2696 92.3705 24.0931ZM113.704 24.9903C114 25.0747 114.084 25.356 114.221 25.2888C114.268 25.2658 114.276 24.9975 114.436 24.9281C114.192 24.9488 113.948 24.9696 113.704 24.9903ZM90.0497 25.0874C89.6828 24.7595 91.3278 24.884 91.3805 24.9207C91.6619 25.143 90.3495 25.3552 90.0497 25.0874ZM104.008 25.0398C103.948 25.0206 102.685 24.9183 102.695 25.1002C103.029 25.2389 104.718 25.2793 104.008 25.0398ZM114.633 24.9098C115.077 24.941 115.916 25.2112 115.82 24.8072C115.819 24.8072 115.819 24.8072 115.818 24.8072C115.423 24.8414 115.028 24.8756 114.633 24.9098ZM73.4165 24.571C72.5941 23.9275 72.9837 24.7406 73.712 24.9482C73.9325 24.6593 73.5514 24.6757 73.4165 24.571ZM70.7845 24.0912C70.5557 23.9754 68.1977 24.1023 68.5575 24.4428C68.6854 24.5642 70.0413 24.2581 70.1038 24.2817C70.1984 24.3166 69.7659 24.6932 70.4891 24.6186C70.4468 24.491 70.8629 24.1299 70.7845 24.0912ZM72.7358 24.159C71.9185 23.6696 71.7348 24.5722 72.3495 24.5747C72.5897 24.5762 72.8524 24.2296 72.7358 24.159ZM76.0743 24.2359C75.7802 24.1503 74.9969 24.0254 74.4569 24.3256C75.1795 24.3513 75.9021 24.3769 76.6246 24.4025C76.7079 24.2325 76.3316 24.3111 76.0723 24.2359C76.073 24.2359 76.0736 24.2359 76.0743 24.2359ZM258.046 22.8827C257.396 22.6267 258.892 22.5287 258.956 22.5915C259.144 22.8003 258.336 22.997 258.046 22.8827ZM7.13694 16.8601C6.9565 16.7581 6.83853 16.4224 6.44138 16.5983C6.84086 16.8461 7.24035 17.0939 7.63983 17.3417C7.95028 16.7739 7.33416 16.9727 7.13694 16.8601ZM5.61145 14.7855C5.66788 14.7717 5.35962 13.8986 6.08866 14.4815C6.58124 14.8751 3.90258 15.2587 3.41906 14.8715C3.95332 14.6916 5.12569 14.8976 5.61145 14.7855ZM0.919394 11.006C0.888508 10.9364 1.90619 10.8343 2.02399 10.8833C2.64251 11.1421 1.08649 11.3791 0.919394 11.006ZM4.16599 11.1727C3.68872 11.0031 4.74603 10.8938 5.06113 10.9914C5.09169 11.1539 4.23972 11.1974 4.16599 11.1727ZM251.47 10.237C250.953 9.64354 250.491 10.921 251.286 10.6636C251.324 10.6515 251.492 10.266 251.47 10.237ZM1.91432 10.1253C2.39159 10.2948 1.33428 10.4041 1.01918 10.3065C0.989879 10.1442 1.84165 10.1005 1.91432 10.1253ZM251.106 8.82333C250.42 8.39632 250.662 9.82946 250.747 9.88721C251.1 10.1153 252.311 9.55279 252.558 9.41295C250.746 9.62802 251.429 9.02455 251.106 8.82333ZM247.942 9.68395C247.306 9.83685 248.932 10.1293 249.243 9.72973C248.926 9.74885 248.123 9.63976 247.942 9.68395ZM244.08 9.22434C243.738 9.17302 242.721 9.05012 242.55 9.27561C242.923 9.23479 243.936 9.45637 244.08 9.22434ZM243.306 8.54866C242.771 8.24225 242.643 9.135 243.259 8.8691C243.283 8.85881 243.325 8.56569 243.306 8.54866ZM240.299 8.22638C239.948 7.87135 239.548 8.73593 240.116 8.75924C240.285 8.76457 240.336 8.26708 240.299 8.22638ZM250.247 7.28152C249.745 7.12906 249.098 7.74821 250.17 7.81621C249.794 7.91082 249.417 8.00542 249.04 8.10003C250.445 8.44708 250.342 7.58844 250.745 7.62394C251.309 7.67439 251.265 8.38293 251.151 8.60542C251.614 8.17133 253.577 8.16438 254.712 8.08172C253.715 7.89954 252.096 7.58371 251.112 7.46829C250.831 7.43488 250.558 7.62919 250.319 7.60746C249.934 7.57157 250.276 7.29178 250.249 7.28152C250.249 7.28152 250.248 7.28152 250.247 7.28152ZM236.347 8.21356C235.316 7.81139 235.968 8.6797 236.551 8.52485C236.576 8.51293 236.373 8.22339 236.347 8.21356ZM0.546915 7.48661C1.92465 7.84955 0.923206 8.33058 3.80537 7.60013C2.5945 8.11724 3.7384 7.97202 3.50205 8.1806C3.31244 8.34562 2.60199 8.20896 3.01496 8.54133C2.47214 8.17957 0.11549 8.27963 0.0104258 8.22089C0.0114138 8.22089 0.0124018 8.22089 0.0133898 8.22089C-0.0497125 8.18609 0.107284 7.37118 0.546915 7.48661ZM244.075 6.95375C243.731 5.90017 243.596 7.57242 242.92 6.69922C242.02 7.96724 245.407 6.69941 245.817 7.77043C242.139 7.64598 248.247 8.83168 245.68 7.22842C247.795 7.81032 246.373 7.02986 246.7 6.82557C247.049 6.60795 248.245 6.84445 248.184 6.45202C248.184 6.45202 248.183 6.45202 248.183 6.45202C247.451 6.47949 246.719 6.50695 245.987 6.53442C246.703 7.38096 245.208 7.12713 244.701 6.43737C244.492 6.6095 244.284 6.78162 244.075 6.95375ZM248.217 7.74846C248.145 7.72907 246.553 7.84772 246.656 8.01763C246.869 8.126 249.128 7.99606 248.217 7.74846ZM255.222 7.56351C254.651 7.56145 253.767 7.3963 253.456 7.7155C254.027 7.71764 254.911 7.88289 255.222 7.56351ZM225.794 7.50309C225.066 7.76502 227.309 7.84261 226.66 7.53238C226.628 7.51778 225.83 7.49086 225.794 7.50309ZM242.418 7.11306C241.678 6.79107 242.028 7.81593 242.577 7.54886C242.608 7.53312 242.453 7.12774 242.418 7.11306ZM1.66337 7.36209C1.71291 7.11099 3.71187 7.28736 4.0662 7.28518C3.86488 7.51858 1.60653 7.64994 1.66337 7.36209ZM256.228 6.62415C255.091 5.72128 253.548 6.76413 253.378 6.74134C253.21 6.71812 253.474 6.32344 253.436 6.31285C253.348 6.29072 251.556 6.32384 251.47 6.35131C251.408 6.37273 251.732 6.92735 251.362 7.10207C252.083 6.78692 255.359 6.98408 255.529 6.92262C255.661 6.87354 254.668 6.29112 256.226 6.62415C256.227 6.62415 256.227 6.62415 256.228 6.62415ZM252.956 6.62048C253.403 6.85297 252.148 6.88207 251.844 6.79627C251.169 6.60429 252.898 6.59294 252.956 6.62048ZM249.936 6.40624C249.793 6.3541 248.499 6.30673 248.389 6.56555C249.001 6.9013 250.261 6.52775 249.936 6.40624ZM235.539 6.44103C235.203 6.47419 234.279 6.2753 234.226 6.50146C234.562 6.46847 235.486 6.66721 235.539 6.44103ZM8.48359 5.38814C7.92534 5.19889 9.21876 5.12159 9.59609 5.21235C9.61657 5.36322 8.53112 5.40439 8.48359 5.38814ZM242.293 4.9505C242.094 4.88172 238.035 5.05334 237.466 5.15925C238.023 5.33028 242.045 5.34343 242.228 5.25996C242.281 5.23497 242.318 4.96132 242.293 4.9505ZM251.071 4.84612C251.444 4.51308 251.687 4.91252 251.733 4.91754C252.194 4.9685 253.148 4.89341 252.939 5.21418C252.127 5.08476 250.331 5.50751 251.071 4.84612ZM235.25 4.93402C233.872 5.05761 236.52 5.40849 236.172 5.06037C236.15 5.03932 235.393 4.92104 235.25 4.93402ZM242.746 4.85345C243.05 4.58433 247.111 4.81642 247.763 4.81683C247.179 5.3132 246.708 4.93617 245.924 4.96148C245.712 4.9689 245.769 5.1754 245.746 5.17573C245.38 5.18529 245.654 4.94679 245.428 4.94317C245.285 4.94154 242.319 5.23262 242.746 4.85345ZM251.284 4.6154C251.511 4.42448 254.046 4.3431 254.148 4.39384C254.911 4.77118 251.481 4.68187 251.284 4.6154ZM242.374 4.41215C242.811 3.83527 244.827 4.22161 243.447 4.5092C243.315 4.53536 242.757 4.28529 242.374 4.41215ZM235.398 4.38468C235.33 4.36771 233.893 4.2524 233.867 4.43595C234.075 4.50728 236.169 4.57127 235.398 4.38468ZM236.143 3.76393C236.108 3.76833 236.445 4.12185 235.771 4.07705C235.715 4.07284 235.61 3.67509 234.763 3.82069C234.592 3.85068 234.325 4.1138 234.344 4.13015C235.226 4.75435 237.882 3.55886 236.143 3.76393ZM251.33 4.29313C251.194 4.12524 251.523 3.62694 251.82 3.87929C251.948 3.98825 251.71 4.2873 251.33 4.29313ZM230.841 4.22354C231.676 3.92134 229.054 3.8642 228.92 3.94155C229.005 4.12979 230.757 4.25306 230.841 4.22354ZM9.79073 3.05528C9.79007 3.05528 9.78941 3.05528 9.78875 3.05528C10.4915 3.12376 10.0562 3.37516 10.0891 3.38306C11.5859 3.75231 11.1889 3.18291 11.4229 3.11571C11.9248 2.97038 11.8439 3.66282 12.6905 3.37573C11.2911 3.79968 12.5649 3.62196 12.6046 3.8683C12.7614 4.87362 10.7414 3.39757 10.0437 3.60828C9.94644 3.63746 10.6642 3.95831 10.4152 4.04959C9.60533 4.34534 7.09437 2.79342 9.79073 3.05528ZM252.05 3.83534C252.376 3.54005 254.848 3.82646 254.193 4.06973C254.087 4.10873 251.571 4.26576 252.05 3.83534ZM136.541 3.39954C137.136 3.14398 135.758 2.84356 135.503 3.04247C135.376 3.14156 136.28 3.51169 136.541 3.39954ZM126.885 2.30635C126.178 2.35823 125.434 3.42392 126.313 3.25854C126.406 3.24046 126.966 2.45418 126.885 2.30635ZM173.254 2.85386C172.517 2.47302 172.56 3.18063 173.102 3.17065C173.293 3.16723 173.277 2.86591 173.254 2.85386ZM145.111 2.94542C145.038 2.92072 144.185 2.9659 144.216 3.12853C144.531 3.2261 145.589 3.11497 145.111 2.94542ZM173.488 2.75315C173.051 2.88068 173.803 3.39248 174.338 2.89231C174.066 2.93334 173.533 2.74012 173.488 2.75315ZM240.85 2.84837C240.484 3.13893 239.449 3.05113 238.854 3.10106C238.79 2.72462 240.425 2.91662 240.85 2.84837ZM129.882 2.73484C129.214 3.00015 130.646 3.21736 130.515 2.86668C130.496 2.84763 129.909 2.72353 129.882 2.73484ZM197.043 2.7147C196.557 2.93925 198.1 3.24123 197.675 2.84654C197.655 2.83044 197.07 2.7022 197.043 2.7147ZM203.78 2.84471C203.412 2.76896 201.84 2.79226 202.452 3.01134C202.547 3.045 203.753 3.05038 203.78 2.84471ZM11.4644 2.84471C11.2658 2.45801 12.4188 2.55006 12.5838 2.61765C12.6487 2.64576 11.7235 3.34782 11.4644 2.84471ZM168.465 2.79343C168.083 2.84181 167.094 2.74988 166.92 2.95274C167.386 2.91075 168.59 3.19755 168.465 2.79343ZM132.93 2.73301C132.348 2.31281 131.353 2.35428 131.599 2.9033C132.698 2.86651 131.464 2.40983 132.93 2.73301ZM175.945 2.30086C175.639 2.26881 175.405 2.79606 175.439 2.8209C175.771 3.05723 176.249 2.506 175.945 2.30086ZM152.987 2.73484C152.969 2.50952 151.988 2.61178 152.119 2.75681C152.162 2.8055 153.001 2.91718 152.987 2.73484ZM228.006 2.72019C227.557 2.51453 228.929 2.31346 229.335 2.55356C229.533 2.89952 228.063 2.74381 228.006 2.72019ZM184.429 2.4327C184.475 2.09832 182.942 2.28737 183.546 2.56454C183.697 2.6339 184.413 2.54451 184.429 2.4327ZM199.104 2.03169C198.076 2.43044 202.394 2.71354 201.259 2.21663C201.178 2.18122 199.194 1.99801 199.104 2.03169ZM206.156 2.28072C205.978 2.23678 206.067 1.11315 206.801 1.54644C206.897 1.60263 206.446 1.89966 206.525 1.9676C206.571 2.00631 208.168 2.16412 208.241 2.13789C208.32 2.10811 208.227 1.74797 208.307 1.70758C208.398 1.66243 209.38 1.97879 209.895 1.98225C210.865 1.98818 210.97 1.68843 211.049 1.68744C211.281 1.68545 211.67 1.89828 212.14 1.89801C214.507 1.89562 218.128 1.64154 220.004 2.27706C218.334 2.02185 216.743 2.29262 215.081 2.37594C215.568 1.75025 212.637 2.85803 214.351 2.13606C213.562 2.29266 206.737 2.4179 206.158 2.28072C206.157 2.28072 206.156 2.28072 206.156 2.28072ZM124.097 1.9914C124.531 1.60776 122.305 1.69405 122.117 2.13789C122.41 2.19949 124.044 2.03488 124.097 1.9914ZM134.367 1.0557C134.574 0.989475 134.77 0.239575 135.854 0.619889C135.855 0.619889 135.856 0.619889 135.857 0.619889C136.174 0.730955 135.813 0.91368 135.871 0.978789C135.892 1.00538 136.88 1.37841 136.059 1.4384C134.807 1.53044 135.941 0.880524 135.274 0.872584C135.192 0.87197 133.929 1.27789 134.002 1.36699C134.01 1.37737 134.39 1.2915 134.453 1.32853C134.69 1.46775 134.574 1.70193 134.608 1.71307C134.717 1.74163 136.715 1.34268 137.006 1.6911C137.1 1.80345 133.821 2.06263 133.693 2.00422C133.612 1.96741 133.646 1.31739 133.563 1.25346C133.519 1.22162 132.2 1.4652 132.029 1.40544C131.98 1.38816 131.941 1.36953 131.914 1.35417C132.113 1.55528 130.919 1.5408 130.955 1.31389C130.976 1.2247 131.798 1.27632 131.828 1.29191C131.841 1.29851 131.852 1.30761 131.862 1.31389C131.692 1.0688 134.476 1.07985 133.875 0.715108C134.682 0.515295 133.76 1.25018 134.367 1.0557ZM138.246 0.654681C138.162 0.723042 138.079 0.791405 137.996 0.859767C139.408 0.692442 141.039 1.02153 142.666 1.01907C143.079 1.01895 142.604 0.600859 143.145 0.715108C143.579 0.806667 144.059 1.19446 143.823 1.28092C143.766 1.3025 142.883 1.04992 142.441 1.07584C141.136 1.15258 141.466 1.51112 141.39 1.5208C141.305 1.531 140.484 1.27885 140.036 1.29008C138.909 1.3191 138.394 1.53923 136.854 1.25163C137.743 1.01533 137.256 0.501989 138.246 0.654681ZM190.904 1.41826C190.957 1.19259 191.882 1.39281 192.218 1.35966C192.165 1.58589 191.24 1.3851 190.904 1.41826ZM53.1396 1.12528C52.8557 1.49561 54.984 1.5873 54.4231 1.27909C54.2989 1.21069 53.407 1.12791 53.1396 1.12528ZM62.7006 1.35051C62.9853 1.24812 61.8389 0.981491 61.841 1.26811C61.8427 1.36002 62.6639 1.36382 62.7006 1.35051ZM156.507 1.01907C156.561 1.00748 157.344 1.08996 157.369 1.1088C157.888 1.50202 155.31 1.27475 156.507 1.01907ZM74.3235 0.894558C73.3312 1.13729 76.3181 1.2425 75.4054 0.933012C75.3599 0.917937 74.3713 0.882761 74.3235 0.894558ZM78.4752 0.826806C78.2373 0.839815 77.1809 0.719295 77.167 0.8323C77.146 1.01461 78.3551 1.13918 78.4752 0.826806ZM176.152 0.901882C176.037 0.48462 177.43 0.800613 177.914 0.748068C178.029 1.16562 176.636 0.849189 176.152 0.901882ZM167.359 0.594254C173.232 0.265322 171.937 1.15682 167.01 0.797508C167.003 0.52982 166.989 0.614969 167.359 0.594254ZM174.879 0.643694C174.666 0.911006 173.999 0.83174 173.548 0.810327C173.629 0.624475 174.554 0.691736 174.879 0.643694ZM50.6054 0.552137C50.9737 0.214459 52.6046 0.630758 52.3146 0.770041C52.2471 0.80012 50.4701 0.737838 50.6054 0.552137ZM156.999 0.662005C156.862 0.256205 158.626 0.421732 158.761 0.511853C159.305 0.874347 157.142 0.57244 156.999 0.662005ZM184.487 0.544813C184.798 0.226955 185.682 0.390442 186.251 0.394661C185.992 0.666453 184.969 0.550531 184.487 0.544813ZM180.38 0.29578C180.416 0.28358 181.209 0.312277 181.245 0.32691C181.895 0.637367 179.651 0.557859 180.38 0.29578ZM8.81655 0.00280094C8.84298 -0.00744247 9.44375 0.012825 9.46469 0.0247736C10.0009 0.329947 8.19782 0.26759 8.81655 0.00280094Z" fill="#A8D5FF"/>
</svg>
