<svg width="173" height="69" viewBox="0 0 173 69" fill="none" xmlns="http://www.w3.org/2000/svg">
<mask id="path-1-inside-1_287_1162" fill="white">
<path d="M27.502 0C48.6736 0 66.1706 8.10644 68.96 18.627C75.0357 16.8549 82.0564 15.8428 89.5352 15.8428C104.571 15.8428 117.754 19.933 125.132 26.0713C127.098 25.9253 129.107 25.8486 131.151 25.8486C154.264 25.8486 173 35.509 173 47.4248C173 58.4907 156.841 67.608 136.024 68.8525V69H-10.4199V68.9795C-10.9942 68.9915 -11.5714 69 -12.1514 69C-35.2633 69 -53.9997 59.3405 -54 47.4248C-54 35.7449 -35.9986 26.2335 -13.5195 25.8613C-14.0611 24.4761 -14.3457 23.0427 -14.3457 21.5752C-14.3454 9.65955 4.39006 5.31514e-05 27.502 0Z"/>
</mask>
<path d="M27.502 0C48.6736 0 66.1706 8.10644 68.96 18.627C75.0357 16.8549 82.0564 15.8428 89.5352 15.8428C104.571 15.8428 117.754 19.933 125.132 26.0713C127.098 25.9253 129.107 25.8486 131.151 25.8486C154.264 25.8486 173 35.509 173 47.4248C173 58.4907 156.841 67.608 136.024 68.8525V69H-10.4199V68.9795C-10.9942 68.9915 -11.5714 69 -12.1514 69C-35.2633 69 -53.9997 59.3405 -54 47.4248C-54 35.7449 -35.9986 26.2335 -13.5195 25.8613C-14.0611 24.4761 -14.3457 23.0427 -14.3457 21.5752C-14.3454 9.65955 4.39006 5.31514e-05 27.502 0Z" fill="white"/>
<path d="M27.502 0V-8H27.5019L27.502 0ZM68.96 18.627L61.2271 20.6772L63.3284 28.6027L71.1999 26.307L68.96 18.627ZM89.5352 15.8428L89.5352 7.84277H89.5352V15.8428ZM125.132 26.0713L120.015 32.221L122.5 34.2888L125.724 34.0493L125.132 26.0713ZM131.151 25.8486V17.8486H131.151L131.151 25.8486ZM173 47.4248L181 47.425V47.4248H173ZM136.024 68.8525L135.547 60.8668L128.024 61.3166V68.8525H136.024ZM136.024 69V77H144.024V69H136.024ZM-10.4199 69H-18.4199V77H-10.4199V69ZM-10.4199 68.9795H-2.41992V60.8098L-10.5878 60.9813L-10.4199 68.9795ZM-12.1514 69V77H-12.1513L-12.1514 69ZM-54 47.4248H-62V47.425L-54 47.4248ZM-13.5195 25.8613L-13.3871 33.8602L-1.8773 33.6697L-6.06868 22.9485L-13.5195 25.8613ZM-14.3457 21.5752L-22.3457 21.575V21.5752H-14.3457ZM27.502 0V8C37.1421 8 45.6521 9.85713 51.8205 12.6542C58.3225 15.6026 60.7421 18.8477 61.2271 20.6772L68.96 18.627L76.6928 16.5767C74.3885 7.88572 66.6649 1.81735 58.4282 -1.91764C49.8578 -5.80391 39.0335 -8 27.502 -8V0ZM68.96 18.627L71.1999 26.307C76.4953 24.7625 82.7576 23.8428 89.5352 23.8428V15.8428V7.84277C81.3552 7.84277 73.5761 8.94733 66.7201 10.9469L68.96 18.627ZM89.5352 15.8428L89.5351 23.8428C103.458 23.8428 114.565 27.686 120.015 32.221L125.132 26.0713L130.249 19.9215C120.944 12.1799 105.685 7.84285 89.5352 7.84277L89.5352 15.8428ZM125.132 26.0713L125.724 34.0493C127.495 33.9178 129.307 33.8486 131.151 33.8486L131.151 25.8486L131.151 17.8486C128.908 17.8486 126.7 17.9328 124.539 18.0933L125.132 26.0713ZM131.151 25.8486V33.8486C141.7 33.8486 150.854 36.0703 157.077 39.2788C163.711 42.6995 165 46.0008 165 47.4248H173H181C181 36.9329 172.92 29.4462 164.409 25.0577C155.486 20.4571 143.715 17.8486 131.151 17.8486V25.8486ZM173 47.4248L165 47.4246C165 48.7379 163.948 51.6572 158.331 54.886C152.998 57.9517 145.024 60.3002 135.547 60.8668L136.024 68.8525L136.502 76.8383C147.841 76.1603 158.354 73.3279 166.305 68.7573C173.972 64.3498 181 57.1775 181 47.425L173 47.4248ZM136.024 68.8525H128.024V69H136.024H144.024V68.8525H136.024ZM136.024 69V61H-10.4199V69V77H136.024V69ZM-10.4199 69H-2.41992V68.9795H-10.4199H-18.4199V69H-10.4199ZM-10.4199 68.9795L-10.5878 60.9813C-11.1301 60.9926 -11.6471 61 -12.1514 61L-12.1514 69L-12.1513 77C-11.4957 77 -10.8582 76.9905 -10.2521 76.9777L-10.4199 68.9795ZM-12.1514 69V61C-22.7 61 -31.8535 58.7785 -38.0766 55.5701C-44.7112 52.1497 -46 48.8485 -46 47.4246L-54 47.4248L-62 47.425C-61.9997 57.9168 -53.9201 65.4032 -45.4084 69.7914C-36.4853 74.3918 -24.7147 77 -12.1514 77V69ZM-54 47.4248H-46C-46 46.0323 -44.781 42.839 -38.4356 39.4673C-32.4643 36.2944 -23.6414 34.03 -13.3871 33.8602L-13.5195 25.8613L-13.652 17.8624C-25.8767 18.0648 -37.294 20.7422 -45.9433 25.3381C-54.2183 29.7351 -62 37.1375 -62 47.4248H-54ZM-13.5195 25.8613L-6.06868 22.9485C-6.26934 22.4352 -6.3457 21.9874 -6.3457 21.5752H-14.3457H-22.3457C-22.3457 24.0981 -21.8529 26.5169 -20.9704 28.7742L-13.5195 25.8613ZM-14.3457 21.5752L-6.3457 21.5754C-6.34566 20.1514 -5.05693 16.8502 1.57729 13.4298C7.80011 10.2216 16.9534 8.00002 27.502 8L27.502 0L27.5019 -8C14.9387 -7.99997 3.16825 -5.39173 -5.7547 -0.791342C-14.2662 3.59694 -22.3454 11.0834 -22.3457 21.575L-14.3457 21.5752Z" fill="black" mask="url(#path-1-inside-1_287_1162)"/>
</svg>
