<svg width="227" height="69" viewBox="0 0 227 69" fill="none" xmlns="http://www.w3.org/2000/svg">
<mask id="path-1-inside-1_287_1156" fill="white">
<path d="M145.498 0C124.326 0 106.829 8.10644 104.04 18.627C97.9643 16.8549 90.9436 15.8428 83.4648 15.8428C68.4286 15.8428 55.2458 19.933 47.8682 26.0713C45.9025 25.9253 43.8927 25.8486 41.8486 25.8486C18.7364 25.8486 0 35.509 0 47.4248C0.000320435 58.4907 16.1594 67.608 36.9756 68.8525V69H183.42V68.9795C183.994 68.9915 184.571 69 185.151 69C208.263 69 227 59.3405 227 47.4248C227 35.7449 208.999 26.2335 186.52 25.8613C187.061 24.4761 187.346 23.0427 187.346 21.5752C187.345 9.65955 168.61 5.31514e-05 145.498 0Z"/>
</mask>
<path d="M145.498 0C124.326 0 106.829 8.10644 104.04 18.627C97.9643 16.8549 90.9436 15.8428 83.4648 15.8428C68.4286 15.8428 55.2458 19.933 47.8682 26.0713C45.9025 25.9253 43.8927 25.8486 41.8486 25.8486C18.7364 25.8486 0 35.509 0 47.4248C0.000320435 58.4907 16.1594 67.608 36.9756 68.8525V69H183.42V68.9795C183.994 68.9915 184.571 69 185.151 69C208.263 69 227 59.3405 227 47.4248C227 35.7449 208.999 26.2335 186.52 25.8613C187.061 24.4761 187.346 23.0427 187.346 21.5752C187.345 9.65955 168.61 5.31514e-05 145.498 0Z" fill="white"/>
<path d="M145.498 0V-8H145.498L145.498 0ZM104.04 18.627L111.773 20.6772L109.672 28.6027L101.8 26.307L104.04 18.627ZM83.4648 15.8428L83.4648 7.84277H83.4648V15.8428ZM47.8682 26.0713L52.9848 32.221L50.4996 34.2888L47.2756 34.0493L47.8682 26.0713ZM41.8486 25.8486V17.8486H41.8487L41.8486 25.8486ZM0 47.4248L-8 47.425V47.4248H0ZM36.9756 68.8525L37.453 60.8668L44.9756 61.3166V68.8525H36.9756ZM36.9756 69V77H28.9756V69H36.9756ZM183.42 69H191.42V77H183.42V69ZM183.42 68.9795H175.42V60.8098L183.588 60.9813L183.42 68.9795ZM185.151 69V77H185.151L185.151 69ZM227 47.4248H235V47.425L227 47.4248ZM186.52 25.8613L186.387 33.8602L174.877 33.6697L179.069 22.9485L186.52 25.8613ZM187.346 21.5752L195.346 21.575V21.5752H187.346ZM145.498 0V8C135.858 8 127.348 9.85713 121.179 12.6542C114.677 15.6026 112.258 18.8477 111.773 20.6772L104.04 18.627L96.3072 16.5767C98.6115 7.88572 106.335 1.81735 114.572 -1.91764C123.142 -5.80391 133.967 -8 145.498 -8V0ZM104.04 18.627L101.8 26.307C96.5047 24.7625 90.2424 23.8428 83.4648 23.8428V15.8428V7.84277C91.6448 7.84277 99.4239 8.94733 106.28 10.9469L104.04 18.627ZM83.4648 15.8428L83.4649 23.8428C69.5421 23.8428 58.4355 27.686 52.9848 32.221L47.8682 26.0713L42.7515 19.9215C52.0562 12.1799 67.3152 7.84285 83.4648 7.84277L83.4648 15.8428ZM47.8682 26.0713L47.2756 34.0493C45.5051 33.9178 43.6929 33.8486 41.8486 33.8486L41.8486 25.8486L41.8487 17.8486C44.0925 17.8486 46.2999 17.9328 48.4607 18.0933L47.8682 26.0713ZM41.8486 25.8486V33.8486C31.3 33.8486 22.1464 36.0703 15.9233 39.2788C9.28871 42.6995 8 46.0008 8 47.4248H0H-8C-8 36.9329 0.0795135 29.4462 8.59117 25.0577C17.5144 20.4571 29.2851 17.8486 41.8486 17.8486V25.8486ZM0 47.4248L8 47.4246C8.00005 48.7379 9.05228 51.6572 14.6689 54.886C20.0018 57.9517 27.9762 60.3002 37.453 60.8668L36.9756 68.8525L36.4981 76.8383C25.1587 76.1603 14.6456 73.3279 6.69479 68.7573C-0.972275 64.3498 -7.99971 57.1775 -8 47.425L0 47.4248ZM36.9756 68.8525H44.9756V69H36.9756H28.9756V68.8525H36.9756ZM36.9756 69V61H183.42V69V77H36.9756V69ZM183.42 69H175.42V68.9795H183.42H191.42V69H183.42ZM183.42 68.9795L183.588 60.9813C184.13 60.9926 184.647 61 185.151 61L185.151 69L185.151 77C184.496 77 183.858 76.9905 183.252 76.9777L183.42 68.9795ZM185.151 69V61C195.7 61 204.854 58.7785 211.077 55.5701C217.711 52.1497 219 48.8485 219 47.4246L227 47.4248L235 47.425C235 57.9168 226.92 65.4032 218.408 69.7914C209.485 74.3918 197.715 77 185.151 77V69ZM227 47.4248H219C219 46.0323 217.781 42.839 211.436 39.4673C205.464 36.2944 196.641 34.03 186.387 33.8602L186.52 25.8613L186.652 17.8624C198.877 18.0648 210.294 20.7422 218.943 25.3381C227.218 29.7351 235 37.1375 235 47.4248H227ZM186.52 25.8613L179.069 22.9485C179.269 22.4352 179.346 21.9874 179.346 21.5752H187.346H195.346C195.346 24.0981 194.853 26.5169 193.97 28.7742L186.52 25.8613ZM187.346 21.5752L179.346 21.5754C179.346 20.1514 178.057 16.8502 171.423 13.4298C165.2 10.2216 156.047 8.00002 145.498 8L145.498 0L145.498 -8C158.061 -7.99997 169.832 -5.39173 178.755 -0.791342C187.266 3.59694 195.345 11.0834 195.346 21.575L187.346 21.5752Z" fill="black" mask="url(#path-1-inside-1_287_1156)"/>
</svg>
